STARTFONT 2.1
FONT -FontForge-Roboto Mono-Bold-R-Normal--20-190-75-75-P-119-ISO10646-1
SIZE 19 75 75
FONTBOUNDINGBOX 36 26 -16 -5
COMMENT "Generated by fontforge, http://fontforge.sourceforge.net"
COMMENT "Copyright 2015 Google Inc. All Rights Reserved."
STARTPROPERTIES 41
FOUNDRY "FontForge"
FAMILY_NAME "Roboto Mono"
WEIGHT_NAME "Bold"
SLANT "R"
SETWIDTH_NAME "Normal"
ADD_STYLE_NAME ""
PIXEL_SIZE 20
POINT_SIZE 190
RESOLUTION_X 75
RESOLUTION_Y 75
SPACING "P"
AVERAGE_WIDTH 119
CHARSET_REGISTRY "ISO10646"
CHARSET_ENCODING "1"
FONTNAME_REGISTRY ""
CHARSET_COLLECTIONS "ISO8859-2 ISO8859-5 ISO8859-7 ISO8859-9 ISO8859-4 ISO10646-1"
FONT_NAME "RobotoMono-Bold"
FACE_NAME "Roboto Mono Bold"
COPYRIGHT "Copyright 2015 Google Inc. All Rights Reserved."
FONT_VERSION "2.000985; 2015; ttfautohint (v1.3)"
FONT_ASCENT 16
FONT_DESCENT 4
UNDERLINE_POSITION -2
UNDERLINE_THICKNESS 1
X_HEIGHT 10
CAP_HEIGHT 14
DEFAULT_CHAR 1
RAW_ASCENT 799
RAW_DESCENT 200
NORM_SPACE 12
RELATIVE_WEIGHT 70
RELATIVE_SETWIDTH 50
SUPERSCRIPT_X 0
SUPERSCRIPT_Y 9
SUPERSCRIPT_SIZE 12
SUBSCRIPT_X 0
SUBSCRIPT_Y 2
SUBSCRIPT_SIZE 12
FIGURE_WIDTH 12
AVG_LOWERCASE_WIDTH 120
AVG_UPPERCASE_WIDTH 120
ENDPROPERTIES
CHARS 1012
STARTCHAR NULL.dup1
ENCODING 0
SWIDTH 0 0
DWIDTH 0 0
BBX 1 1 0 0
BITMAP
00
ENDCHAR
STARTCHAR uni0002
ENCODING 2
SWIDTH 600 0
DWIDTH 12 0
BBX 1 1 0 0
BITMAP
00
ENDCHAR
STARTCHAR uni0009
ENCODING 9
SWIDTH 600 0
DWIDTH 12 0
BBX 1 1 0 0
BITMAP
00
ENDCHAR
STARTCHAR nonmarkingreturn
ENCODING 13
SWIDTH 600 0
DWIDTH 12 0
BBX 1 1 0 0
BITMAP
00
ENDCHAR
STARTCHAR space
ENCODING 32
SWIDTH 600 0
DWIDTH 12 0
BBX 1 1 0 0
BITMAP
00
ENDCHAR
STARTCHAR exclam
ENCODING 33
SWIDTH 600 0
DWIDTH 12 0
BBX 4 15 4 0
BITMAP
60
60
60
60
60
60
60
60
60
00
00
00
60
F0
60
ENDCHAR
STARTCHAR quotedbl
ENCODING 34
SWIDTH 600 0
DWIDTH 12 0
BBX 6 5 3 10
BITMAP
CC
CC
CC
CC
CC
ENDCHAR
STARTCHAR numbersign
ENCODING 35
SWIDTH 600 0
DWIDTH 12 0
BBX 11 15 0 0
BITMAP
0CC0
0CC0
0C80
0C80
7FE0
7FE0
1980
1980
1900
FFE0
FFE0
1300
3300
3300
3200
ENDCHAR
STARTCHAR dollar
ENCODING 36
SWIDTH 600 0
DWIDTH 12 0
BBX 10 19 1 -2
BITMAP
0400
0400
1F00
3F80
71C0
71C0
71C0
7000
7E00
3F00
0F80
01C0
E1C0
E1C0
71C0
7F80
3F00
0400
0400
ENDCHAR
STARTCHAR percent
ENCODING 37
SWIDTH 600 0
DWIDTH 12 0
BBX 12 15 0 0
BITMAP
7800
7C00
CC80
CCC0
CD80
7F00
3B00
0600
05E0
0FE0
0B30
1B30
1330
03E0
01E0
ENDCHAR
STARTCHAR ampersand
ENCODING 38
SWIDTH 600 0
DWIDTH 12 0
BBX 11 15 1 0
BITMAP
1E00
3F00
7700
7300
7300
7600
3E00
3800
7CE0
EEE0
E7C0
E7C0
E380
FFC0
3EE0
ENDCHAR
STARTCHAR quotesingle
ENCODING 39
SWIDTH 600 0
DWIDTH 12 0
BBX 3 5 4 10
BITMAP
E0
E0
C0
C0
C0
ENDCHAR
STARTCHAR parenleft
ENCODING 40
SWIDTH 600 0
DWIDTH 12 0
BBX 6 20 3 -4
BITMAP
04
1C
18
30
70
60
60
60
E0
E0
E0
E0
60
60
60
60
30
30
18
0C
ENDCHAR
STARTCHAR parenright
ENCODING 41
SWIDTH 600 0
DWIDTH 12 0
BBX 6 20 3 -4
BITMAP
80
C0
60
30
30
38
18
18
1C
1C
1C
1C
18
18
18
38
30
70
60
C0
ENDCHAR
STARTCHAR asterisk
ENCODING 42
SWIDTH 600 0
DWIDTH 12 0
BBX 11 10 1 2
BITMAP
0E00
0400
0400
64C0
FFE0
0F00
0E00
1B00
3180
3100
ENDCHAR
STARTCHAR plus
ENCODING 43
SWIDTH 600 0
DWIDTH 12 0
BBX 10 11 1 1
BITMAP
0C00
0C00
0C00
0C00
0C00
FFC0
FFC0
0C00
0C00
0C00
0C00
ENDCHAR
STARTCHAR comma
ENCODING 44
SWIDTH 600 0
DWIDTH 12 0
BBX 3 6 4 -4
BITMAP
E0
E0
E0
E0
C0
C0
ENDCHAR
STARTCHAR hyphen
ENCODING 45
SWIDTH 600 0
DWIDTH 12 0
BBX 8 2 3 5
BITMAP
FF
FF
ENDCHAR
STARTCHAR period
ENCODING 46
SWIDTH 600 0
DWIDTH 12 0
BBX 4 4 4 0
BITMAP
60
F0
F0
60
ENDCHAR
STARTCHAR slash
ENCODING 47
SWIDTH 600 0
DWIDTH 12 0
BBX 8 15 2 0
BITMAP
07
06
06
0E
0C
0C
1C
18
18
38
30
30
70
60
E0
ENDCHAR
STARTCHAR zero
ENCODING 48
SWIDTH 600 0
DWIDTH 12 0
BBX 10 15 1 0
BITMAP
1E00
3F00
7380
6180
E1C0
E3C0
E7C0
EDC0
F9C0
F1C0
E1C0
6180
7380
3F00
1E00
ENDCHAR
STARTCHAR one
ENCODING 49
SWIDTH 600 0
DWIDTH 12 0
BBX 6 15 2 0
BITMAP
04
1C
FC
FC
DC
1C
1C
1C
1C
1C
1C
1C
1C
1C
1C
ENDCHAR
STARTCHAR two
ENCODING 50
SWIDTH 600 0
DWIDTH 12 0
BBX 10 15 1 0
BITMAP
3E00
7F00
E380
E380
C180
0380
0380
0700
0E00
1C00
3800
7800
7000
FFC0
FFC0
ENDCHAR
STARTCHAR three
ENCODING 51
SWIDTH 600 0
DWIDTH 12 0
BBX 10 15 1 0
BITMAP
3E00
7F80
F380
E180
0180
0380
1F00
1F00
0380
01C0
01C0
E1C0
F380
7F80
3E00
ENDCHAR
STARTCHAR four
ENCODING 52
SWIDTH 600 0
DWIDTH 12 0
BBX 10 15 1 0
BITMAP
0700
0700
0F00
0F00
1B00
3B00
3300
7300
6300
C300
FFC0
FFC0
0300
0300
0300
ENDCHAR
STARTCHAR five
ENCODING 53
SWIDTH 600 0
DWIDTH 12 0
BBX 10 15 1 0
BITMAP
7F80
7F80
7000
6000
6000
7F00
7F80
6380
01C0
01C0
01C0
E1C0
7380
7F80
1E00
ENDCHAR
STARTCHAR six
ENCODING 54
SWIDTH 600 0
DWIDTH 12 0
BBX 10 15 1 0
BITMAP
0F00
1F00
3C00
7000
6000
EF00
FF80
F380
E1C0
E1C0
E1C0
E1C0
7380
7F00
1E00
ENDCHAR
STARTCHAR seven
ENCODING 55
SWIDTH 600 0
DWIDTH 12 0
BBX 10 15 1 0
BITMAP
FFC0
FFC0
0180
0380
0300
0700
0700
0600
0E00
0C00
1C00
1C00
3800
3800
7000
ENDCHAR
STARTCHAR eight
ENCODING 56
SWIDTH 600 0
DWIDTH 12 0
BBX 10 15 1 0
BITMAP
3E00
7F00
7380
E180
E180
7380
7F00
3F00
7380
E180
E1C0
E1C0
F380
7F80
3E00
ENDCHAR
STARTCHAR nine
ENCODING 57
SWIDTH 600 0
DWIDTH 12 0
BBX 9 15 1 0
BITMAP
1E00
7F00
7380
E380
E180
E180
E180
E380
7F80
3D80
0380
0380
0F00
3E00
3800
ENDCHAR
STARTCHAR colon
ENCODING 58
SWIDTH 600 0
DWIDTH 12 0
BBX 4 12 4 0
BITMAP
60
F0
F0
60
00
00
00
00
60
F0
F0
60
ENDCHAR
STARTCHAR semicolon
ENCODING 59
SWIDTH 600 0
DWIDTH 12 0
BBX 4 16 4 -4
BITMAP
70
70
70
70
00
00
00
00
00
00
70
70
70
60
60
E0
ENDCHAR
STARTCHAR less
ENCODING 60
SWIDTH 600 0
DWIDTH 12 0
BBX 8 10 2 1
BITMAP
01
07
1F
FC
E0
F0
7E
1F
03
01
ENDCHAR
STARTCHAR equal
ENCODING 61
SWIDTH 600 0
DWIDTH 12 0
BBX 9 6 2 3
BITMAP
FF80
FF80
0000
0000
FF80
FF80
ENDCHAR
STARTCHAR greater
ENCODING 62
SWIDTH 600 0
DWIDTH 12 0
BBX 8 10 2 1
BITMAP
80
E0
F8
3F
07
0F
7E
F8
C0
80
ENDCHAR
STARTCHAR question
ENCODING 63
SWIDTH 600 0
DWIDTH 12 0
BBX 9 15 2 0
BITMAP
3E00
FF00
E780
C380
0380
0700
0700
0E00
1C00
1800
1800
0000
1800
3C00
1800
ENDCHAR
STARTCHAR at
ENCODING 64
SWIDTH 600 0
DWIDTH 12 0
BBX 11 15 0 0
BITMAP
0F80
1FC0
3060
6060
6720
4FA0
4DA0
D9A0
D920
D920
5960
6FC0
7000
3F00
1F80
ENDCHAR
STARTCHAR A
ENCODING 65
SWIDTH 600 0
DWIDTH 12 0
BBX 12 15 0 0
BITMAP
0700
0F00
0F00
0F00
0F80
1D80
1D80
19C0
39C0
38C0
3FE0
7FE0
70E0
7070
E070
ENDCHAR
STARTCHAR B
ENCODING 66
SWIDTH 600 0
DWIDTH 12 0
BBX 11 15 1 0
BITMAP
FF00
FF80
E3C0
E1C0
E1C0
E1C0
E3C0
FF80
FFC0
E1C0
E0E0
E0C0
E1C0
FFC0
FF00
ENDCHAR
STARTCHAR C
ENCODING 67
SWIDTH 600 0
DWIDTH 12 0
BBX 10 15 1 0
BITMAP
1F00
7F80
73C0
E1C0
E1C0
E000
E000
E000
E000
E000
E1C0
E1C0
73C0
7F80
1E00
ENDCHAR
STARTCHAR D
ENCODING 68
SWIDTH 600 0
DWIDTH 12 0
BBX 10 15 1 0
BITMAP
FC00
FF00
E780
E380
E1C0
E1C0
E1C0
E1C0
E1C0
E1C0
E1C0
E380
E780
FF00
FC00
ENDCHAR
STARTCHAR E
ENCODING 69
SWIDTH 600 0
DWIDTH 12 0
BBX 10 15 1 0
BITMAP
FFC0
FFC0
E000
E000
E000
E000
E000
FF80
FF80
E000
E000
E000
E000
FFC0
FFC0
ENDCHAR
STARTCHAR F
ENCODING 70
SWIDTH 600 0
DWIDTH 12 0
BBX 10 15 1 0
BITMAP
FFC0
FFC0
E000
E000
E000
E000
E000
FF80
FF80
E000
E000
E000
E000
E000
E000
ENDCHAR
STARTCHAR G
ENCODING 71
SWIDTH 600 0
DWIDTH 12 0
BBX 10 15 1 0
BITMAP
1F00
3F80
73C0
E1C0
E000
E000
E000
E7C0
E7C0
E1C0
E1C0
E1C0
71C0
7FC0
1F00
ENDCHAR
STARTCHAR H
ENCODING 72
SWIDTH 600 0
DWIDTH 12 0
BBX 10 15 1 0
BITMAP
E1C0
E1C0
E1C0
E1C0
E1C0
E1C0
E1C0
FFC0
FFC0
E1C0
E1C0
E1C0
E1C0
E1C0
E1C0
ENDCHAR
STARTCHAR I
ENCODING 73
SWIDTH 600 0
DWIDTH 12 0
BBX 8 15 2 0
BITMAP
FF
FF
18
18
18
18
18
18
18
18
18
18
18
FF
FF
ENDCHAR
STARTCHAR J
ENCODING 74
SWIDTH 600 0
DWIDTH 12 0
BBX 10 15 1 0
BITMAP
01C0
01C0
01C0
01C0
01C0
01C0
01C0
01C0
01C0
01C0
E1C0
E1C0
F380
7F80
3E00
ENDCHAR
STARTCHAR K
ENCODING 75
SWIDTH 600 0
DWIDTH 12 0
BBX 11 15 1 0
BITMAP
E1E0
E1C0
E380
E780
E700
EE00
FC00
FE00
FE00
F700
E780
E380
E1C0
E1C0
E0E0
ENDCHAR
STARTCHAR L
ENCODING 76
SWIDTH 600 0
DWIDTH 12 0
BBX 10 15 1 0
BITMAP
E000
E000
E000
E000
E000
E000
E000
E000
E000
E000
E000
E000
E000
FFC0
FFC0
ENDCHAR
STARTCHAR M
ENCODING 77
SWIDTH 600 0
DWIDTH 12 0
BBX 10 15 1 0
BITMAP
F3C0
F3C0
F3C0
F3C0
FEC0
FEC0
FFC0
EDC0
EDC0
EDC0
E1C0
E1C0
E1C0
E1C0
E1C0
ENDCHAR
STARTCHAR N
ENCODING 78
SWIDTH 600 0
DWIDTH 12 0
BBX 10 15 1 0
BITMAP
E1C0
F1C0
F1C0
F1C0
F9C0
F9C0
FDC0
EDC0
EDC0
E7C0
E7C0
E7C0
E3C0
E3C0
E1C0
ENDCHAR
STARTCHAR O
ENCODING 79
SWIDTH 600 0
DWIDTH 12 0
BBX 10 15 1 0
BITMAP
1E00
7F80
7380
E1C0
E1C0
E1C0
E1C0
E1C0
E1C0
E1C0
E1C0
E1C0
7380
7F80
1E00
ENDCHAR
STARTCHAR P
ENCODING 80
SWIDTH 600 0
DWIDTH 12 0
BBX 10 15 1 0
BITMAP
FF00
FF80
E3C0
E1C0
E0C0
E0C0
E1C0
E3C0
FF80
FF00
E000
E000
E000
E000
E000
ENDCHAR
STARTCHAR Q
ENCODING 81
SWIDTH 600 0
DWIDTH 12 0
BBX 11 17 1 -2
BITMAP
1E00
7F80
7380
E1C0
E1C0
E1C0
E1C0
E1C0
E1C0
E1C0
E1C0
E1C0
7380
7F80
1F80
01E0
00C0
ENDCHAR
STARTCHAR R
ENCODING 82
SWIDTH 600 0
DWIDTH 12 0
BBX 11 15 1 0
BITMAP
FF00
FF80
E3C0
E1C0
E1C0
E1C0
E1C0
FF80
FF00
E700
E380
E380
E1C0
E1C0
E0E0
ENDCHAR
STARTCHAR S
ENCODING 83
SWIDTH 600 0
DWIDTH 12 0
BBX 10 15 1 0
BITMAP
1F00
7F80
71C0
E1C0
E0C0
7000
7E00
3F80
07C0
01C0
E0C0
E0C0
F1C0
7F80
1F00
ENDCHAR
STARTCHAR T
ENCODING 84
SWIDTH 600 0
DWIDTH 12 0
BBX 12 15 0 0
BITMAP
FFF0
FFF0
0600
0600
0600
0600
0600
0600
0600
0600
0600
0600
0600
0600
0600
ENDCHAR
STARTCHAR U
ENCODING 85
SWIDTH 600 0
DWIDTH 12 0
BBX 10 15 1 0
BITMAP
E1C0
E1C0
E1C0
E1C0
E1C0
E1C0
E1C0
E1C0
E1C0
E1C0
E1C0
E1C0
7380
7F80
1E00
ENDCHAR
STARTCHAR V
ENCODING 86
SWIDTH 600 0
DWIDTH 12 0
BBX 12 15 0 0
BITMAP
E070
70E0
70E0
70E0
31C0
39C0
39C0
39C0
1F80
1F80
1F80
0F00
0F00
0F00
0F00
ENDCHAR
STARTCHAR W
ENCODING 87
SWIDTH 600 0
DWIDTH 12 0
BBX 12 15 0 0
BITMAP
E670
E670
6660
6660
6F60
6F60
7FE0
7FE0
7FE0
7BE0
39C0
39C0
39C0
39C0
39C0
ENDCHAR
STARTCHAR X
ENCODING 88
SWIDTH 600 0
DWIDTH 12 0
BBX 12 15 0 0
BITMAP
F0F0
70E0
39E0
39C0
1F80
1F80
0F00
0F00
0F00
1F80
1D80
39C0
38E0
70E0
F0F0
ENDCHAR
STARTCHAR Y
ENCODING 89
SWIDTH 600 0
DWIDTH 12 0
BBX 12 15 0 0
BITMAP
F070
70E0
70E0
39C0
39C0
1D80
1F80
0F80
0F00
0700
0600
0600
0600
0600
0600
ENDCHAR
STARTCHAR Z
ENCODING 90
SWIDTH 600 0
DWIDTH 12 0
BBX 10 15 1 0
BITMAP
FFC0
FFC0
01C0
0380
0700
0700
0E00
1C00
1C00
3800
3800
7000
E000
FFC0
FFC0
ENDCHAR
STARTCHAR bracketleft
ENCODING 91
SWIDTH 600 0
DWIDTH 12 0
BBX 4 20 4 -3
BITMAP
F0
F0
E0
E0
E0
E0
E0
E0
E0
E0
E0
E0
E0
E0
E0
E0
E0
E0
F0
F0
ENDCHAR
STARTCHAR backslash
ENCODING 92
SWIDTH 600 0
DWIDTH 12 0
BBX 8 15 2 0
BITMAP
E0
60
70
30
30
38
18
18
1C
0C
0C
0E
06
07
07
ENDCHAR
STARTCHAR bracketright
ENCODING 93
SWIDTH 600 0
DWIDTH 12 0
BBX 4 20 4 -3
BITMAP
F0
F0
30
30
30
30
30
30
30
30
30
30
30
30
30
30
30
30
F0
F0
ENDCHAR
STARTCHAR asciicircum
ENCODING 94
SWIDTH 600 0
DWIDTH 12 0
BBX 8 7 2 8
BITMAP
18
1C
3C
36
66
66
E3
ENDCHAR
STARTCHAR underscore
ENCODING 95
SWIDTH 600 0
DWIDTH 12 0
BBX 9 2 1 -2
BITMAP
FF80
FF80
ENDCHAR
STARTCHAR grave
ENCODING 96
SWIDTH 600 0
DWIDTH 12 0
BBX 5 2 4 13
BITMAP
E0
38
ENDCHAR
STARTCHAR a
ENCODING 97
SWIDTH 600 0
DWIDTH 12 0
BBX 10 11 1 0
BITMAP
3E00
7F80
E380
0180
3F80
7F80
F180
E180
E380
7F80
3DC0
ENDCHAR
STARTCHAR b
ENCODING 98
SWIDTH 600 0
DWIDTH 12 0
BBX 10 15 1 0
BITMAP
E000
E000
E000
E000
EF00
FF80
F380
E1C0
E1C0
E1C0
E1C0
E1C0
F380
FF80
EF00
ENDCHAR
STARTCHAR c
ENCODING 99
SWIDTH 600 0
DWIDTH 12 0
BBX 10 11 1 0
BITMAP
1E00
7F80
7380
E1C0
E000
E000
E000
E1C0
7380
7F80
1E00
ENDCHAR
STARTCHAR d
ENCODING 100
SWIDTH 600 0
DWIDTH 12 0
BBX 10 15 1 0
BITMAP
01C0
01C0
01C0
01C0
3DC0
7FC0
73C0
E1C0
E1C0
E1C0
E1C0
E1C0
73C0
7FC0
3DC0
ENDCHAR
STARTCHAR e
ENCODING 101
SWIDTH 600 0
DWIDTH 12 0
BBX 10 11 1 0
BITMAP
1F00
3F80
7380
E1C0
FFC0
FFC0
E000
E000
7180
3FC0
1F00
ENDCHAR
STARTCHAR f
ENCODING 102
SWIDTH 600 0
DWIDTH 12 0
BBX 10 16 1 0
BITMAP
07C0
0FC0
1E00
1C00
1C00
FFC0
FFC0
1C00
1C00
1C00
1C00
1C00
1C00
1C00
1C00
1C00
ENDCHAR
STARTCHAR g
ENCODING 103
SWIDTH 600 0
DWIDTH 12 0
BBX 10 15 1 -4
BITMAP
3DC0
7FC0
73C0
E1C0
E1C0
E1C0
E1C0
E1C0
73C0
7FC0
3DC0
01C0
6380
7F80
3E00
ENDCHAR
STARTCHAR h
ENCODING 104
SWIDTH 600 0
DWIDTH 12 0
BBX 10 15 1 0
BITMAP
E000
E000
E000
E000
EF00
FF80
F3C0
E1C0
E1C0
E1C0
E1C0
E1C0
E1C0
E1C0
E1C0
ENDCHAR
STARTCHAR i
ENCODING 105
SWIDTH 600 0
DWIDTH 12 0
BBX 9 15 2 0
BITMAP
1C00
1C00
1C00
0000
FC00
FC00
1C00
1C00
1C00
1C00
1C00
1C00
1C00
FF80
FF80
ENDCHAR
STARTCHAR j
ENCODING 106
SWIDTH 600 0
DWIDTH 12 0
BBX 7 19 2 -4
BITMAP
0C
1E
0C
00
7C
7C
0C
0C
0C
0C
0C
0C
0C
0C
0C
0C
1C
FC
F8
ENDCHAR
STARTCHAR k
ENCODING 107
SWIDTH 600 0
DWIDTH 12 0
BBX 11 15 1 0
BITMAP
E000
E000
E000
E000
E3C0
E380
E700
EE00
FC00
FE00
FE00
E700
E380
E3C0
E1E0
ENDCHAR
STARTCHAR l
ENCODING 108
SWIDTH 600 0
DWIDTH 12 0
BBX 9 15 2 0
BITMAP
FC00
FC00
1C00
1C00
1C00
1C00
1C00
1C00
1C00
1C00
1C00
1C00
1C00
FF80
FF80
ENDCHAR
STARTCHAR m
ENCODING 109
SWIDTH 600 0
DWIDTH 12 0
BBX 10 11 1 0
BITMAP
DF80
FFC0
CDC0
CCC0
CCC0
CCC0
CCC0
CCC0
CCC0
CCC0
CCC0
ENDCHAR
STARTCHAR n
ENCODING 110
SWIDTH 600 0
DWIDTH 12 0
BBX 10 11 1 0
BITMAP
EF00
FF80
F3C0
E1C0
E1C0
E1C0
E1C0
E1C0
E1C0
E1C0
E1C0
ENDCHAR
STARTCHAR o
ENCODING 111
SWIDTH 600 0
DWIDTH 12 0
BBX 10 11 1 0
BITMAP
1E00
7F80
7380
E1C0
E1C0
E1C0
E1C0
E1C0
7380
7F80
1E00
ENDCHAR
STARTCHAR p
ENCODING 112
SWIDTH 600 0
DWIDTH 12 0
BBX 10 15 1 -4
BITMAP
EF00
FF80
F380
E1C0
E1C0
E1C0
E1C0
E1C0
F380
FF80
EF00
E000
E000
E000
E000
ENDCHAR
STARTCHAR q
ENCODING 113
SWIDTH 600 0
DWIDTH 12 0
BBX 10 15 1 -4
BITMAP
3DC0
7FC0
73C0
E1C0
E1C0
E1C0
E1C0
E1C0
73C0
7FC0
3DC0
01C0
01C0
01C0
01C0
ENDCHAR
STARTCHAR r
ENCODING 114
SWIDTH 600 0
DWIDTH 12 0
BBX 8 11 3 0
BITMAP
CF
DF
F1
E0
E0
E0
E0
E0
E0
E0
E0
ENDCHAR
STARTCHAR s
ENCODING 115
SWIDTH 600 0
DWIDTH 12 0
BBX 10 11 1 0
BITMAP
1F00
7F80
73C0
61C0
7000
3F00
0380
E1C0
F1C0
7F80
1F00
ENDCHAR
STARTCHAR t
ENCODING 116
SWIDTH 600 0
DWIDTH 12 0
BBX 10 14 1 0
BITMAP
1800
1800
1800
FF80
FF80
1800
1800
1800
1800
1800
1800
1C40
1FC0
0F80
ENDCHAR
STARTCHAR u
ENCODING 117
SWIDTH 600 0
DWIDTH 12 0
BBX 10 11 1 0
BITMAP
E1C0
E1C0
E1C0
E1C0
E1C0
E1C0
E1C0
61C0
73C0
7FC0
3DC0
ENDCHAR
STARTCHAR v
ENCODING 118
SWIDTH 600 0
DWIDTH 12 0
BBX 10 11 1 0
BITMAP
E1C0
E1C0
6180
7380
7380
3300
3300
3F00
1E00
1E00
0C00
ENDCHAR
STARTCHAR w
ENCODING 119
SWIDTH 600 0
DWIDTH 12 0
BBX 12 11 0 0
BITMAP
E670
6660
6660
6E60
6FE0
6FE0
7BC0
39C0
39C0
39C0
39C0
ENDCHAR
STARTCHAR x
ENCODING 120
SWIDTH 600 0
DWIDTH 12 0
BBX 11 11 1 0
BITMAP
E1C0
7380
3B80
3F00
1F00
0E00
1F00
3F00
3380
71C0
E1E0
ENDCHAR
STARTCHAR y
ENCODING 121
SWIDTH 600 0
DWIDTH 12 0
BBX 11 15 1 -4
BITMAP
E0E0
E1C0
61C0
7180
7380
3B80
3B00
1F00
1E00
0E00
0C00
1C00
3C00
7800
7000
ENDCHAR
STARTCHAR z
ENCODING 122
SWIDTH 600 0
DWIDTH 12 0
BBX 10 11 1 0
BITMAP
FFC0
FFC0
0380
0700
0E00
1E00
3C00
3800
7000
FFC0
FFC0
ENDCHAR
STARTCHAR braceleft
ENCODING 123
SWIDTH 600 0
DWIDTH 12 0
BBX 7 20 3 -4
BITMAP
04
1E
18
18
38
38
38
38
38
F0
E0
70
38
38
38
38
18
18
1E
0C
ENDCHAR
STARTCHAR bar
ENCODING 124
SWIDTH 600 0
DWIDTH 12 0
BBX 2 19 5 -4
BITMAP
C0
C0
C0
C0
C0
C0
C0
C0
C0
C0
C0
C0
C0
C0
C0
C0
C0
C0
C0
ENDCHAR
STARTCHAR braceright
ENCODING 125
SWIDTH 600 0
DWIDTH 12 0
BBX 7 20 3 -4
BITMAP
40
E0
70
30
30
30
30
30
38
1E
1E
38
30
30
30
30
30
70
E0
C0
ENDCHAR
STARTCHAR asciitilde
ENCODING 126
SWIDTH 600 0
DWIDTH 12 0
BBX 11 4 0 4
BITMAP
7C60
7E60
C7E0
03C0
ENDCHAR
STARTCHAR nonbreakingspace
ENCODING 160
SWIDTH 600 0
DWIDTH 12 0
BBX 1 1 0 0
BITMAP
00
ENDCHAR
STARTCHAR exclamdown
ENCODING 161
SWIDTH 600 0
DWIDTH 12 0
BBX 3 15 5 -4
BITMAP
E0
E0
E0
00
00
00
C0
E0
E0
E0
E0
E0
E0
E0
E0
ENDCHAR
STARTCHAR cent
ENCODING 162
SWIDTH 600 0
DWIDTH 12 0
BBX 10 15 1 -2
BITMAP
0C00
0C00
1F00
3F80
71C0
61C0
E000
E000
E000
61C0
71C0
3F80
1F00
0C00
0C00
ENDCHAR
STARTCHAR sterling
ENCODING 163
SWIDTH 600 0
DWIDTH 12 0
BBX 10 15 1 0
BITMAP
0F00
1FC0
39C0
30C0
3000
3000
3000
FE00
FE00
3000
3800
3000
7000
FFC0
FFC0
ENDCHAR
STARTCHAR currency
ENCODING 164
SWIDTH 600 0
DWIDTH 12 0
BBX 10 11 1 0
BITMAP
5EC0
FFC0
7380
6180
C0C0
C0C0
C0C0
6180
7380
FFC0
5E80
ENDCHAR
STARTCHAR yen
ENCODING 165
SWIDTH 600 0
DWIDTH 12 0
BBX 12 15 0 0
BITMAP
E070
70E0
70E0
39C0
19C0
1F80
0F80
7FE0
7FE0
0600
7FE0
7FE0
0600
0600
0600
ENDCHAR
STARTCHAR brokenbar
ENCODING 166
SWIDTH 600 0
DWIDTH 12 0
BBX 2 18 5 -3
BITMAP
C0
C0
C0
C0
C0
C0
C0
C0
00
00
C0
C0
C0
C0
C0
C0
C0
C0
ENDCHAR
STARTCHAR section
ENCODING 167
SWIDTH 600 0
DWIDTH 12 0
BBX 10 19 1 -4
BITMAP
3F00
7F80
F3C0
E1C0
E000
F800
7F00
7FC0
E3C0
E0C0
F0C0
7FC0
3F80
07C0
01C0
E1C0
F1C0
7F80
3F00
ENDCHAR
STARTCHAR dieresis
ENCODING 168
SWIDTH 600 0
DWIDTH 12 0
BBX 7 2 3 13
BITMAP
CE
CE
ENDCHAR
STARTCHAR copyright
ENCODING 169
SWIDTH 600 0
DWIDTH 12 0
BBX 10 11 1 0
BITMAP
1E00
6180
5E80
9240
B040
B040
B040
9240
5E80
6180
1E00
ENDCHAR
STARTCHAR ordfeminine
ENCODING 170
SWIDTH 600 0
DWIDTH 12 0
BBX 6 8 3 7
BITMAP
78
CC
CC
0C
7C
CC
8C
FC
ENDCHAR
STARTCHAR guillemotleft
ENCODING 171
SWIDTH 600 0
DWIDTH 12 0
BBX 8 8 2 1
BITMAP
33
26
66
CC
CC
66
26
33
ENDCHAR
STARTCHAR logicalnot
ENCODING 172
SWIDTH 600 0
DWIDTH 12 0
BBX 8 4 2 4
BITMAP
FF
FF
03
03
ENDCHAR
STARTCHAR uni00AD
ENCODING 173
SWIDTH 600 0
DWIDTH 12 0
BBX 8 2 3 5
BITMAP
FF
FF
ENDCHAR
STARTCHAR registered
ENCODING 174
SWIDTH 600 0
DWIDTH 12 0
BBX 10 11 1 0
BITMAP
1E00
6180
5E80
9240
9240
9C40
9440
9240
4080
6180
1E00
ENDCHAR
STARTCHAR macron
ENCODING 175
SWIDTH 600 0
DWIDTH 12 0
BBX 7 2 3 13
BITMAP
FE
FE
ENDCHAR
STARTCHAR degree
ENCODING 176
SWIDTH 600 0
DWIDTH 12 0
BBX 6 5 3 10
BITMAP
38
48
CC
4C
78
ENDCHAR
STARTCHAR plusminus
ENCODING 177
SWIDTH 600 0
DWIDTH 12 0
BBX 9 13 1 0
BITMAP
0C00
0C00
0C00
0C00
FF80
FF80
0C00
0C00
0C00
0C00
0000
7F80
7F80
ENDCHAR
STARTCHAR twosuperior
ENCODING 178
SWIDTH 600 0
DWIDTH 12 0
BBX 6 8 3 7
BITMAP
78
FC
CC
0C
38
60
FC
FC
ENDCHAR
STARTCHAR threesuperior
ENCODING 179
SWIDTH 600 0
DWIDTH 12 0
BBX 6 9 3 6
BITMAP
78
FC
CC
0C
38
0C
CC
FC
78
ENDCHAR
STARTCHAR acute
ENCODING 180
SWIDTH 600 0
DWIDTH 12 0
BBX 5 2 4 13
BITMAP
78
E0
ENDCHAR
STARTCHAR mu
ENCODING 181
SWIDTH 600 0
DWIDTH 12 0
BBX 9 15 2 -4
BITMAP
C380
C380
C380
C380
C380
C380
C380
E380
E780
FF80
FF80
C000
C000
C000
C000
ENDCHAR
STARTCHAR paragraph
ENCODING 182
SWIDTH 600 0
DWIDTH 12 0
BBX 8 15 2 0
BITMAP
3F
7F
7F
FF
FF
FF
7F
7F
3F
03
03
03
03
03
03
ENDCHAR
STARTCHAR periodcentered
ENCODING 183
SWIDTH 600 0
DWIDTH 12 0
BBX 3 3 5 6
BITMAP
E0
E0
E0
ENDCHAR
STARTCHAR cedilla
ENCODING 184
SWIDTH 600 0
DWIDTH 12 0
BBX 4 4 4 -4
BITMAP
E0
30
70
60
ENDCHAR
STARTCHAR onesuperior
ENCODING 185
SWIDTH 600 0
DWIDTH 12 0
BBX 4 8 4 7
BITMAP
30
F0
F0
30
30
30
30
30
ENDCHAR
STARTCHAR ordmasculine
ENCODING 186
SWIDTH 600 0
DWIDTH 12 0
BBX 6 7 3 8
BITMAP
78
CC
84
84
84
CC
78
ENDCHAR
STARTCHAR guillemotright
ENCODING 187
SWIDTH 600 0
DWIDTH 12 0
BBX 8 8 2 1
BITMAP
CC
66
36
3B
33
36
66
CC
ENDCHAR
STARTCHAR onequarter
ENCODING 188
SWIDTH 600 0
DWIDTH 12 0
BBX 10 14 1 0
BITMAP
2000
E000
A100
2300
2600
2600
2C00
0980
1B80
1280
3680
27C0
0FC0
0080
ENDCHAR
STARTCHAR onehalf
ENCODING 189
SWIDTH 600 0
DWIDTH 12 0
BBX 10 14 1 0
BITMAP
2000
E000
E200
6600
6400
6C00
6800
1BC0
16C0
30C0
61C0
2300
07C0
07C0
ENDCHAR
STARTCHAR threequarters
ENCODING 190
SWIDTH 600 0
DWIDTH 12 0
BBX 11 14 1 0
BITMAP
F000
D800
1980
7100
1B00
DA00
F600
04C0
0DC0
0BC0
1AC0
17E0
07E0
00C0
ENDCHAR
STARTCHAR questiondown
ENCODING 191
SWIDTH 600 0
DWIDTH 12 0
BBX 9 15 2 -4
BITMAP
1C00
1C00
0000
0000
1C00
1C00
3800
7800
7000
E000
E000
E380
E700
7F00
3E00
ENDCHAR
STARTCHAR Agrave
ENCODING 192
SWIDTH 600 0
DWIDTH 12 0
BBX 12 18 0 0
BITMAP
1C00
0E00
0000
0700
0F00
0F00
0F00
0F80
1D80
1D80
19C0
39C0
38C0
3FE0
7FE0
70E0
7070
E070
ENDCHAR
STARTCHAR Aacute
ENCODING 193
SWIDTH 600 0
DWIDTH 12 0
BBX 12 18 0 0
BITMAP
03C0
0700
0000
0700
0F00
0F00
0F00
0F80
1D80
1D80
19C0
39C0
38C0
3FE0
7FE0
70E0
7070
E070
ENDCHAR
STARTCHAR Acircumflex
ENCODING 194
SWIDTH 600 0
DWIDTH 12 0
BBX 12 18 0 0
BITMAP
0700
1F80
0040
0700
0F00
0F00
0F00
0F80
1D80
1D80
19C0
39C0
38C0
3FE0
7FE0
70E0
7070
E070
ENDCHAR
STARTCHAR Atilde
ENCODING 195
SWIDTH 600 0
DWIDTH 12 0
BBX 12 18 0 0
BITMAP
1FC0
1F80
0000
0700
0F00
0F00
0F00
0F80
1D80
1D80
19C0
39C0
38C0
3FE0
7FE0
70E0
7070
E070
ENDCHAR
STARTCHAR Adieresis
ENCODING 196
SWIDTH 600 0
DWIDTH 12 0
BBX 12 18 0 0
BITMAP
19C0
39C0
0000
0700
0F00
0F00
0F00
0F80
1D80
1D80
19C0
39C0
38C0
3FE0
7FE0
70E0
7070
E070
ENDCHAR
STARTCHAR Aring
ENCODING 197
SWIDTH 600 0
DWIDTH 12 0
BBX 12 20 0 0
BITMAP
0600
0900
0900
0900
0600
0700
0F00
0F00
0F00
0F80
1D80
1D80
19C0
39C0
38C0
3FE0
7FE0
70E0
7070
E070
ENDCHAR
STARTCHAR AE
ENCODING 198
SWIDTH 600 0
DWIDTH 12 0
BBX 12 15 0 0
BITMAP
07E0
07E0
0F80
0F80
0F80
1F80
1B80
1BE0
3BE0
3F80
3F80
3380
7380
73F0
E3F0
ENDCHAR
STARTCHAR Ccedilla
ENCODING 199
SWIDTH 600 0
DWIDTH 12 0
BBX 10 19 1 -4
BITMAP
1F00
7F80
73C0
E1C0
E1C0
E000
E000
E000
E000
E000
E1C0
E1C0
73C0
7F80
1E00
0C00
0600
0E00
0E00
ENDCHAR
STARTCHAR Egrave
ENCODING 200
SWIDTH 600 0
DWIDTH 12 0
BBX 10 18 1 0
BITMAP
3800
1C00
0000
FFC0
FFC0
E000
E000
E000
E000
E000
FF80
FF80
E000
E000
E000
E000
FFC0
FFC0
ENDCHAR
STARTCHAR Eacute
ENCODING 201
SWIDTH 600 0
DWIDTH 12 0
BBX 10 18 1 0
BITMAP
0380
0600
0800
FFC0
FFC0
E000
E000
E000
E000
E000
FF80
FF80
E000
E000
E000
E000
FFC0
FFC0
ENDCHAR
STARTCHAR Ecircumflex
ENCODING 202
SWIDTH 600 0
DWIDTH 12 0
BBX 10 18 1 0
BITMAP
0E00
1F00
2080
FFC0
FFC0
E000
E000
E000
E000
E000
FF80
FF80
E000
E000
E000
E000
FFC0
FFC0
ENDCHAR
STARTCHAR Edieresis
ENCODING 203
SWIDTH 600 0
DWIDTH 12 0
BBX 10 18 1 0
BITMAP
3380
3380
0000
FFC0
FFC0
E000
E000
E000
E000
E000
FF80
FF80
E000
E000
E000
E000
FFC0
FFC0
ENDCHAR
STARTCHAR Igrave
ENCODING 204
SWIDTH 600 0
DWIDTH 12 0
BBX 8 18 2 0
BITMAP
F0
38
00
FF
FF
18
18
18
18
18
18
18
18
18
18
18
FF
FF
ENDCHAR
STARTCHAR Iacute
ENCODING 205
SWIDTH 600 0
DWIDTH 12 0
BBX 8 18 2 0
BITMAP
0F
1C
00
FF
FF
18
18
18
18
18
18
18
18
18
18
18
FF
FF
ENDCHAR
STARTCHAR Icircumflex
ENCODING 206
SWIDTH 600 0
DWIDTH 12 0
BBX 8 18 2 0
BITMAP
38
7E
81
FF
FF
18
18
18
18
18
18
18
18
18
18
18
FF
FF
ENDCHAR
STARTCHAR Idieresis
ENCODING 207
SWIDTH 600 0
DWIDTH 12 0
BBX 8 18 2 0
BITMAP
E6
E6
00
FF
FF
18
18
18
18
18
18
18
18
18
18
18
FF
FF
ENDCHAR
STARTCHAR Eth
ENCODING 208
SWIDTH 614 0
DWIDTH 12 0
BBX 11 15 0 0
BITMAP
3F00
3F80
31C0
30E0
30E0
3060
3060
FE60
FE60
3060
30E0
30E0
31C0
3F80
3F00
ENDCHAR
STARTCHAR Ntilde
ENCODING 209
SWIDTH 600 0
DWIDTH 12 0
BBX 10 18 1 0
BITMAP
3F80
7F00
0000
E1C0
F1C0
F1C0
F1C0
F9C0
F9C0
FDC0
EDC0
EDC0
E7C0
E7C0
E7C0
E3C0
E3C0
E1C0
ENDCHAR
STARTCHAR Ograve
ENCODING 210
SWIDTH 600 0
DWIDTH 12 0
BBX 10 19 1 0
BITMAP
7800
1C00
0000
0000
1E00
7F80
7380
E1C0
E1C0
E1C0
E1C0
E1C0
E1C0
E1C0
E1C0
E1C0
7380
7F80
1E00
ENDCHAR
STARTCHAR Oacute
ENCODING 211
SWIDTH 600 0
DWIDTH 12 0
BBX 10 19 1 0
BITMAP
0780
0E00
0000
0000
1E00
7F80
7380
E1C0
E1C0
E1C0
E1C0
E1C0
E1C0
E1C0
E1C0
E1C0
7380
7F80
1E00
ENDCHAR
STARTCHAR Ocircumflex
ENCODING 212
SWIDTH 600 0
DWIDTH 12 0
BBX 10 19 1 0
BITMAP
0C00
3F00
4080
0000
1E00
7F80
7380
E1C0
E1C0
E1C0
E1C0
E1C0
E1C0
E1C0
E1C0
E1C0
7380
7F80
1E00
ENDCHAR
STARTCHAR Otilde
ENCODING 213
SWIDTH 600 0
DWIDTH 12 0
BBX 10 19 1 0
BITMAP
3F80
3F00
4000
0000
1E00
7F80
7380
E1C0
E1C0
E1C0
E1C0
E1C0
E1C0
E1C0
E1C0
E1C0
7380
7F80
1E00
ENDCHAR
STARTCHAR Odieresis
ENCODING 214
SWIDTH 600 0
DWIDTH 12 0
BBX 10 19 1 0
BITMAP
7300
7380
0000
0000
1E00
7F80
7380
E1C0
E1C0
E1C0
E1C0
E1C0
E1C0
E1C0
E1C0
E1C0
7380
7F80
1E00
ENDCHAR
STARTCHAR multiply
ENCODING 215
SWIDTH 600 0
DWIDTH 12 0
BBX 9 9 2 2
BITMAP
C300
E780
7F00
3E00
3C00
7E00
F700
E380
4100
ENDCHAR
STARTCHAR Oslash
ENCODING 216
SWIDTH 600 0
DWIDTH 12 0
BBX 11 15 0 0
BITMAP
0F60
3FC0
39C0
71E0
71E0
73E0
76E0
76E0
7CE0
7CE0
78E0
78E0
39C0
3FC0
EF00
ENDCHAR
STARTCHAR Ugrave
ENCODING 217
SWIDTH 600 0
DWIDTH 12 0
BBX 10 18 1 0
BITMAP
7800
1C00
0000
E1C0
E1C0
E1C0
E1C0
E1C0
E1C0
E1C0
E1C0
E1C0
E1C0
E1C0
E1C0
7380
7F80
1E00
ENDCHAR
STARTCHAR Uacute
ENCODING 218
SWIDTH 600 0
DWIDTH 12 0
BBX 10 18 1 0
BITMAP
0780
0E00
0000
E1C0
E1C0
E1C0
E1C0
E1C0
E1C0
E1C0
E1C0
E1C0
E1C0
E1C0
E1C0
7380
7F80
1E00
ENDCHAR
STARTCHAR Ucircumflex
ENCODING 219
SWIDTH 600 0
DWIDTH 12 0
BBX 10 18 1 0
BITMAP
0E00
3F00
4080
E1C0
E1C0
E1C0
E1C0
E1C0
E1C0
E1C0
E1C0
E1C0
E1C0
E1C0
E1C0
7380
7F80
1E00
ENDCHAR
STARTCHAR Udieresis
ENCODING 220
SWIDTH 600 0
DWIDTH 12 0
BBX 10 18 1 0
BITMAP
3380
7380
0000
E1C0
E1C0
E1C0
E1C0
E1C0
E1C0
E1C0
E1C0
E1C0
E1C0
E1C0
E1C0
7380
7F80
1E00
ENDCHAR
STARTCHAR Yacute
ENCODING 221
SWIDTH 600 0
DWIDTH 12 0
BBX 12 18 0 0
BITMAP
03C0
0700
0000
F070
70E0
70E0
39C0
39C0
1D80
1F80
0F80
0F00
0700
0600
0600
0600
0600
0600
ENDCHAR
STARTCHAR Thorn
ENCODING 222
SWIDTH 600 0
DWIDTH 12 0
BBX 10 15 1 0
BITMAP
E000
E000
E000
FF00
FF80
E1C0
E0C0
E0C0
E0C0
E1C0
FFC0
FF00
E000
E000
E000
ENDCHAR
STARTCHAR germandbls
ENCODING 223
SWIDTH 600 0
DWIDTH 12 0
BBX 10 15 2 0
BITMAP
3C00
7E00
E700
C700
C700
C600
CE00
CE00
C700
C780
C380
C1C0
D380
DF80
DF00
ENDCHAR
STARTCHAR agrave
ENCODING 224
SWIDTH 600 0
DWIDTH 12 0
BBX 10 15 1 0
BITMAP
7800
1C00
0000
0000
3E00
7F80
E380
0180
3F80
7F80
F180
E180
E380
7F80
3DC0
ENDCHAR
STARTCHAR aacute
ENCODING 225
SWIDTH 600 0
DWIDTH 12 0
BBX 10 15 1 0
BITMAP
0780
0E00
0000
0000
3E00
7F80
E380
0180
3F80
7F80
F180
E180
E380
7F80
3DC0
ENDCHAR
STARTCHAR acircumflex
ENCODING 226
SWIDTH 600 0
DWIDTH 12 0
BBX 10 15 1 0
BITMAP
1C00
3F00
4000
0000
3E00
7F80
E380
0180
3F80
7F80
F180
E180
E380
7F80
3DC0
ENDCHAR
STARTCHAR atilde
ENCODING 227
SWIDTH 600 0
DWIDTH 12 0
BBX 10 15 1 0
BITMAP
3F00
7F00
0000
0000
3E00
7F80
E380
0180
3F80
7F80
F180
E180
E380
7F80
3DC0
ENDCHAR
STARTCHAR adieresis
ENCODING 228
SWIDTH 600 0
DWIDTH 12 0
BBX 10 15 1 0
BITMAP
7300
7300
0000
0000
3E00
7F80
E380
0180
3F80
7F80
F180
E180
E380
7F80
3DC0
ENDCHAR
STARTCHAR aring
ENCODING 229
SWIDTH 600 0
DWIDTH 12 0
BBX 10 17 1 0
BITMAP
0C00
1200
1200
1200
0C00
0000
3E00
7F80
E380
0180
3F80
7F80
F180
E180
E380
7F80
3DC0
ENDCHAR
STARTCHAR ae
ENCODING 230
SWIDTH 600 0
DWIDTH 12 0
BBX 12 11 0 0
BITMAP
3DC0
7FE0
6760
0670
3FF0
7FF0
7600
E600
6720
7FE0
39E0
ENDCHAR
STARTCHAR ccedilla
ENCODING 231
SWIDTH 600 0
DWIDTH 12 0
BBX 10 15 1 -4
BITMAP
1E00
7F80
7380
E1C0
E000
E000
E000
E1C0
7380
7F80
1E00
0C00
0600
0E00
0E00
ENDCHAR
STARTCHAR egrave
ENCODING 232
SWIDTH 600 0
DWIDTH 12 0
BBX 10 15 1 0
BITMAP
7800
1C00
0000
0000
1F00
3F80
7380
E1C0
FFC0
FFC0
E000
E000
7180
3FC0
1F00
ENDCHAR
STARTCHAR eacute
ENCODING 233
SWIDTH 600 0
DWIDTH 12 0
BBX 10 15 1 0
BITMAP
0780
0E00
0000
0000
1F00
3F80
7380
E1C0
FFC0
FFC0
E000
E000
7180
3FC0
1F00
ENDCHAR
STARTCHAR ecircumflex
ENCODING 234
SWIDTH 600 0
DWIDTH 12 0
BBX 10 15 1 0
BITMAP
1C00
3F00
4080
0000
1F00
3F80
7380
E1C0
FFC0
FFC0
E000
E000
7180
3FC0
1F00
ENDCHAR
STARTCHAR edieresis
ENCODING 235
SWIDTH 600 0
DWIDTH 12 0
BBX 10 15 1 0
BITMAP
7300
7380
0000
0000
1F00
3F80
7380
E1C0
FFC0
FFC0
E000
E000
7180
3FC0
1F00
ENDCHAR
STARTCHAR igrave
ENCODING 236
SWIDTH 600 0
DWIDTH 12 0
BBX 9 15 2 0
BITMAP
7000
1800
0400
0000
FC00
FC00
1C00
1C00
1C00
1C00
1C00
1C00
1C00
FF80
FF80
ENDCHAR
STARTCHAR iacute
ENCODING 237
SWIDTH 600 0
DWIDTH 12 0
BBX 9 15 2 0
BITMAP
0700
0C00
1000
0000
FC00
FC00
1C00
1C00
1C00
1C00
1C00
1C00
1C00
FF80
FF80
ENDCHAR
STARTCHAR icircumflex
ENCODING 238
SWIDTH 600 0
DWIDTH 12 0
BBX 9 15 2 0
BITMAP
1C00
3600
4100
0000
FC00
FC00
1C00
1C00
1C00
1C00
1C00
1C00
1C00
FF80
FF80
ENDCHAR
STARTCHAR idieresis
ENCODING 239
SWIDTH 600 0
DWIDTH 12 0
BBX 9 15 2 0
BITMAP
6300
6700
0000
0000
FC00
FC00
1C00
1C00
1C00
1C00
1C00
1C00
1C00
FF80
FF80
ENDCHAR
STARTCHAR eth
ENCODING 240
SWIDTH 600 0
DWIDTH 12 0
BBX 11 15 0 0
BITMAP
0640
0FE0
0780
1DC0
09C0
1EC0
3FE0
71E0
60E0
E0E0
E0E0
60C0
71C0
3F80
1F00
ENDCHAR
STARTCHAR ntilde
ENCODING 241
SWIDTH 600 0
DWIDTH 12 0
BBX 10 15 1 0
BITMAP
3F00
7F00
0000
0000
EF00
FF80
F3C0
E1C0
E1C0
E1C0
E1C0
E1C0
E1C0
E1C0
E1C0
ENDCHAR
STARTCHAR ograve
ENCODING 242
SWIDTH 600 0
DWIDTH 12 0
BBX 10 15 1 0
BITMAP
7800
1C00
0000
0000
1E00
7F80
7380
E1C0
E1C0
E1C0
E1C0
E1C0
7380
7F80
1E00
ENDCHAR
STARTCHAR oacute
ENCODING 243
SWIDTH 600 0
DWIDTH 12 0
BBX 10 15 1 0
BITMAP
0780
0E00
0000
0000
1E00
7F80
7380
E1C0
E1C0
E1C0
E1C0
E1C0
7380
7F80
1E00
ENDCHAR
STARTCHAR ocircumflex
ENCODING 244
SWIDTH 600 0
DWIDTH 12 0
BBX 10 15 1 0
BITMAP
0E00
3F00
4080
0000
1E00
7F80
7380
E1C0
E1C0
E1C0
E1C0
E1C0
7380
7F80
1E00
ENDCHAR
STARTCHAR otilde
ENCODING 245
SWIDTH 600 0
DWIDTH 12 0
BBX 10 15 1 0
BITMAP
3F80
3F00
4000
0000
1E00
7F80
7380
E1C0
E1C0
E1C0
E1C0
E1C0
7380
7F80
1E00
ENDCHAR
STARTCHAR odieresis
ENCODING 246
SWIDTH 600 0
DWIDTH 12 0
BBX 10 15 1 0
BITMAP
3300
7380
0000
0000
1E00
7F80
7380
E1C0
E1C0
E1C0
E1C0
E1C0
7380
7F80
1E00
ENDCHAR
STARTCHAR divide
ENCODING 247
SWIDTH 600 0
DWIDTH 12 0
BBX 10 11 1 1
BITMAP
0C00
0E00
0000
0000
0000
FFC0
FFC0
0000
0000
0E00
0C00
ENDCHAR
STARTCHAR oslash
ENCODING 248
SWIDTH 600 0
DWIDTH 12 0
BBX 10 14 1 -1
BITMAP
0080
0180
1F00
7F80
7380
E7C0
E5C0
EDC0
E9C0
F9C0
7380
7F80
3E00
6000
ENDCHAR
STARTCHAR ugrave
ENCODING 249
SWIDTH 600 0
DWIDTH 12 0
BBX 10 15 1 0
BITMAP
7800
1C00
0000
0000
E1C0
E1C0
E1C0
E1C0
E1C0
E1C0
E1C0
61C0
73C0
7FC0
3DC0
ENDCHAR
STARTCHAR uacute
ENCODING 250
SWIDTH 600 0
DWIDTH 12 0
BBX 10 15 1 0
BITMAP
0780
0E00
0000
0000
E1C0
E1C0
E1C0
E1C0
E1C0
E1C0
E1C0
61C0
73C0
7FC0
3DC0
ENDCHAR
STARTCHAR ucircumflex
ENCODING 251
SWIDTH 600 0
DWIDTH 12 0
BBX 10 15 1 0
BITMAP
0E00
3F00
4080
0000
E1C0
E1C0
E1C0
E1C0
E1C0
E1C0
E1C0
61C0
73C0
7FC0
3DC0
ENDCHAR
STARTCHAR udieresis
ENCODING 252
SWIDTH 600 0
DWIDTH 12 0
BBX 10 15 1 0
BITMAP
3300
7380
0000
0000
E1C0
E1C0
E1C0
E1C0
E1C0
E1C0
E1C0
61C0
73C0
7FC0
3DC0
ENDCHAR
STARTCHAR yacute
ENCODING 253
SWIDTH 600 0
DWIDTH 12 0
BBX 11 19 1 -4
BITMAP
0380
0600
0800
0000
E0E0
E1C0
61C0
7180
7380
3B80
3B00
1F00
1E00
0E00
0C00
1C00
3C00
7800
7000
ENDCHAR
STARTCHAR thorn
ENCODING 254
SWIDTH 600 0
DWIDTH 12 0
BBX 10 19 1 -4
BITMAP
E000
E000
E000
E000
EF00
FF80
F380
E1C0
E1C0
E1C0
E1C0
E1C0
F380
FF80
EF00
E000
E000
E000
E000
ENDCHAR
STARTCHAR ydieresis
ENCODING 255
SWIDTH 600 0
DWIDTH 12 0
BBX 11 19 1 -4
BITMAP
3380
3380
0000
0000
E0E0
E1C0
61C0
7180
7380
3B80
3B00
1F00
1E00
0E00
0C00
1C00
3C00
7800
7000
ENDCHAR
STARTCHAR Amacron
ENCODING 256
SWIDTH 600 0
DWIDTH 12 0
BBX 12 18 0 0
BITMAP
1FC0
1FC0
0000
0700
0F00
0F00
0F00
0F80
1D80
1D80
19C0
39C0
38C0
3FE0
7FE0
70E0
7070
E070
ENDCHAR
STARTCHAR amacron
ENCODING 257
SWIDTH 600 0
DWIDTH 12 0
BBX 10 15 1 0
BITMAP
7F00
7F00
0000
0000
3E00
7F80
E380
0180
3F80
7F80
F180
E180
E380
7F80
3DC0
ENDCHAR
STARTCHAR Abreve
ENCODING 258
SWIDTH 600 0
DWIDTH 12 0
BBX 12 19 0 0
BITMAP
19C0
1F80
0F00
0000
0700
0F00
0F00
0F00
0F80
1D80
1D80
19C0
39C0
38C0
3FE0
7FE0
70E0
7070
E070
ENDCHAR
STARTCHAR abreve
ENCODING 259
SWIDTH 600 0
DWIDTH 12 0
BBX 10 16 1 0
BITMAP
7300
3F00
1E00
0000
0000
3E00
7F80
E380
0180
3F80
7F80
F180
E180
E380
7F80
3DC0
ENDCHAR
STARTCHAR Aogonek
ENCODING 260
SWIDTH 600 0
DWIDTH 12 0
BBX 12 19 0 -4
BITMAP
0700
0F00
0F00
0F00
0F80
1D80
1D80
19C0
39C0
38C0
3FE0
7FE0
70E0
7070
E070
00C0
00C0
00E0
00F0
ENDCHAR
STARTCHAR aogonek
ENCODING 261
SWIDTH 600 0
DWIDTH 12 0
BBX 10 15 1 -4
BITMAP
3E00
7F80
E380
0180
3F80
7F80
F180
E180
E380
7F80
3DC0
0300
0300
0380
03C0
ENDCHAR
STARTCHAR Cacute
ENCODING 262
SWIDTH 600 0
DWIDTH 12 0
BBX 10 18 1 0
BITMAP
0380
0700
0000
1F00
7F80
73C0
E1C0
E1C0
E000
E000
E000
E000
E000
E1C0
E1C0
73C0
7F80
1E00
ENDCHAR
STARTCHAR cacute
ENCODING 263
SWIDTH 600 0
DWIDTH 12 0
BBX 10 15 1 0
BITMAP
0780
0E00
0000
0000
1E00
7F80
7380
E1C0
E000
E000
E000
E1C0
7380
7F80
1E00
ENDCHAR
STARTCHAR Ccircumflex
ENCODING 264
SWIDTH 600 0
DWIDTH 12 0
BBX 10 18 1 0
BITMAP
0E00
1B00
2080
1F00
7F80
73C0
E1C0
E1C0
E000
E000
E000
E000
E000
E1C0
E1C0
73C0
7F80
1E00
ENDCHAR
STARTCHAR ccircumflex
ENCODING 265
SWIDTH 600 0
DWIDTH 12 0
BBX 10 15 1 0
BITMAP
0E00
3F00
0080
0000
1E00
7F80
7380
E1C0
E000
E000
E000
E1C0
7380
7F80
1E00
ENDCHAR
STARTCHAR uni010A
ENCODING 266
SWIDTH 600 0
DWIDTH 12 0
BBX 10 19 1 0
BITMAP
0E00
0E00
0000
0000
1F00
7F80
73C0
E1C0
E1C0
E000
E000
E000
E000
E000
E1C0
E1C0
73C0
7F80
1E00
ENDCHAR
STARTCHAR uni010B
ENCODING 267
SWIDTH 600 0
DWIDTH 12 0
BBX 10 15 1 0
BITMAP
0C00
0E00
0000
0000
1E00
7F80
7380
E1C0
E000
E000
E000
E1C0
7380
7F80
1E00
ENDCHAR
STARTCHAR Ccaron
ENCODING 268
SWIDTH 600 0
DWIDTH 12 0
BBX 10 18 1 0
BITMAP
3980
0F00
0000
1F00
7F80
73C0
E1C0
E1C0
E000
E000
E000
E000
E000
E1C0
E1C0
73C0
7F80
1E00
ENDCHAR
STARTCHAR ccaron
ENCODING 269
SWIDTH 600 0
DWIDTH 12 0
BBX 10 15 1 0
BITMAP
7380
1E00
0000
0000
1E00
7F80
7380
E1C0
E000
E000
E000
E1C0
7380
7F80
1E00
ENDCHAR
STARTCHAR Dcaron
ENCODING 270
SWIDTH 600 0
DWIDTH 12 0
BBX 10 18 1 0
BITMAP
6700
3C00
0000
FC00
FF00
E780
E380
E1C0
E1C0
E1C0
E1C0
E1C0
E1C0
E1C0
E380
E780
FF00
FC00
ENDCHAR
STARTCHAR dcaron
ENCODING 271
SWIDTH 673 0
DWIDTH 13 0
BBX 14 15 1 0
BITMAP
01CC
01CC
01CC
01CC
3DD8
7FC8
73C0
E1C0
E1C0
E1C0
E1C0
E1C0
73C0
7FC0
3DC0
ENDCHAR
STARTCHAR Dcroat
ENCODING 272
SWIDTH 614 0
DWIDTH 12 0
BBX 11 15 0 0
BITMAP
3F00
3F80
31C0
30E0
30E0
3060
3060
FE60
FE60
3060
30E0
30E0
31C0
3F80
3F00
ENDCHAR
STARTCHAR dcroat
ENCODING 273
SWIDTH 614 0
DWIDTH 12 0
BBX 11 15 1 0
BITMAP
01C0
0FE0
0FE0
01C0
3DC0
7FC0
73C0
E1C0
E1C0
E1C0
E1C0
E1C0
73C0
7FC0
3DC0
ENDCHAR
STARTCHAR Emacron
ENCODING 274
SWIDTH 600 0
DWIDTH 12 0
BBX 10 18 1 0
BITMAP
3F80
3F80
0000
FFC0
FFC0
E000
E000
E000
E000
E000
FF80
FF80
E000
E000
E000
E000
FFC0
FFC0
ENDCHAR
STARTCHAR emacron
ENCODING 275
SWIDTH 600 0
DWIDTH 12 0
BBX 10 15 1 0
BITMAP
7F00
7F00
0000
0000
1F00
3F80
7380
E1C0
FFC0
FFC0
E000
E000
7180
3FC0
1F00
ENDCHAR
STARTCHAR Ebreve
ENCODING 276
SWIDTH 600 0
DWIDTH 12 0
BBX 10 19 1 0
BITMAP
3180
3F00
1E00
0000
FFC0
FFC0
E000
E000
E000
E000
E000
FF80
FF80
E000
E000
E000
E000
FFC0
FFC0
ENDCHAR
STARTCHAR ebreve
ENCODING 277
SWIDTH 600 0
DWIDTH 12 0
BBX 10 16 1 0
BITMAP
3300
3F00
1E00
0000
0000
1F00
3F80
7380
E1C0
FFC0
FFC0
E000
E000
7180
3FC0
1F00
ENDCHAR
STARTCHAR Edotaccent
ENCODING 278
SWIDTH 600 0
DWIDTH 12 0
BBX 10 18 1 0
BITMAP
0E00
0E00
0000
FFC0
FFC0
E000
E000
E000
E000
E000
FF80
FF80
E000
E000
E000
E000
FFC0
FFC0
ENDCHAR
STARTCHAR edotaccent
ENCODING 279
SWIDTH 600 0
DWIDTH 12 0
BBX 10 15 1 0
BITMAP
0C00
1C00
0000
0000
1F00
3F80
7380
E1C0
FFC0
FFC0
E000
E000
7180
3FC0
1F00
ENDCHAR
STARTCHAR Eogonek
ENCODING 280
SWIDTH 600 0
DWIDTH 12 0
BBX 10 19 1 -4
BITMAP
FFC0
FFC0
E000
E000
E000
E000
FF80
FF80
E000
E000
E000
E000
E000
FFC0
FFC0
0300
0600
0780
0380
ENDCHAR
STARTCHAR eogonek
ENCODING 281
SWIDTH 600 0
DWIDTH 12 0
BBX 10 15 1 -4
BITMAP
1E00
3F80
7380
E1C0
E1C0
FFC0
FFC0
E000
7180
3FC0
1F00
0400
0C00
0F00
0700
ENDCHAR
STARTCHAR Ecaron
ENCODING 282
SWIDTH 600 0
DWIDTH 12 0
BBX 10 18 1 0
BITMAP
3380
1E00
0000
FFC0
FFC0
E000
E000
E000
E000
E000
FF80
FF80
E000
E000
E000
E000
FFC0
FFC0
ENDCHAR
STARTCHAR ecaron
ENCODING 283
SWIDTH 600 0
DWIDTH 12 0
BBX 10 15 1 0
BITMAP
7380
1E00
0000
0000
1F00
3F80
7380
E1C0
FFC0
FFC0
E000
E000
7180
3FC0
1F00
ENDCHAR
STARTCHAR Gcircumflex
ENCODING 284
SWIDTH 600 0
DWIDTH 12 0
BBX 10 18 1 0
BITMAP
0E00
1B00
2080
1F00
3F80
73C0
E1C0
E000
E000
E000
E7C0
E7C0
E1C0
E1C0
E1C0
71C0
7FC0
1F00
ENDCHAR
STARTCHAR gcircumflex
ENCODING 285
SWIDTH 600 0
DWIDTH 12 0
BBX 10 19 1 -4
BITMAP
1C00
3F00
4080
0000
3DC0
7FC0
73C0
E1C0
E1C0
E1C0
E1C0
E1C0
73C0
7FC0
3DC0
01C0
6380
7F80
3E00
ENDCHAR
STARTCHAR Gbreve
ENCODING 286
SWIDTH 600 0
DWIDTH 12 0
BBX 10 19 1 0
BITMAP
3180
3F00
1E00
0000
1F00
3F80
73C0
E1C0
E000
E000
E000
E7C0
E7C0
E1C0
E1C0
E1C0
71C0
7FC0
1F00
ENDCHAR
STARTCHAR gbreve
ENCODING 287
SWIDTH 600 0
DWIDTH 12 0
BBX 10 20 1 -4
BITMAP
3300
3F00
1E00
0000
0000
3DC0
7FC0
73C0
E1C0
E1C0
E1C0
E1C0
E1C0
73C0
7FC0
3DC0
01C0
6380
7F80
3E00
ENDCHAR
STARTCHAR uni0120
ENCODING 288
SWIDTH 600 0
DWIDTH 12 0
BBX 10 19 1 0
BITMAP
0E00
0E00
0000
0000
1F00
3F80
73C0
E1C0
E000
E000
E000
E7C0
E7C0
E1C0
E1C0
E1C0
71C0
7FC0
1F00
ENDCHAR
STARTCHAR uni0121
ENCODING 289
SWIDTH 600 0
DWIDTH 12 0
BBX 10 19 1 -4
BITMAP
0C00
1C00
0000
0000
3DC0
7FC0
73C0
E1C0
E1C0
E1C0
E1C0
E1C0
73C0
7FC0
3DC0
01C0
6380
7F80
3E00
ENDCHAR
STARTCHAR Gcommaaccent
ENCODING 290
SWIDTH 600 0
DWIDTH 12 0
BBX 10 20 1 -5
BITMAP
1F00
3F80
73C0
E1C0
E000
E000
E000
E7C0
E7C0
E1C0
E1C0
E1C0
71C0
7FC0
1F00
0000
0400
0C00
0C00
0800
ENDCHAR
STARTCHAR gcommaaccent
ENCODING 291
SWIDTH 600 0
DWIDTH 12 0
BBX 10 22 1 -4
BITMAP
0400
0E00
0C00
0C00
0C00
0000
0000
3DC0
7FC0
73C0
E1C0
E1C0
E1C0
E1C0
E1C0
73C0
7FC0
3DC0
01C0
6380
7F80
3E00
ENDCHAR
STARTCHAR Hcircumflex
ENCODING 292
SWIDTH 600 0
DWIDTH 12 0
BBX 10 18 1 0
BITMAP
1C00
3F00
4080
E1C0
E1C0
E1C0
E1C0
E1C0
E1C0
E1C0
FFC0
FFC0
E1C0
E1C0
E1C0
E1C0
E1C0
E1C0
ENDCHAR
STARTCHAR hcircumflex
ENCODING 293
SWIDTH 600 0
DWIDTH 12 0
BBX 10 19 1 0
BITMAP
1C00
3600
4100
0000
E000
E000
E000
E000
EF00
FF80
F3C0
E1C0
E1C0
E1C0
E1C0
E1C0
E1C0
E1C0
E1C0
ENDCHAR
STARTCHAR Hbar
ENCODING 294
SWIDTH 600 0
DWIDTH 12 0
BBX 12 15 0 0
BITMAP
61C0
61C0
61C0
FFF0
FFF0
61C0
61C0
7FC0
7FC0
61C0
61C0
61C0
61C0
61C0
61C0
ENDCHAR
STARTCHAR hbar
ENCODING 295
SWIDTH 614 0
DWIDTH 12 0
BBX 11 15 0 0
BITMAP
3000
FE00
FE00
3000
3380
37C0
38E0
30E0
30E0
30E0
30E0
30E0
30E0
30E0
30E0
ENDCHAR
STARTCHAR Itilde
ENCODING 296
SWIDTH 600 0
DWIDTH 12 0
BBX 8 18 2 0
BITMAP
7E
FE
00
FF
FF
18
18
18
18
18
18
18
18
18
18
18
FF
FF
ENDCHAR
STARTCHAR itilde
ENCODING 297
SWIDTH 600 0
DWIDTH 12 0
BBX 9 15 2 0
BITMAP
3F00
7F00
0000
0000
FC00
FC00
1C00
1C00
1C00
1C00
1C00
1C00
1C00
FF80
FF80
ENDCHAR
STARTCHAR Imacron
ENCODING 298
SWIDTH 600 0
DWIDTH 12 0
BBX 8 18 2 0
BITMAP
FE
FE
00
FF
FF
18
18
18
18
18
18
18
18
18
18
18
FF
FF
ENDCHAR
STARTCHAR imacron
ENCODING 299
SWIDTH 600 0
DWIDTH 12 0
BBX 9 15 2 0
BITMAP
7F00
7F00
0000
0000
FC00
FC00
1C00
1C00
1C00
1C00
1C00
1C00
1C00
FF80
FF80
ENDCHAR
STARTCHAR Ibreve
ENCODING 300
SWIDTH 600 0
DWIDTH 12 0
BBX 8 19 2 0
BITMAP
66
7E
3C
00
FF
FF
18
18
18
18
18
18
18
18
18
18
18
FF
FF
ENDCHAR
STARTCHAR ibreve
ENCODING 301
SWIDTH 600 0
DWIDTH 12 0
BBX 9 16 2 0
BITMAP
6300
3E00
1C00
0000
0000
FC00
FC00
1C00
1C00
1C00
1C00
1C00
1C00
1C00
FF80
FF80
ENDCHAR
STARTCHAR Iogonek
ENCODING 302
SWIDTH 600 0
DWIDTH 12 0
BBX 8 19 2 -4
BITMAP
FF
FF
18
18
18
18
18
18
18
18
18
18
18
FF
FF
10
30
3C
1C
ENDCHAR
STARTCHAR iogonek
ENCODING 303
SWIDTH 600 0
DWIDTH 12 0
BBX 9 19 2 -4
BITMAP
1C00
1C00
1C00
0000
FC00
FC00
1C00
1C00
1C00
1C00
1C00
1C00
1C00
FF80
FF80
3000
3000
3C00
1C00
ENDCHAR
STARTCHAR Idotaccent
ENCODING 304
SWIDTH 600 0
DWIDTH 12 0
BBX 8 19 2 0
BITMAP
18
38
00
00
FF
FF
18
18
18
18
18
18
18
18
18
18
18
FF
FF
ENDCHAR
STARTCHAR dotlessi
ENCODING 305
SWIDTH 600 0
DWIDTH 12 0
BBX 9 11 2 0
BITMAP
FC00
FC00
1C00
1C00
1C00
1C00
1C00
1C00
1C00
FF80
FF80
ENDCHAR
STARTCHAR IJ
ENCODING 306
SWIDTH 600 0
DWIDTH 12 0
BBX 10 15 1 0
BITMAP
C0C0
C0C0
C0C0
C0C0
C0C0
C0C0
C0C0
C0C0
C0C0
C0C0
C0C0
C0C0
D8C0
CD80
CF00
ENDCHAR
STARTCHAR ij
ENCODING 307
SWIDTH 600 0
DWIDTH 12 0
BBX 10 19 1 -4
BITMAP
30C0
30C0
0000
0000
F3C0
F3C0
30C0
30C0
30C0
30C0
30C0
30C0
30C0
FCC0
FCC0
00C0
01C0
0F80
0F00
ENDCHAR
STARTCHAR Jcircumflex
ENCODING 308
SWIDTH 600 0
DWIDTH 12 0
BBX 12 18 1 0
BITMAP
01C0
0360
0410
01C0
01C0
01C0
01C0
01C0
01C0
01C0
01C0
01C0
01C0
E1C0
E1C0
F380
7F80
3E00
ENDCHAR
STARTCHAR jcircumflex
ENCODING 309
SWIDTH 600 0
DWIDTH 12 0
BBX 9 19 2 -4
BITMAP
0E00
3F00
0080
0000
7C00
7C00
0C00
0C00
0C00
0C00
0C00
0C00
0C00
0C00
0C00
0C00
1C00
FC00
F800
ENDCHAR
STARTCHAR Kcommaaccent
ENCODING 310
SWIDTH 600 0
DWIDTH 12 0
BBX 11 20 1 -5
BITMAP
E1E0
E1C0
E380
E780
E700
EE00
FC00
FE00
FE00
F700
E780
E380
E1C0
E1C0
E0E0
0000
0C00
0C00
1800
0800
ENDCHAR
STARTCHAR kcommaaccent
ENCODING 311
SWIDTH 600 0
DWIDTH 12 0
BBX 11 20 1 -5
BITMAP
E000
E000
E000
E000
E3C0
E380
E700
EE00
FC00
FE00
FE00
E700
E380
E3C0
E1E0
0000
0C00
0C00
1800
0800
ENDCHAR
STARTCHAR kgreenlandic
ENCODING 312
SWIDTH 600 0
DWIDTH 12 0
BBX 10 11 2 0
BITMAP
C3C0
C700
CF00
DE00
DC00
FC00
FE00
EF00
C700
C780
C3C0
ENDCHAR
STARTCHAR Lacute
ENCODING 313
SWIDTH 600 0
DWIDTH 12 0
BBX 10 18 1 0
BITMAP
3C00
7000
0000
E000
E000
E000
E000
E000
E000
E000
E000
E000
E000
E000
E000
E000
FFC0
FFC0
ENDCHAR
STARTCHAR lacute
ENCODING 314
SWIDTH 600 0
DWIDTH 12 0
BBX 9 19 2 0
BITMAP
0700
0C00
1000
0000
FC00
FC00
1C00
1C00
1C00
1C00
1C00
1C00
1C00
1C00
1C00
1C00
1C00
FF80
FF80
ENDCHAR
STARTCHAR Lcommaaccent
ENCODING 315
SWIDTH 600 0
DWIDTH 12 0
BBX 10 20 1 -5
BITMAP
E000
E000
E000
E000
E000
E000
E000
E000
E000
E000
E000
E000
E000
FFC0
FFC0
0000
0C00
0C00
1800
0800
ENDCHAR
STARTCHAR lcommaaccent
ENCODING 316
SWIDTH 600 0
DWIDTH 12 0
BBX 9 20 2 -5
BITMAP
FC00
FC00
1C00
1C00
1C00
1C00
1C00
1C00
1C00
1C00
1C00
1C00
1C00
FF80
FF80
0000
0C00
0800
1800
0800
ENDCHAR
STARTCHAR Lcaron
ENCODING 317
SWIDTH 600 0
DWIDTH 12 0
BBX 10 15 1 0
BITMAP
E000
E180
E180
E180
E180
E300
E100
E000
E000
E000
E000
E000
E000
FFC0
FFC0
ENDCHAR
STARTCHAR lcaron
ENCODING 318
SWIDTH 673 0
DWIDTH 13 0
BBX 10 15 2 0
BITMAP
FCC0
FCC0
1CC0
1CC0
1DC0
1C80
1C00
1C00
1C00
1C00
1C00
1C00
1C00
FF80
FF80
ENDCHAR
STARTCHAR Ldot
ENCODING 319
SWIDTH 600 0
DWIDTH 12 0
BBX 10 15 1 0
BITMAP
E000
E000
E000
E000
E000
E700
E700
E000
E000
E000
E000
E000
E000
FFC0
FFC0
ENDCHAR
STARTCHAR ldot
ENCODING 320
SWIDTH 707 0
DWIDTH 14 0
BBX 10 15 2 0
BITMAP
FC00
FC00
1C00
1C00
1C00
1D80
1DC0
1C00
1C00
1C00
1C00
1C00
1C00
FF80
FF80
ENDCHAR
STARTCHAR Lslash
ENCODING 321
SWIDTH 600 0
DWIDTH 12 0
BBX 11 15 0 0
BITMAP
3800
3800
3800
3800
3800
3A00
3E00
FC00
F800
3800
3800
3800
3800
3FE0
3FE0
ENDCHAR
STARTCHAR lslash
ENCODING 322
SWIDTH 600 0
DWIDTH 12 0
BBX 9 15 2 0
BITMAP
FC00
FC00
1C00
1C00
1D80
1F80
1E00
7C00
FC00
9C00
1C00
1C00
1C00
FF80
FF80
ENDCHAR
STARTCHAR Nacute
ENCODING 323
SWIDTH 600 0
DWIDTH 12 0
BBX 10 18 1 0
BITMAP
0780
0E00
0000
E1C0
F1C0
F1C0
F1C0
F9C0
F9C0
FDC0
EDC0
EDC0
E7C0
E7C0
E7C0
E3C0
E3C0
E1C0
ENDCHAR
STARTCHAR nacute
ENCODING 324
SWIDTH 600 0
DWIDTH 12 0
BBX 10 15 1 0
BITMAP
0780
0E00
0000
0000
EF00
FF80
F3C0
E1C0
E1C0
E1C0
E1C0
E1C0
E1C0
E1C0
E1C0
ENDCHAR
STARTCHAR Ncommaaccent
ENCODING 325
SWIDTH 600 0
DWIDTH 12 0
BBX 10 20 1 -5
BITMAP
E1C0
F1C0
F1C0
F1C0
F9C0
F9C0
FDC0
EDC0
EDC0
E7C0
E7C0
E7C0
E3C0
E3C0
E1C0
0000
0C00
0C00
1800
0800
ENDCHAR
STARTCHAR ncommaaccent
ENCODING 326
SWIDTH 600 0
DWIDTH 12 0
BBX 10 16 1 -5
BITMAP
EF00
FF80
F3C0
E1C0
E1C0
E1C0
E1C0
E1C0
E1C0
E1C0
E1C0
0000
0C00
0C00
1800
0800
ENDCHAR
STARTCHAR Ncaron
ENCODING 327
SWIDTH 600 0
DWIDTH 12 0
BBX 10 18 1 0
BITMAP
7380
1E00
0000
E1C0
F1C0
F1C0
F1C0
F9C0
F9C0
FDC0
EDC0
EDC0
E7C0
E7C0
E7C0
E3C0
E3C0
E1C0
ENDCHAR
STARTCHAR ncaron
ENCODING 328
SWIDTH 600 0
DWIDTH 12 0
BBX 10 15 1 0
BITMAP
7380
1E00
0000
0000
EF00
FF80
F3C0
E1C0
E1C0
E1C0
E1C0
E1C0
E1C0
E1C0
E1C0
ENDCHAR
STARTCHAR napostrophe
ENCODING 329
SWIDTH 600 0
DWIDTH 12 0
BBX 13 15 -2 0
BITMAP
7000
7000
6000
6000
FDE0
5FF0
1E78
1C38
1C38
1C38
1C38
1C38
1C38
1C38
1C38
ENDCHAR
STARTCHAR Eng
ENCODING 330
SWIDTH 600 0
DWIDTH 12 0
BBX 10 19 1 -4
BITMAP
E1C0
F1C0
F1C0
F9C0
F9C0
F9C0
FDC0
EDC0
EFC0
E7C0
E7C0
E7C0
E3C0
E3C0
E1C0
01C0
01C0
0780
0700
ENDCHAR
STARTCHAR eng
ENCODING 331
SWIDTH 600 0
DWIDTH 12 0
BBX 10 15 1 -4
BITMAP
EF00
FF80
F380
E1C0
E1C0
E1C0
E1C0
E1C0
E1C0
E1C0
E1C0
01C0
0380
0780
0700
ENDCHAR
STARTCHAR Omacron
ENCODING 332
SWIDTH 600 0
DWIDTH 12 0
BBX 10 18 1 0
BITMAP
7F80
7F80
0000
1E00
7F80
7380
E1C0
E1C0
E1C0
E1C0
E1C0
E1C0
E1C0
E1C0
E1C0
7380
7F80
1E00
ENDCHAR
STARTCHAR omacron
ENCODING 333
SWIDTH 600 0
DWIDTH 12 0
BBX 10 15 1 0
BITMAP
3F80
3F80
0000
0000
1E00
7F80
7380
E1C0
E1C0
E1C0
E1C0
E1C0
7380
7F80
1E00
ENDCHAR
STARTCHAR Obreve
ENCODING 334
SWIDTH 600 0
DWIDTH 12 0
BBX 10 19 1 0
BITMAP
3300
3F00
1E00
0000
1E00
7F80
7380
E1C0
E1C0
E1C0
E1C0
E1C0
E1C0
E1C0
E1C0
E1C0
7380
7F80
1E00
ENDCHAR
STARTCHAR obreve
ENCODING 335
SWIDTH 600 0
DWIDTH 12 0
BBX 10 16 1 0
BITMAP
3300
3F00
1E00
0000
0000
1E00
7F80
7380
E1C0
E1C0
E1C0
E1C0
E1C0
7380
7F80
1E00
ENDCHAR
STARTCHAR Ohungarumlaut
ENCODING 336
SWIDTH 600 0
DWIDTH 12 0
BBX 11 19 1 0
BITMAP
0FE0
1B00
2400
0000
1E00
7F80
7380
E1C0
E1C0
E1C0
E1C0
E1C0
E1C0
E1C0
E1C0
E1C0
7380
7F80
1E00
ENDCHAR
STARTCHAR ohungarumlaut
ENCODING 337
SWIDTH 600 0
DWIDTH 12 0
BBX 11 15 1 0
BITMAP
0FE0
1B80
2400
0000
1E00
7F80
7380
E1C0
E1C0
E1C0
E1C0
E1C0
7380
7F80
1E00
ENDCHAR
STARTCHAR OE
ENCODING 338
SWIDTH 600 0
DWIDTH 12 0
BBX 11 15 1 0
BITMAP
3FE0
7FE0
E600
C600
C600
C600
C7C0
C7C0
C600
C600
C600
C600
E600
7FE0
3FE0
ENDCHAR
STARTCHAR oe
ENCODING 339
SWIDTH 600 0
DWIDTH 12 0
BBX 12 11 0 0
BITMAP
3DC0
7FE0
6760
E670
E7F0
E7F0
E600
E700
6720
7FE0
3DE0
ENDCHAR
STARTCHAR Racute
ENCODING 340
SWIDTH 600 0
DWIDTH 12 0
BBX 11 18 1 0
BITMAP
0700
0E00
0000
FF00
FF80
E3C0
E1C0
E1C0
E1C0
E1C0
FF80
FF00
E700
E380
E380
E1C0
E1C0
E0E0
ENDCHAR
STARTCHAR racute
ENCODING 341
SWIDTH 600 0
DWIDTH 12 0
BBX 8 15 3 0
BITMAP
1C
38
00
00
CF
DF
F1
E0
E0
E0
E0
E0
E0
E0
E0
ENDCHAR
STARTCHAR Rcommaaccent
ENCODING 342
SWIDTH 600 0
DWIDTH 12 0
BBX 11 20 1 -5
BITMAP
FF00
FF80
E3C0
E1C0
E1C0
E1C0
E1C0
FF80
FF00
E700
E380
E380
E1C0
E1C0
E0E0
0000
0C00
0C00
1800
0800
ENDCHAR
STARTCHAR rcommaaccent
ENCODING 343
SWIDTH 600 0
DWIDTH 12 0
BBX 8 16 3 -5
BITMAP
CF
DF
F1
E0
E0
E0
E0
E0
E0
E0
E0
00
C0
C0
C0
80
ENDCHAR
STARTCHAR Rcaron
ENCODING 344
SWIDTH 600 0
DWIDTH 12 0
BBX 11 18 1 0
BITMAP
7380
1E00
0000
FF00
FF80
E3C0
E1C0
E1C0
E1C0
E1C0
FF80
FF00
E700
E380
E380
E1C0
E1C0
E0E0
ENDCHAR
STARTCHAR rcaron
ENCODING 345
SWIDTH 600 0
DWIDTH 12 0
BBX 9 15 2 0
BITMAP
E600
3C00
0000
0000
6780
6F80
7880
7000
7000
7000
7000
7000
7000
7000
7000
ENDCHAR
STARTCHAR Sacute
ENCODING 346
SWIDTH 600 0
DWIDTH 12 0
BBX 10 19 1 0
BITMAP
0380
0600
0800
0000
1F00
7F80
71C0
E1C0
E0C0
7000
7E00
3F80
07C0
01C0
E0C0
E0C0
F1C0
7F80
1F00
ENDCHAR
STARTCHAR sacute
ENCODING 347
SWIDTH 600 0
DWIDTH 12 0
BBX 10 15 1 0
BITMAP
0700
0E00
0000
0000
1F00
7F80
73C0
61C0
7000
3F00
0380
E1C0
F1C0
7F80
1F00
ENDCHAR
STARTCHAR Scircumflex
ENCODING 348
SWIDTH 600 0
DWIDTH 12 0
BBX 10 19 1 0
BITMAP
0E00
1B00
2080
0000
1F00
7F80
71C0
E1C0
E0C0
7000
7E00
3F80
07C0
01C0
E0C0
E0C0
F1C0
7F80
1F00
ENDCHAR
STARTCHAR scircumflex
ENCODING 349
SWIDTH 600 0
DWIDTH 12 0
BBX 10 15 1 0
BITMAP
1C00
3F00
4000
0000
1F00
7F80
73C0
61C0
7000
3F00
0380
E1C0
F1C0
7F80
1F00
ENDCHAR
STARTCHAR Scedilla
ENCODING 350
SWIDTH 600 0
DWIDTH 12 0
BBX 10 19 1 -4
BITMAP
1F00
7F80
71C0
E1C0
E0C0
7000
7E00
3F80
07C0
01C0
E0C0
E0C0
F1C0
7F80
1F00
0C00
0300
0F00
0E00
ENDCHAR
STARTCHAR scedilla
ENCODING 351
SWIDTH 600 0
DWIDTH 12 0
BBX 10 15 1 -4
BITMAP
1F00
7F80
73C0
61C0
7000
3F00
0380
E1C0
F1C0
7F80
1F00
0C00
1600
0E00
0C00
ENDCHAR
STARTCHAR Scaron
ENCODING 352
SWIDTH 600 0
DWIDTH 12 0
BBX 10 19 1 0
BITMAP
3380
1E00
0000
0000
1F00
7F80
71C0
E1C0
E0C0
7000
7E00
3F80
07C0
01C0
E0C0
E0C0
F1C0
7F80
1F00
ENDCHAR
STARTCHAR scaron
ENCODING 353
SWIDTH 600 0
DWIDTH 12 0
BBX 10 15 1 0
BITMAP
7380
1E00
0000
0000
1F00
7F80
73C0
61C0
7000
3F00
0380
E1C0
F1C0
7F80
1F00
ENDCHAR
STARTCHAR uni0162
ENCODING 354
SWIDTH 600 0
DWIDTH 12 0
BBX 12 19 0 -4
BITMAP
FFF0
FFF0
0600
0600
0600
0600
0600
0600
0600
0600
0600
0600
0600
0600
0600
0600
0300
0700
0600
ENDCHAR
STARTCHAR uni0163
ENCODING 355
SWIDTH 600 0
DWIDTH 12 0
BBX 10 18 1 -4
BITMAP
1800
1800
1800
FF80
FF80
1800
1800
1800
1800
1800
1800
1C40
1FC0
0F80
0E00
0300
0700
0600
ENDCHAR
STARTCHAR Tcaron
ENCODING 356
SWIDTH 600 0
DWIDTH 12 0
BBX 12 18 0 0
BITMAP
39C0
0F00
0000
FFF0
FFF0
0600
0600
0600
0600
0600
0600
0600
0600
0600
0600
0600
0600
0600
ENDCHAR
STARTCHAR tcaron
ENCODING 357
SWIDTH 619 0
DWIDTH 12 0
BBX 11 17 1 0
BITMAP
0060
0060
0060
1860
18C0
1840
FF80
FF80
1800
1800
1800
1800
1800
1800
1C40
1FC0
0F80
ENDCHAR
STARTCHAR Tbar
ENCODING 358
SWIDTH 600 0
DWIDTH 12 0
BBX 12 15 0 0
BITMAP
FFF0
FFF0
0600
0600
0600
0600
3F80
3F80
0600
0600
0600
0600
0600
0600
0600
ENDCHAR
STARTCHAR tbar
ENCODING 359
SWIDTH 600 0
DWIDTH 12 0
BBX 10 14 1 0
BITMAP
1800
1800
1800
FF80
FF80
1800
1800
7F00
7F00
1800
1800
1C00
1FC0
0F80
ENDCHAR
STARTCHAR Utilde
ENCODING 360
SWIDTH 600 0
DWIDTH 12 0
BBX 10 18 1 0
BITMAP
3F80
3F00
0000
E1C0
E1C0
E1C0
E1C0
E1C0
E1C0
E1C0
E1C0
E1C0
E1C0
E1C0
E1C0
7380
7F80
1E00
ENDCHAR
STARTCHAR utilde
ENCODING 361
SWIDTH 600 0
DWIDTH 12 0
BBX 10 15 1 0
BITMAP
3F80
3F00
0000
0000
E1C0
E1C0
E1C0
E1C0
E1C0
E1C0
E1C0
61C0
73C0
7FC0
3DC0
ENDCHAR
STARTCHAR Umacron
ENCODING 362
SWIDTH 600 0
DWIDTH 12 0
BBX 10 18 1 0
BITMAP
3F80
3F80
0000
E1C0
E1C0
E1C0
E1C0
E1C0
E1C0
E1C0
E1C0
E1C0
E1C0
E1C0
E1C0
7380
7F80
1E00
ENDCHAR
STARTCHAR umacron
ENCODING 363
SWIDTH 600 0
DWIDTH 12 0
BBX 10 15 1 0
BITMAP
3F80
3F80
0000
0000
E1C0
E1C0
E1C0
E1C0
E1C0
E1C0
E1C0
61C0
73C0
7FC0
3DC0
ENDCHAR
STARTCHAR Ubreve
ENCODING 364
SWIDTH 600 0
DWIDTH 12 0
BBX 10 19 1 0
BITMAP
3300
3F00
1E00
0000
E1C0
E1C0
E1C0
E1C0
E1C0
E1C0
E1C0
E1C0
E1C0
E1C0
E1C0
E1C0
7380
7F80
1E00
ENDCHAR
STARTCHAR ubreve
ENCODING 365
SWIDTH 600 0
DWIDTH 12 0
BBX 10 16 1 0
BITMAP
3300
3F00
1E00
0000
0000
E1C0
E1C0
E1C0
E1C0
E1C0
E1C0
E1C0
61C0
73C0
7FC0
3DC0
ENDCHAR
STARTCHAR Uring
ENCODING 366
SWIDTH 600 0
DWIDTH 12 0
BBX 10 20 1 0
BITMAP
0C00
1200
1200
1200
0C00
E1C0
E1C0
E1C0
E1C0
E1C0
E1C0
E1C0
E1C0
E1C0
E1C0
E1C0
E1C0
7380
7F80
1E00
ENDCHAR
STARTCHAR uring
ENCODING 367
SWIDTH 600 0
DWIDTH 12 0
BBX 10 17 1 0
BITMAP
0C00
1200
1200
1200
0C00
0000
E1C0
E1C0
E1C0
E1C0
E1C0
E1C0
E1C0
61C0
73C0
7FC0
3DC0
ENDCHAR
STARTCHAR Uhungarumlaut
ENCODING 368
SWIDTH 600 0
DWIDTH 12 0
BBX 11 18 1 0
BITMAP
0FE0
1B80
2000
E1C0
E1C0
E1C0
E1C0
E1C0
E1C0
E1C0
E1C0
E1C0
E1C0
E1C0
E1C0
7380
7F80
1E00
ENDCHAR
STARTCHAR uhungarumlaut
ENCODING 369
SWIDTH 600 0
DWIDTH 12 0
BBX 11 15 1 0
BITMAP
0FE0
1B80
2400
0000
E1C0
E1C0
E1C0
E1C0
E1C0
E1C0
E1C0
61C0
73C0
7FC0
3DC0
ENDCHAR
STARTCHAR Uogonek
ENCODING 370
SWIDTH 600 0
DWIDTH 12 0
BBX 10 19 1 -4
BITMAP
E1C0
E1C0
E1C0
E1C0
E1C0
E1C0
E1C0
E1C0
E1C0
E1C0
E1C0
E1C0
7380
7F80
1F00
0600
0C00
0700
0700
ENDCHAR
STARTCHAR uogonek
ENCODING 371
SWIDTH 600 0
DWIDTH 12 0
BBX 10 15 1 -4
BITMAP
E1C0
E1C0
E1C0
E1C0
E1C0
E1C0
E1C0
61C0
73C0
7FC0
3DC0
0300
0300
03C0
01C0
ENDCHAR
STARTCHAR Wcircumflex
ENCODING 372
SWIDTH 600 0
DWIDTH 12 0
BBX 12 18 0 0
BITMAP
0600
1F80
2040
E670
E670
6660
6660
6F60
6F60
7FE0
7FE0
7FE0
7BE0
39C0
39C0
39C0
39C0
39C0
ENDCHAR
STARTCHAR wcircumflex
ENCODING 373
SWIDTH 600 0
DWIDTH 12 0
BBX 12 15 0 0
BITMAP
0E00
1F80
2040
0000
E670
6660
6660
6E60
6FE0
6FE0
7BC0
39C0
39C0
39C0
39C0
ENDCHAR
STARTCHAR Ycircumflex
ENCODING 374
SWIDTH 600 0
DWIDTH 12 0
BBX 12 18 0 0
BITMAP
0700
1F80
0040
F070
70E0
70E0
39C0
39C0
1D80
1F80
0F80
0F00
0700
0600
0600
0600
0600
0600
ENDCHAR
STARTCHAR ycircumflex
ENCODING 375
SWIDTH 600 0
DWIDTH 12 0
BBX 11 19 1 -4
BITMAP
0E00
1B00
2080
0000
E0E0
E1C0
61C0
7180
7380
3B80
3B00
1F00
1E00
0E00
0C00
1C00
3C00
7800
7000
ENDCHAR
STARTCHAR Ydieresis
ENCODING 376
SWIDTH 600 0
DWIDTH 12 0
BBX 12 18 0 0
BITMAP
19C0
39C0
0000
F070
70E0
70E0
39C0
39C0
1D80
1F80
0F80
0F00
0700
0600
0600
0600
0600
0600
ENDCHAR
STARTCHAR Zacute
ENCODING 377
SWIDTH 600 0
DWIDTH 12 0
BBX 10 18 1 0
BITMAP
0780
0E00
0000
FFC0
FFC0
01C0
0380
0700
0700
0E00
1C00
1C00
3800
3800
7000
E000
FFC0
FFC0
ENDCHAR
STARTCHAR zacute
ENCODING 378
SWIDTH 600 0
DWIDTH 12 0
BBX 10 15 1 0
BITMAP
0380
0600
0800
0000
FFC0
FFC0
0380
0700
0E00
1E00
3C00
3800
7000
FFC0
FFC0
ENDCHAR
STARTCHAR Zdotaccent
ENCODING 379
SWIDTH 600 0
DWIDTH 12 0
BBX 10 19 1 0
BITMAP
0C00
0E00
0000
0000
FFC0
FFC0
01C0
0380
0700
0700
0E00
1C00
1C00
3800
3800
7000
E000
FFC0
FFC0
ENDCHAR
STARTCHAR zdotaccent
ENCODING 380
SWIDTH 600 0
DWIDTH 12 0
BBX 10 15 1 0
BITMAP
0E00
0E00
0000
0000
FFC0
FFC0
0380
0700
0E00
1E00
3C00
3800
7000
FFC0
FFC0
ENDCHAR
STARTCHAR Zcaron
ENCODING 381
SWIDTH 600 0
DWIDTH 12 0
BBX 10 18 1 0
BITMAP
7380
1E00
0000
FFC0
FFC0
01C0
0380
0700
0700
0E00
1C00
1C00
3800
3800
7000
E000
FFC0
FFC0
ENDCHAR
STARTCHAR zcaron
ENCODING 382
SWIDTH 600 0
DWIDTH 12 0
BBX 10 15 1 0
BITMAP
3B80
1E00
0000
0000
FFC0
FFC0
0380
0700
0E00
1E00
3C00
3800
7000
FFC0
FFC0
ENDCHAR
STARTCHAR longs
ENCODING 383
SWIDTH 600 0
DWIDTH 12 0
BBX 6 16 4 0
BITMAP
3C
7C
F0
E0
E0
E0
E0
E0
E0
E0
E0
E0
E0
E0
E0
E0
ENDCHAR
STARTCHAR florin
ENCODING 402
SWIDTH 600 0
DWIDTH 12 0
BBX 10 20 1 -4
BITMAP
03C0
0FC0
0E40
0C00
1C00
3F00
3F00
1C00
1C00
1C00
1C00
1C00
1C00
1C00
1C00
1C00
1C00
9C00
7C00
F000
ENDCHAR
STARTCHAR Ohorn
ENCODING 416
SWIDTH 600 0
DWIDTH 12 0
BBX 11 15 1 0
BITMAP
1E60
3FE0
73C0
E1C0
E1C0
E0C0
E0C0
E0C0
E0C0
E0C0
E1C0
E1C0
7380
3F80
1E00
ENDCHAR
STARTCHAR ohorn
ENCODING 417
SWIDTH 600 0
DWIDTH 12 0
BBX 11 12 1 0
BITMAP
0060
1E40
7FC0
7380
E1C0
E1C0
E1C0
E1C0
E1C0
7380
7F80
1E00
ENDCHAR
STARTCHAR Uhorn
ENCODING 431
SWIDTH 600 0
DWIDTH 12 0
BBX 13 15 1 0
BITMAP
E1D8
E1D8
E1F8
E1F0
E1C0
E1C0
E1C0
E1C0
E1C0
E1C0
E1C0
E1C0
7380
7F80
1E00
ENDCHAR
STARTCHAR uhorn
ENCODING 432
SWIDTH 600 0
DWIDTH 12 0
BBX 12 12 1 0
BITMAP
0030
E1B0
E1F0
E1E0
E180
E180
E180
E180
E180
F380
7F80
3D80
ENDCHAR
STARTCHAR uni01F0
ENCODING 496
SWIDTH 600 0
DWIDTH 12 0
BBX 9 19 2 -4
BITMAP
7380
1E00
0000
0000
7C00
7C00
0C00
0C00
0C00
0C00
0C00
0C00
0C00
0C00
0C00
0C00
1C00
FC00
F800
ENDCHAR
STARTCHAR Aringacute
ENCODING 506
SWIDTH 600 0
DWIDTH 12 0
BBX 12 21 0 0
BITMAP
01C0
0300
0600
0D00
0900
0600
0700
0F00
0F00
0F00
0F80
1D80
1D80
19C0
39C0
38C0
3FE0
7FE0
70E0
7070
E070
ENDCHAR
STARTCHAR aringacute
ENCODING 507
SWIDTH 600 0
DWIDTH 12 0
BBX 10 18 1 0
BITMAP
0700
0C00
0C00
1600
1200
0C00
0000
3E00
7F80
E380
0180
3F80
7F80
F180
E180
E380
7F80
3DC0
ENDCHAR
STARTCHAR AEacute
ENCODING 508
SWIDTH 600 0
DWIDTH 12 0
BBX 12 18 0 0
BITMAP
01E0
0380
0000
07E0
07E0
0F80
0F80
0F80
1F80
1B80
1BE0
3BE0
3F80
3F80
3380
7380
73F0
E3F0
ENDCHAR
STARTCHAR aeacute
ENCODING 509
SWIDTH 600 0
DWIDTH 12 0
BBX 12 15 0 0
BITMAP
01C0
0300
0400
0000
3DC0
7FE0
6760
0670
3FF0
7FF0
7600
E600
6720
7FE0
39E0
ENDCHAR
STARTCHAR Oslashacute
ENCODING 510
SWIDTH 600 0
DWIDTH 12 0
BBX 11 19 0 0
BITMAP
03C0
0700
0000
0000
0F60
3FC0
39C0
71E0
71E0
73E0
76E0
76E0
7CE0
7CE0
78E0
78E0
39C0
3FC0
EF00
ENDCHAR
STARTCHAR oslashacute
ENCODING 511
SWIDTH 600 0
DWIDTH 12 0
BBX 10 16 1 -1
BITMAP
0700
0C00
1080
0180
1F00
7F80
7380
E7C0
E5C0
EDC0
E9C0
F9C0
7380
7F80
3E00
6000
ENDCHAR
STARTCHAR uni0218
ENCODING 536
SWIDTH 600 0
DWIDTH 12 0
BBX 10 20 1 -5
BITMAP
1F00
7F80
71C0
E1C0
E0C0
7000
7E00
3F80
07C0
01C0
E0C0
E0C0
F1C0
7F80
1F00
0000
0400
0C00
0C00
0800
ENDCHAR
STARTCHAR uni0219
ENCODING 537
SWIDTH 600 0
DWIDTH 12 0
BBX 10 16 1 -5
BITMAP
1F00
7F80
73C0
61C0
7000
3F00
0380
E1C0
F1C0
7F80
1F00
0000
0C00
0C00
1800
0800
ENDCHAR
STARTCHAR uni021A
ENCODING 538
SWIDTH 600 0
DWIDTH 12 0
BBX 12 20 0 -5
BITMAP
FFF0
FFF0
0600
0600
0600
0600
0600
0600
0600
0600
0600
0600
0600
0600
0600
0000
0600
0600
0C00
0400
ENDCHAR
STARTCHAR uni021B
ENCODING 539
SWIDTH 600 0
DWIDTH 12 0
BBX 10 19 1 -5
BITMAP
1800
1800
1800
FF80
FF80
1800
1800
1800
1800
1800
1800
1C40
1FC0
0F80
0000
0600
0400
0C00
0400
ENDCHAR
STARTCHAR uni0237
ENCODING 567
SWIDTH 600 0
DWIDTH 12 0
BBX 6 15 2 -4
BITMAP
7C
7C
0C
0C
0C
0C
0C
0C
0C
0C
0C
0C
1C
FC
F8
ENDCHAR
STARTCHAR schwa
ENCODING 601
SWIDTH 600 0
DWIDTH 12 0
BBX 9 11 2 0
BITMAP
7C00
FF00
C700
0380
0380
FF80
FF80
C380
E700
FF00
3C00
ENDCHAR
STARTCHAR uni02BC
ENCODING 700
SWIDTH 600 0
DWIDTH 12 0
BBX 3 6 5 9
BITMAP
E0
E0
E0
C0
C0
80
ENDCHAR
STARTCHAR circumflex
ENCODING 710
SWIDTH 600 0
DWIDTH 12 0
BBX 8 2 1 13
BITMAP
38
FF
ENDCHAR
STARTCHAR caron
ENCODING 711
SWIDTH 600 0
DWIDTH 12 0
BBX 8 2 2 13
BITMAP
E7
3C
ENDCHAR
STARTCHAR macron.dup2
ENCODING 713
SWIDTH 600 0
DWIDTH 12 0
BBX 7 2 3 13
BITMAP
FE
FE
ENDCHAR
STARTCHAR breve
ENCODING 728
SWIDTH 600 0
DWIDTH 12 0
BBX 7 3 3 12
BITMAP
CE
FC
78
ENDCHAR
STARTCHAR dotaccent
ENCODING 729
SWIDTH 600 0
DWIDTH 12 0
BBX 3 2 5 13
BITMAP
C0
E0
ENDCHAR
STARTCHAR ring
ENCODING 730
SWIDTH 600 0
DWIDTH 12 0
BBX 4 5 4 10
BITMAP
60
90
90
90
60
ENDCHAR
STARTCHAR ogonek
ENCODING 731
SWIDTH 600 0
DWIDTH 12 0
BBX 4 5 4 -4
BITMAP
60
C0
C0
E0
F0
ENDCHAR
STARTCHAR tilde
ENCODING 732
SWIDTH 600 0
DWIDTH 12 0
BBX 7 2 1 13
BITMAP
7E
FE
ENDCHAR
STARTCHAR hungarumlaut
ENCODING 733
SWIDTH 600 0
DWIDTH 12 0
BBX 8 2 2 13
BITMAP
3F
FC
ENDCHAR
STARTCHAR uni02F3
ENCODING 755
SWIDTH 600 0
DWIDTH 12 0
BBX 4 3 4 -4
BITMAP
60
B0
60
ENDCHAR
STARTCHAR gravecomb
ENCODING 768
SWIDTH 600 0
DWIDTH 12 0
BBX 4 3 -9 12
BITMAP
E0
60
30
ENDCHAR
STARTCHAR acutecomb
ENCODING 769
SWIDTH 600 0
DWIDTH 12 0
BBX 3 4 -6 11
BITMAP
60
C0
C0
80
ENDCHAR
STARTCHAR tildecomb
ENCODING 771
SWIDTH 600 0
DWIDTH 12 0
BBX 7 2 -9 13
BITMAP
7E
FE
ENDCHAR
STARTCHAR hook
ENCODING 777
SWIDTH 600 0
DWIDTH 12 0
BBX 4 4 -7 13
BITMAP
E0
60
70
E0
ENDCHAR
STARTCHAR uni030F
ENCODING 783
SWIDTH 600 0
DWIDTH 12 0
BBX 8 2 -10 13
BITMAP
EE
3F
ENDCHAR
STARTCHAR dotbelow
ENCODING 803
SWIDTH 600 0
DWIDTH 12 0
BBX 3 2 -7 -4
BITMAP
E0
E0
ENDCHAR
STARTCHAR tonos
ENCODING 900
SWIDTH 600 0
DWIDTH 12 0
BBX 3 4 6 13
BITMAP
E0
C0
C0
80
ENDCHAR
STARTCHAR dieresistonos
ENCODING 901
SWIDTH 600 0
DWIDTH 12 0
BBX 8 5 3 13
BITMAP
1C
18
18
C6
C7
ENDCHAR
STARTCHAR Alphatonos
ENCODING 902
SWIDTH 600 0
DWIDTH 12 0
BBX 12 17 0 0
BITMAP
7000
6000
6700
CF00
0F00
0F00
0F80
1D80
1D80
19C0
39C0
38C0
3FE0
7FE0
70E0
7070
E070
ENDCHAR
STARTCHAR anoteleia
ENCODING 903
SWIDTH 600 0
DWIDTH 12 0
BBX 4 3 5 6
BITMAP
60
F0
60
ENDCHAR
STARTCHAR Epsilontonos
ENCODING 904
SWIDTH 648 0
DWIDTH 13 0
BBX 13 17 -1 0
BITMAP
E000
C000
DFF8
9FF8
1C00
1C00
1C00
1C00
1C00
1FF0
1FF0
1C00
1C00
1C00
1C00
1FF8
1FF8
ENDCHAR
STARTCHAR Etatonos
ENCODING 905
SWIDTH 648 0
DWIDTH 13 0
BBX 13 17 -1 0
BITMAP
6000
E000
DC38
DC38
1C38
1C38
1C38
1C38
1C38
1FF8
1FF8
1C38
1C38
1C38
1C38
1C38
1C38
ENDCHAR
STARTCHAR Iotatonos
ENCODING 906
SWIDTH 648 0
DWIDTH 13 0
BBX 12 17 -1 0
BITMAP
7000
6000
6FF0
CFF0
0180
0180
0180
0180
0180
0180
0180
0180
0180
0180
0180
0FF0
0FF0
ENDCHAR
STARTCHAR Omicrontonos
ENCODING 908
SWIDTH 609 0
DWIDTH 12 0
BBX 12 17 -1 0
BITMAP
E000
E000
C780
8FE0
1CE0
3870
3870
3830
3830
3830
3830
3830
3870
3870
1CE0
0FE0
0780
ENDCHAR
STARTCHAR Upsilontonos
ENCODING 910
SWIDTH 648 0
DWIDTH 13 0
BBX 15 17 -2 0
BITMAP
7000
6000
5E0E
CE1C
0E1C
0738
0738
03B0
03F0
01F0
01E0
00E0
00C0
00C0
00C0
00C0
00C0
ENDCHAR
STARTCHAR Omegatonos
ENCODING 911
SWIDTH 609 0
DWIDTH 12 0
BBX 12 17 -1 0
BITMAP
7000
6000
4780
CFE0
1CF0
1C70
3870
3870
3870
3870
3870
1870
1870
0C60
0EC0
3EF0
3EF0
ENDCHAR
STARTCHAR iotadieresistonos
ENCODING 912
SWIDTH 600 0
DWIDTH 12 0
BBX 9 17 2 0
BITMAP
0E00
0C00
1800
E300
E700
0000
F800
F800
1800
1800
1800
1800
1800
1800
1C80
1F00
0F80
ENDCHAR
STARTCHAR Alpha
ENCODING 913
SWIDTH 600 0
DWIDTH 12 0
BBX 12 15 0 0
BITMAP
0700
0F00
0F00
0F00
0F80
1D80
1D80
19C0
39C0
38C0
3FE0
7FE0
70E0
7070
E070
ENDCHAR
STARTCHAR Beta
ENCODING 914
SWIDTH 600 0
DWIDTH 12 0
BBX 11 15 1 0
BITMAP
FF00
FF80
E3C0
E1C0
E1C0
E1C0
E3C0
FF80
FFC0
E1C0
E0E0
E0C0
E1C0
FFC0
FF00
ENDCHAR
STARTCHAR Gamma
ENCODING 915
SWIDTH 600 0
DWIDTH 12 0
BBX 10 15 1 0
BITMAP
FFC0
FFC0
E000
E000
E000
E000
E000
E000
E000
E000
E000
E000
E000
E000
E000
ENDCHAR
STARTCHAR Delta
ENCODING 916
SWIDTH 600 0
DWIDTH 12 0
BBX 13 15 0 0
BITMAP
0700
0700
0F80
0F80
0D80
1DC0
1DC0
19C0
38C0
38E0
38E0
7060
7070
7FF0
FFF8
ENDCHAR
STARTCHAR Epsilon
ENCODING 917
SWIDTH 600 0
DWIDTH 12 0
BBX 10 15 1 0
BITMAP
FFC0
FFC0
E000
E000
E000
E000
E000
FF80
FF80
E000
E000
E000
E000
FFC0
FFC0
ENDCHAR
STARTCHAR Zeta
ENCODING 918
SWIDTH 600 0
DWIDTH 12 0
BBX 10 15 1 0
BITMAP
FFC0
FFC0
01C0
0380
0700
0700
0E00
1C00
1C00
3800
3800
7000
E000
FFC0
FFC0
ENDCHAR
STARTCHAR Eta
ENCODING 919
SWIDTH 600 0
DWIDTH 12 0
BBX 10 15 1 0
BITMAP
E1C0
E1C0
E1C0
E1C0
E1C0
E1C0
E1C0
FFC0
FFC0
E1C0
E1C0
E1C0
E1C0
E1C0
E1C0
ENDCHAR
STARTCHAR Theta
ENCODING 920
SWIDTH 600 0
DWIDTH 12 0
BBX 10 15 1 0
BITMAP
1E00
7F80
7380
E1C0
E1C0
E1C0
E0C0
FEC0
FEC0
E1C0
E1C0
E1C0
7380
7F80
1E00
ENDCHAR
STARTCHAR Iota
ENCODING 921
SWIDTH 600 0
DWIDTH 12 0
BBX 8 15 2 0
BITMAP
FF
FF
18
18
18
18
18
18
18
18
18
18
18
FF
FF
ENDCHAR
STARTCHAR Kappa
ENCODING 922
SWIDTH 600 0
DWIDTH 12 0
BBX 11 15 1 0
BITMAP
E1E0
E1C0
E380
E780
E700
EE00
FC00
FE00
FE00
F700
E780
E380
E1C0
E1C0
E0E0
ENDCHAR
STARTCHAR Lambda
ENCODING 923
SWIDTH 600 0
DWIDTH 12 0
BBX 12 15 0 0
BITMAP
0F00
0F00
0F00
0F00
1F80
1F80
1980
39C0
39C0
39C0
30C0
70E0
70E0
70E0
E070
ENDCHAR
STARTCHAR Mu
ENCODING 924
SWIDTH 600 0
DWIDTH 12 0
BBX 10 15 1 0
BITMAP
F3C0
F3C0
F3C0
F3C0
FEC0
FEC0
FFC0
EDC0
EDC0
EDC0
E1C0
E1C0
E1C0
E1C0
E1C0
ENDCHAR
STARTCHAR Nu
ENCODING 925
SWIDTH 600 0
DWIDTH 12 0
BBX 10 15 1 0
BITMAP
E1C0
F1C0
F1C0
F1C0
F9C0
F9C0
FDC0
EDC0
EDC0
E7C0
E7C0
E7C0
E3C0
E3C0
E1C0
ENDCHAR
STARTCHAR Xi
ENCODING 926
SWIDTH 600 0
DWIDTH 12 0
BBX 10 15 1 0
BITMAP
FF80
FF80
0000
0000
0000
0000
0000
7F80
7F80
0000
0000
0000
0000
FFC0
FFC0
ENDCHAR
STARTCHAR Omicron
ENCODING 927
SWIDTH 600 0
DWIDTH 12 0
BBX 10 15 1 0
BITMAP
1E00
7F80
7380
E1C0
E1C0
E1C0
E1C0
E1C0
E1C0
E1C0
E1C0
E1C0
7380
7F80
1E00
ENDCHAR
STARTCHAR Pi
ENCODING 928
SWIDTH 600 0
DWIDTH 12 0
BBX 10 15 1 0
BITMAP
FFC0
FFC0
E1C0
E1C0
E1C0
E1C0
E1C0
E1C0
E1C0
E1C0
E1C0
E1C0
E1C0
E1C0
E1C0
ENDCHAR
STARTCHAR Rho
ENCODING 929
SWIDTH 600 0
DWIDTH 12 0
BBX 10 15 1 0
BITMAP
FF00
FF80
E3C0
E1C0
E0C0
E0C0
E1C0
E3C0
FF80
FF00
E000
E000
E000
E000
E000
ENDCHAR
STARTCHAR Sigma
ENCODING 931
SWIDTH 600 0
DWIDTH 12 0
BBX 10 15 1 0
BITMAP
FFC0
FFC0
7000
3800
3800
1C00
0E00
0E00
0E00
1C00
3800
3800
7000
FFC0
FFC0
ENDCHAR
STARTCHAR Tau
ENCODING 932
SWIDTH 600 0
DWIDTH 12 0
BBX 12 15 0 0
BITMAP
FFF0
FFF0
0600
0600
0600
0600
0600
0600
0600
0600
0600
0600
0600
0600
0600
ENDCHAR
STARTCHAR Upsilon
ENCODING 933
SWIDTH 600 0
DWIDTH 12 0
BBX 12 15 0 0
BITMAP
F070
70E0
70E0
39C0
39C0
1D80
1F80
0F80
0F00
0700
0600
0600
0600
0600
0600
ENDCHAR
STARTCHAR Phi
ENCODING 934
SWIDTH 600 0
DWIDTH 12 0
BBX 11 15 1 0
BITMAP
0E00
0E00
3F00
7FC0
FFE0
EEE0
CE60
CE60
CE60
EEE0
FFE0
7FC0
3F80
0E00
0E00
ENDCHAR
STARTCHAR Chi
ENCODING 935
SWIDTH 600 0
DWIDTH 12 0
BBX 12 15 0 0
BITMAP
F0F0
70E0
39E0
39C0
1F80
1F80
0F00
0F00
0F00
1F80
1D80
39C0
38E0
70E0
F0F0
ENDCHAR
STARTCHAR Psi
ENCODING 936
SWIDTH 600 0
DWIDTH 12 0
BBX 11 15 1 0
BITMAP
CEE0
CEE0
CEE0
CEE0
CEE0
CEE0
CEE0
EEE0
EEE0
7FC0
3F80
0E00
0E00
0E00
0E00
ENDCHAR
STARTCHAR Omega
ENCODING 937
SWIDTH 600 0
DWIDTH 12 0
BBX 10 15 1 0
BITMAP
1E00
3F80
7380
E1C0
E1C0
E1C0
E1C0
E1C0
E1C0
E1C0
6180
7380
3B00
FBC0
FBC0
ENDCHAR
STARTCHAR Iotadieresis
ENCODING 938
SWIDTH 600 0
DWIDTH 12 0
BBX 8 18 2 0
BITMAP
E6
E6
00
FF
FF
18
18
18
18
18
18
18
18
18
18
18
FF
FF
ENDCHAR
STARTCHAR Upsilondieresis
ENCODING 939
SWIDTH 600 0
DWIDTH 12 0
BBX 12 18 0 0
BITMAP
19C0
39C0
0000
F070
70E0
70E0
39C0
39C0
1D80
1F80
0F80
0F00
0700
0600
0600
0600
0600
0600
ENDCHAR
STARTCHAR alphatonos
ENCODING 940
SWIDTH 600 0
DWIDTH 12 0
BBX 10 17 1 0
BITMAP
0700
0600
0400
0C00
0000
0000
3D80
7F80
7380
E380
E380
E380
E380
E380
F380
7FC0
3DC0
ENDCHAR
STARTCHAR epsilontonos
ENCODING 941
SWIDTH 600 0
DWIDTH 12 0
BBX 11 17 1 0
BITMAP
0700
0600
0600
0400
0000
0000
3F00
7FC0
F1C0
6000
7F00
7F00
7000
E020
F1C0
7FC0
1F00
ENDCHAR
STARTCHAR etatonos
ENCODING 942
SWIDTH 600 0
DWIDTH 12 0
BBX 10 21 1 -4
BITMAP
0700
0600
0600
0C00
0000
0000
EF00
FF80
F3C0
E1C0
E1C0
E1C0
E1C0
E1C0
E1C0
E1C0
E1C0
01C0
01C0
01C0
01C0
ENDCHAR
STARTCHAR iotatonos
ENCODING 943
SWIDTH 600 0
DWIDTH 12 0
BBX 9 17 2 0
BITMAP
0E00
0C00
0800
1800
0000
0000
F800
F800
1800
1800
1800
1800
1800
1800
1C80
1F00
0F80
ENDCHAR
STARTCHAR upsilondieresistonos
ENCODING 944
SWIDTH 600 0
DWIDTH 12 0
BBX 10 17 1 0
BITMAP
0600
0C00
0C00
6380
7380
0000
E380
E180
E1C0
E1C0
E1C0
E1C0
E1C0
E1C0
7380
7F80
3E00
ENDCHAR
STARTCHAR alpha
ENCODING 945
SWIDTH 600 0
DWIDTH 12 0
BBX 10 11 1 0
BITMAP
3D80
7F80
7380
E380
E380
E380
E380
E380
F380
7FC0
3DC0
ENDCHAR
STARTCHAR beta
ENCODING 946
SWIDTH 600 0
DWIDTH 12 0
BBX 9 19 2 -4
BITMAP
3E00
7F00
E780
C380
C380
C300
CF00
CF00
C380
C380
C180
C380
E380
FF80
DE00
C000
C000
C000
C000
ENDCHAR
STARTCHAR gamma
ENCODING 947
SWIDTH 600 0
DWIDTH 12 0
BBX 12 15 0 -4
BITMAP
E070
70E0
70E0
30C0
39C0
19C0
1D80
1F80
0F00
0F00
0700
0600
0600
0600
0600
ENDCHAR
STARTCHAR delta
ENCODING 948
SWIDTH 600 0
DWIDTH 12 0
BBX 10 16 1 0
BITMAP
1E00
3F00
7100
7000
3800
3E00
3F80
7380
E1C0
E1C0
E0C0
E1C0
E1C0
73C0
7F80
1E00
ENDCHAR
STARTCHAR epsilon
ENCODING 949
SWIDTH 600 0
DWIDTH 12 0
BBX 11 11 1 0
BITMAP
3F00
7FC0
F1C0
6000
7F00
7F00
7000
E020
F1C0
7FC0
1F00
ENDCHAR
STARTCHAR zeta
ENCODING 950
SWIDTH 600 0
DWIDTH 12 0
BBX 9 18 1 -3
BITMAP
FF80
FF80
0380
0700
0E00
1C00
3800
7000
E000
E000
E000
E000
FC00
7F80
0780
0380
0380
0300
ENDCHAR
STARTCHAR eta
ENCODING 951
SWIDTH 600 0
DWIDTH 12 0
BBX 10 15 1 -4
BITMAP
EF00
FF80
F3C0
E1C0
E1C0
E1C0
E1C0
E1C0
E1C0
E1C0
E1C0
01C0
01C0
01C0
01C0
ENDCHAR
STARTCHAR theta
ENCODING 952
SWIDTH 600 0
DWIDTH 12 0
BBX 9 15 2 0
BITMAP
3C00
7F00
E700
E300
C380
C380
FF80
FF80
C380
C380
C380
E300
E700
7F00
3C00
ENDCHAR
STARTCHAR iota
ENCODING 953
SWIDTH 600 0
DWIDTH 12 0
BBX 9 11 2 0
BITMAP
F800
F800
1800
1800
1800
1800
1800
1800
1C80
1F00
0F80
ENDCHAR
STARTCHAR kappa
ENCODING 954
SWIDTH 600 0
DWIDTH 12 0
BBX 10 11 2 0
BITMAP
C3C0
C700
CF00
DE00
DC00
FC00
FE00
EF00
C700
C780
C3C0
ENDCHAR
STARTCHAR lambda
ENCODING 955
SWIDTH 600 0
DWIDTH 12 0
BBX 11 15 0 0
BITMAP
7000
7800
1C00
0C00
0E00
0E00
1E00
1F00
1F00
3B80
3B80
3180
71C0
71E0
E060
ENDCHAR
STARTCHAR uni03BC
ENCODING 956
SWIDTH 600 0
DWIDTH 12 0
BBX 9 15 2 -4
BITMAP
C380
C380
C380
C380
C380
C380
C380
E380
E780
FF80
FF80
C000
C000
C000
C000
ENDCHAR
STARTCHAR nu
ENCODING 957
SWIDTH 600 0
DWIDTH 12 0
BBX 10 11 1 0
BITMAP
E1C0
E1C0
6180
7380
7380
3300
3300
3F00
1E00
1E00
0C00
ENDCHAR
STARTCHAR xi
ENCODING 958
SWIDTH 600 0
DWIDTH 12 0
BBX 9 18 2 -3
BITMAP
1F80
7F00
7080
6000
7000
3F00
3F00
7000
E000
C000
E000
E000
7E00
3F80
0780
0380
0380
0300
ENDCHAR
STARTCHAR omicron
ENCODING 959
SWIDTH 600 0
DWIDTH 12 0
BBX 10 11 1 0
BITMAP
1E00
7F80
7380
E1C0
E1C0
E1C0
E1C0
E1C0
7380
7F80
1E00
ENDCHAR
STARTCHAR pi
ENCODING 960
SWIDTH 600 0
DWIDTH 12 0
BBX 11 11 1 0
BITMAP
FFE0
FFE0
7380
7380
7380
7380
7380
7380
7180
71E0
71E0
ENDCHAR
STARTCHAR rho
ENCODING 961
SWIDTH 600 0
DWIDTH 12 0
BBX 10 15 1 -4
BITMAP
1E00
3F80
7380
61C0
E1C0
E1C0
E1C0
E1C0
F380
FF80
EF00
E000
E000
E000
E000
ENDCHAR
STARTCHAR sigma1
ENCODING 962
SWIDTH 600 0
DWIDTH 12 0
BBX 10 15 1 -4
BITMAP
1E00
7F80
7380
E1C0
E000
E000
E000
E000
F000
7F00
1F80
0380
0380
0780
0200
ENDCHAR
STARTCHAR sigma
ENCODING 963
SWIDTH 600 0
DWIDTH 12 0
BBX 10 11 1 0
BITMAP
3FC0
7FC0
F300
E180
E180
E1C0
E1C0
E180
F380
7F00
3E00
ENDCHAR
STARTCHAR tau
ENCODING 964
SWIDTH 600 0
DWIDTH 12 0
BBX 9 11 1 0
BITMAP
FF80
FF80
1C00
1C00
1C00
1C00
1C00
1C00
1C80
0F80
0780
ENDCHAR
STARTCHAR upsilon
ENCODING 965
SWIDTH 600 0
DWIDTH 12 0
BBX 10 11 1 0
BITMAP
E380
E180
E1C0
E1C0
E1C0
E1C0
E1C0
E1C0
7380
7F80
3E00
ENDCHAR
STARTCHAR phi
ENCODING 966
SWIDTH 600 0
DWIDTH 12 0
BBX 11 16 1 -5
BITMAP
6780
7FC0
EEC0
EEE0
EEE0
CEE0
EEE0
EEE0
FFC0
7FC0
3F00
0E00
0E00
0E00
0E00
0E00
ENDCHAR
STARTCHAR chi
ENCODING 967
SWIDTH 600 0
DWIDTH 12 0
BBX 11 11 1 0
BITMAP
E1C0
7380
3B80
3F00
1F00
0E00
1F00
3F00
3380
71C0
E1E0
ENDCHAR
STARTCHAR psi
ENCODING 968
SWIDTH 600 0
DWIDTH 12 0
BBX 11 16 1 -5
BITMAP
CEC0
CEE0
CEE0
CEE0
CEE0
CEE0
EEE0
EEE0
EFC0
7FC0
3F80
0E00
0E00
0E00
0E00
0E00
ENDCHAR
STARTCHAR omega
ENCODING 969
SWIDTH 600 0
DWIDTH 12 0
BBX 12 11 0 0
BITMAP
70E0
70E0
6660
6670
E670
E670
6670
6760
6F60
7FE0
39C0
ENDCHAR
STARTCHAR iotadieresis
ENCODING 970
SWIDTH 600 0
DWIDTH 12 0
BBX 9 15 2 0
BITMAP
6700
E700
0000
0000
F800
F800
1800
1800
1800
1800
1800
1800
1C80
1F00
0F80
ENDCHAR
STARTCHAR upsilondieresis
ENCODING 971
SWIDTH 600 0
DWIDTH 12 0
BBX 10 15 1 0
BITMAP
7300
7380
0000
0000
E380
E180
E1C0
E1C0
E1C0
E1C0
E1C0
E1C0
7380
7F80
3E00
ENDCHAR
STARTCHAR omicrontonos
ENCODING 972
SWIDTH 600 0
DWIDTH 12 0
BBX 10 17 1 0
BITMAP
0700
0600
0400
0C00
0000
0000
1E00
7F80
7380
E1C0
E1C0
E1C0
E1C0
E1C0
7380
7F80
1E00
ENDCHAR
STARTCHAR upsilontonos
ENCODING 973
SWIDTH 600 0
DWIDTH 12 0
BBX 10 17 1 0
BITMAP
0700
0600
0C00
0C00
0000
0000
E380
E180
E1C0
E1C0
E1C0
E1C0
E1C0
E1C0
7380
7F80
3E00
ENDCHAR
STARTCHAR omegatonos
ENCODING 974
SWIDTH 600 0
DWIDTH 12 0
BBX 12 17 0 0
BITMAP
0380
0300
0200
0600
0000
0000
70E0
70E0
6660
6670
E670
E670
6670
6760
6F60
7FE0
39C0
ENDCHAR
STARTCHAR uni03D1
ENCODING 977
SWIDTH 600 0
DWIDTH 12 0
BBX 11 15 1 0
BITMAP
0F00
1F80
1DC0
19C0
19C0
1DC0
1FC0
0FE0
E7E0
E1C0
E1C0
61C0
7380
3F80
1E00
ENDCHAR
STARTCHAR uni03D2
ENCODING 978
SWIDTH 600 0
DWIDTH 12 0
BBX 12 15 1 0
BITMAP
C070
E0E0
71C0
31C0
3980
3B80
1B00
1F00
0F00
0E00
0E00
0E00
0E00
0E00
0E00
ENDCHAR
STARTCHAR uni03D6
ENCODING 982
SWIDTH 600 0
DWIDTH 12 0
BBX 12 11 0 0
BITMAP
FFF0
FFF0
7060
6070
6770
E770
E770
E770
6F70
7FE0
39E0
ENDCHAR
STARTCHAR uni0400
ENCODING 1024
SWIDTH 600 0
DWIDTH 12 0
BBX 10 18 1 0
BITMAP
3800
1C00
0000
FFC0
FFC0
E000
E000
E000
E000
E000
FF80
FF80
E000
E000
E000
E000
FFC0
FFC0
ENDCHAR
STARTCHAR uni0401
ENCODING 1025
SWIDTH 600 0
DWIDTH 12 0
BBX 10 18 1 0
BITMAP
3380
3380
0000
FFC0
FFC0
E000
E000
E000
E000
E000
FF80
FF80
E000
E000
E000
E000
FFC0
FFC0
ENDCHAR
STARTCHAR uni0402
ENCODING 1026
SWIDTH 600 0
DWIDTH 12 0
BBX 12 15 0 0
BITMAP
FFE0
FFE0
1C00
1C00
1C00
1C00
1F80
1FE0
1CE0
1C60
1C70
1C60
1CE0
1DE0
1D80
ENDCHAR
STARTCHAR uni0403
ENCODING 1027
SWIDTH 600 0
DWIDTH 12 0
BBX 10 18 1 0
BITMAP
0780
0E00
0000
FFC0
FFC0
E000
E000
E000
E000
E000
E000
E000
E000
E000
E000
E000
E000
E000
ENDCHAR
STARTCHAR uni0404
ENCODING 1028
SWIDTH 600 0
DWIDTH 12 0
BBX 10 15 1 0
BITMAP
1F00
7F80
73C0
E1C0
E1C0
E000
E000
FE00
FE00
E000
E0C0
E1C0
73C0
7F80
1F00
ENDCHAR
STARTCHAR uni0405
ENCODING 1029
SWIDTH 600 0
DWIDTH 12 0
BBX 10 15 1 0
BITMAP
1F00
7F80
71C0
E1C0
E0C0
7000
7E00
3F80
07C0
01C0
E0C0
E0C0
F1C0
7F80
1F00
ENDCHAR
STARTCHAR uni0406
ENCODING 1030
SWIDTH 600 0
DWIDTH 12 0
BBX 8 15 2 0
BITMAP
FF
FF
18
18
18
18
18
18
18
18
18
18
18
FF
FF
ENDCHAR
STARTCHAR uni0407
ENCODING 1031
SWIDTH 600 0
DWIDTH 12 0
BBX 8 18 2 0
BITMAP
E6
E6
00
FF
FF
18
18
18
18
18
18
18
18
18
18
18
FF
FF
ENDCHAR
STARTCHAR uni0408
ENCODING 1032
SWIDTH 600 0
DWIDTH 12 0
BBX 10 15 1 0
BITMAP
01C0
01C0
01C0
01C0
01C0
01C0
01C0
01C0
01C0
01C0
E1C0
E1C0
F380
7F80
3E00
ENDCHAR
STARTCHAR uni0409
ENCODING 1033
SWIDTH 600 0
DWIDTH 12 0
BBX 12 15 0 0
BITMAP
3F00
3F00
3700
3700
3700
3700
37C0
37E0
3760
3760
3770
3760
7760
E7E0
C7C0
ENDCHAR
STARTCHAR uni040A
ENCODING 1034
SWIDTH 600 0
DWIDTH 12 0
BBX 10 15 1 0
BITMAP
CC00
CC00
CC00
CC00
CC00
CC00
CF80
FFC0
FDC0
CCC0
CCC0
CCC0
CDC0
CF80
CF00
ENDCHAR
STARTCHAR uni040B
ENCODING 1035
SWIDTH 600 0
DWIDTH 12 0
BBX 11 15 0 0
BITMAP
FFC0
FFC0
1C00
1C00
1C00
1C00
1F80
1FC0
1DC0
1CE0
1CE0
1CE0
1CE0
1CE0
1CE0
ENDCHAR
STARTCHAR uni040C
ENCODING 1036
SWIDTH 600 0
DWIDTH 12 0
BBX 11 18 1 0
BITMAP
0700
0E00
0000
E1E0
E1C0
E380
E780
E700
EE00
FC00
FE00
FE00
F700
E780
E380
E1C0
E1C0
E0E0
ENDCHAR
STARTCHAR uni040D
ENCODING 1037
SWIDTH 600 0
DWIDTH 12 0
BBX 10 18 1 0
BITMAP
7800
1C00
0000
E1C0
E3C0
E3C0
E7C0
E7C0
E7C0
EDC0
EDC0
FDC0
F9C0
F9C0
F1C0
F1C0
E1C0
E1C0
ENDCHAR
STARTCHAR uni040E
ENCODING 1038
SWIDTH 600 0
DWIDTH 12 0
BBX 12 19 0 0
BITMAP
18C0
0F80
0700
0000
E070
7060
70E0
30E0
39C0
19C0
1D80
1F80
0F00
0F00
0700
0600
0E00
7C00
7800
ENDCHAR
STARTCHAR uni040F
ENCODING 1039
SWIDTH 600 0
DWIDTH 12 0
BBX 10 18 1 -3
BITMAP
E1C0
E1C0
E1C0
E1C0
E1C0
E1C0
E1C0
E1C0
E1C0
E1C0
E1C0
E1C0
E1C0
FFC0
FFC0
0C00
0C00
0C00
ENDCHAR
STARTCHAR uni0410
ENCODING 1040
SWIDTH 600 0
DWIDTH 12 0
BBX 12 15 0 0
BITMAP
0700
0F00
0F00
0F00
0F80
1D80
1D80
19C0
39C0
38C0
3FE0
7FE0
70E0
7070
E070
ENDCHAR
STARTCHAR uni0411
ENCODING 1041
SWIDTH 600 0
DWIDTH 12 0
BBX 10 15 1 0
BITMAP
FF80
FF80
E000
E000
E000
E000
FF00
FF80
E3C0
E1C0
E1C0
E1C0
E380
FF80
FE00
ENDCHAR
STARTCHAR uni0412
ENCODING 1042
SWIDTH 600 0
DWIDTH 12 0
BBX 11 15 1 0
BITMAP
FF00
FF80
E3C0
E1C0
E1C0
E1C0
E3C0
FF80
FFC0
E1C0
E0E0
E0C0
E1C0
FFC0
FF00
ENDCHAR
STARTCHAR uni0413
ENCODING 1043
SWIDTH 600 0
DWIDTH 12 0
BBX 10 15 1 0
BITMAP
FFC0
FFC0
E000
E000
E000
E000
E000
E000
E000
E000
E000
E000
E000
E000
E000
ENDCHAR
STARTCHAR uni0414
ENCODING 1044
SWIDTH 600 0
DWIDTH 12 0
BBX 11 19 0 -4
BITMAP
1FC0
1FC0
1CC0
1CC0
1CC0
1CC0
1CC0
1CC0
18C0
18C0
38C0
38C0
78C0
FFE0
7FE0
6060
6060
6060
6060
ENDCHAR
STARTCHAR uni0415
ENCODING 1045
SWIDTH 600 0
DWIDTH 12 0
BBX 10 15 1 0
BITMAP
FFC0
FFC0
E000
E000
E000
E000
E000
FF80
FF80
E000
E000
E000
E000
FFC0
FFC0
ENDCHAR
STARTCHAR uni0416
ENCODING 1046
SWIDTH 600 0
DWIDTH 12 0
BBX 12 15 0 0
BITMAP
E670
6660
66E0
76E0
76C0
36C0
36C0
3FC0
3FC0
36C0
76E0
76E0
66E0
E660
E670
ENDCHAR
STARTCHAR uni0417
ENCODING 1047
SWIDTH 600 0
DWIDTH 12 0
BBX 10 15 1 0
BITMAP
3F00
7F80
F3C0
E1C0
01C0
01C0
1F80
1F80
01C0
00C0
00C0
E1C0
F3C0
7F80
3F00
ENDCHAR
STARTCHAR uni0418
ENCODING 1048
SWIDTH 600 0
DWIDTH 12 0
BBX 10 15 1 0
BITMAP
E1C0
E3C0
E3C0
E7C0
E7C0
E7C0
EDC0
EDC0
FDC0
F9C0
F9C0
F1C0
F1C0
E1C0
E1C0
ENDCHAR
STARTCHAR uni0419
ENCODING 1049
SWIDTH 600 0
DWIDTH 12 0
BBX 10 19 1 0
BITMAP
7300
3F00
1E00
0000
E1C0
E3C0
E3C0
E7C0
E7C0
E7C0
EDC0
EDC0
FDC0
F9C0
F9C0
F1C0
F1C0
E1C0
E1C0
ENDCHAR
STARTCHAR uni041A
ENCODING 1050
SWIDTH 600 0
DWIDTH 12 0
BBX 11 15 1 0
BITMAP
E1E0
E1C0
E380
E380
E700
E700
EE00
FE00
FE00
E700
E700
E380
E3C0
E1C0
E1E0
ENDCHAR
STARTCHAR uni041B
ENCODING 1051
SWIDTH 600 0
DWIDTH 12 0
BBX 11 15 0 0
BITMAP
3FE0
3FE0
38E0
38E0
38E0
38E0
38E0
38E0
38E0
38E0
38E0
38E0
70E0
F0E0
E0E0
ENDCHAR
STARTCHAR uni041C
ENCODING 1052
SWIDTH 600 0
DWIDTH 12 0
BBX 10 15 1 0
BITMAP
F3C0
F3C0
F3C0
F3C0
FEC0
FEC0
FFC0
EDC0
EDC0
EDC0
E1C0
E1C0
E1C0
E1C0
E1C0
ENDCHAR
STARTCHAR uni041D
ENCODING 1053
SWIDTH 600 0
DWIDTH 12 0
BBX 10 15 1 0
BITMAP
E1C0
E1C0
E1C0
E1C0
E1C0
E1C0
E1C0
FFC0
FFC0
E1C0
E1C0
E1C0
E1C0
E1C0
E1C0
ENDCHAR
STARTCHAR uni041E
ENCODING 1054
SWIDTH 600 0
DWIDTH 12 0
BBX 10 15 1 0
BITMAP
1E00
7F80
7380
E1C0
E1C0
E1C0
E1C0
E1C0
E1C0
E1C0
E1C0
E1C0
7380
7F80
1E00
ENDCHAR
STARTCHAR uni041F
ENCODING 1055
SWIDTH 600 0
DWIDTH 12 0
BBX 10 15 1 0
BITMAP
FFC0
FFC0
E1C0
E1C0
E1C0
E1C0
E1C0
E1C0
E1C0
E1C0
E1C0
E1C0
E1C0
E1C0
E1C0
ENDCHAR
STARTCHAR uni0420
ENCODING 1056
SWIDTH 600 0
DWIDTH 12 0
BBX 10 15 1 0
BITMAP
FF00
FF80
E3C0
E1C0
E0C0
E0C0
E1C0
E3C0
FF80
FF00
E000
E000
E000
E000
E000
ENDCHAR
STARTCHAR uni0421
ENCODING 1057
SWIDTH 600 0
DWIDTH 12 0
BBX 10 15 1 0
BITMAP
1F00
7F80
73C0
E1C0
E1C0
E000
E000
E000
E000
E000
E1C0
E1C0
73C0
7F80
1E00
ENDCHAR
STARTCHAR uni0422
ENCODING 1058
SWIDTH 600 0
DWIDTH 12 0
BBX 12 15 0 0
BITMAP
FFF0
FFF0
0600
0600
0600
0600
0600
0600
0600
0600
0600
0600
0600
0600
0600
ENDCHAR
STARTCHAR uni0423
ENCODING 1059
SWIDTH 600 0
DWIDTH 12 0
BBX 12 15 0 0
BITMAP
E070
7060
70E0
30E0
39C0
19C0
1D80
1F80
0F00
0F00
0700
0600
0E00
7C00
7800
ENDCHAR
STARTCHAR uni0424
ENCODING 1060
SWIDTH 600 0
DWIDTH 12 0
BBX 11 15 1 0
BITMAP
0E00
0E00
3F00
7FC0
FFE0
EEE0
CE60
CE60
CE60
EEE0
FFE0
7FC0
3F80
0E00
0E00
ENDCHAR
STARTCHAR uni0425
ENCODING 1061
SWIDTH 600 0
DWIDTH 12 0
BBX 12 15 0 0
BITMAP
F0F0
70E0
39E0
39C0
1F80
1F80
0F00
0F00
0F00
1F80
1D80
39C0
38E0
70E0
F0F0
ENDCHAR
STARTCHAR uni0426
ENCODING 1062
SWIDTH 600 0
DWIDTH 12 0
BBX 11 19 1 -4
BITMAP
E180
E180
E180
E180
E180
E180
E180
E180
E180
E180
E180
E180
E180
FFE0
FFE0
0060
0060
0060
0060
ENDCHAR
STARTCHAR uni0427
ENCODING 1063
SWIDTH 600 0
DWIDTH 12 0
BBX 9 15 2 0
BITMAP
C380
C380
C380
C380
C380
C380
C380
E380
7F80
3F80
0380
0380
0380
0380
0380
ENDCHAR
STARTCHAR uni0428
ENCODING 1064
SWIDTH 600 0
DWIDTH 12 0
BBX 10 15 1 0
BITMAP
CCC0
CCC0
CCC0
CCC0
CCC0
CCC0
CCC0
CCC0
CCC0
CCC0
CCC0
CCC0
CCC0
FFC0
FFC0
ENDCHAR
STARTCHAR uni0429
ENCODING 1065
SWIDTH 600 0
DWIDTH 12 0
BBX 12 19 1 -4
BITMAP
CCC0
CCC0
CCC0
CCC0
CCC0
CCC0
CCC0
CCC0
CCC0
CCC0
CCC0
CCC0
CCC0
FFF0
FFF0
0070
0070
0070
0070
ENDCHAR
STARTCHAR uni042A
ENCODING 1066
SWIDTH 600 0
DWIDTH 12 0
BBX 11 15 0 0
BITMAP
FC00
FC00
1C00
1C00
1C00
1C00
1F80
1FC0
1CE0
1CE0
1C60
1CE0
1CE0
1FC0
1F80
ENDCHAR
STARTCHAR uni042B
ENCODING 1067
SWIDTH 600 0
DWIDTH 12 0
BBX 10 15 1 0
BITMAP
C1C0
C1C0
C1C0
C1C0
C1C0
C1C0
F9C0
FDC0
CDC0
CFC0
CFC0
CFC0
CDC0
FDC0
F9C0
ENDCHAR
STARTCHAR uni042C
ENCODING 1068
SWIDTH 600 0
DWIDTH 12 0
BBX 10 15 1 0
BITMAP
E000
E000
E000
E000
E000
E000
FF00
FF80
E3C0
E1C0
E1C0
E1C0
E380
FF80
FE00
ENDCHAR
STARTCHAR uni042D
ENCODING 1069
SWIDTH 600 0
DWIDTH 12 0
BBX 11 15 0 0
BITMAP
1F00
3F80
73C0
61C0
E0C0
00E0
00E0
0FE0
0FE0
00E0
E0C0
E1C0
71C0
7F80
1F00
ENDCHAR
STARTCHAR uni042E
ENCODING 1070
SWIDTH 600 0
DWIDTH 12 0
BBX 10 15 1 0
BITMAP
C700
CF80
DDC0
DDC0
DCC0
DCC0
DCC0
FCC0
FCC0
DCC0
DCC0
DDC0
DDC0
CF80
C700
ENDCHAR
STARTCHAR uni042F
ENCODING 1071
SWIDTH 600 0
DWIDTH 12 0
BBX 10 15 0 0
BITMAP
1FC0
7FC0
71C0
E1C0
E1C0
E1C0
71C0
3FC0
1FC0
39C0
39C0
71C0
71C0
E1C0
E1C0
ENDCHAR
STARTCHAR uni0430
ENCODING 1072
SWIDTH 600 0
DWIDTH 12 0
BBX 10 11 1 0
BITMAP
3E00
7F80
E380
0180
3F80
7F80
F180
E180
E380
7F80
3DC0
ENDCHAR
STARTCHAR uni0431
ENCODING 1073
SWIDTH 600 0
DWIDTH 12 0
BBX 10 16 1 0
BITMAP
0180
0380
1F80
3E00
7000
6000
7F00
FF80
F1C0
E1C0
E1C0
E1C0
E1C0
7380
7F80
1E00
ENDCHAR
STARTCHAR uni0432
ENCODING 1074
SWIDTH 600 0
DWIDTH 12 0
BBX 10 11 1 0
BITMAP
FE00
FF80
E380
E380
E380
FF00
FF80
E1C0
E1C0
FF80
FF00
ENDCHAR
STARTCHAR uni0433
ENCODING 1075
SWIDTH 600 0
DWIDTH 12 0
BBX 9 11 1 0
BITMAP
FF80
FF80
E000
E000
E000
E000
E000
E000
E000
E000
E000
ENDCHAR
STARTCHAR uni0434
ENCODING 1076
SWIDTH 600 0
DWIDTH 12 0
BBX 12 14 0 -3
BITMAP
1FE0
1FE0
1CE0
1CE0
1CE0
1CE0
18E0
18E0
38E0
FFF0
FFF0
E070
E070
6070
ENDCHAR
STARTCHAR uni0435
ENCODING 1077
SWIDTH 600 0
DWIDTH 12 0
BBX 10 11 1 0
BITMAP
1F00
3F80
7380
E1C0
FFC0
FFC0
E000
E000
7180
3FC0
1F00
ENDCHAR
STARTCHAR uni0436
ENCODING 1078
SWIDTH 600 0
DWIDTH 12 0
BBX 12 11 0 0
BITMAP
E660
76E0
76E0
36C0
36C0
3F80
3FC0
36C0
76E0
66E0
E670
ENDCHAR
STARTCHAR uni0437
ENCODING 1079
SWIDTH 600 0
DWIDTH 12 0
BBX 10 11 1 0
BITMAP
3F00
7F80
E1C0
01C0
1F80
1F80
01C0
01C0
F3C0
7F80
3F00
ENDCHAR
STARTCHAR uni0438
ENCODING 1080
SWIDTH 600 0
DWIDTH 12 0
BBX 10 11 1 0
BITMAP
E1C0
E3C0
E7C0
E7C0
EFC0
EDC0
F9C0
F9C0
F1C0
F1C0
E1C0
ENDCHAR
STARTCHAR uni0439
ENCODING 1081
SWIDTH 600 0
DWIDTH 12 0
BBX 10 16 1 0
BITMAP
7300
3F00
1E00
0000
0000
E1C0
E3C0
E7C0
E7C0
EFC0
EDC0
F9C0
F9C0
F1C0
F1C0
E1C0
ENDCHAR
STARTCHAR uni043A
ENCODING 1082
SWIDTH 600 0
DWIDTH 12 0
BBX 11 11 1 0
BITMAP
E1E0
E3C0
E380
E700
E700
FE00
FE00
E700
E380
E3C0
E1E0
ENDCHAR
STARTCHAR uni043B
ENCODING 1083
SWIDTH 600 0
DWIDTH 12 0
BBX 11 11 0 0
BITMAP
3FE0
3FE0
38E0
38E0
38E0
38E0
38E0
38E0
30E0
F0E0
E0E0
ENDCHAR
STARTCHAR uni043C
ENCODING 1084
SWIDTH 600 0
DWIDTH 12 0
BBX 10 11 1 0
BITMAP
F3C0
F3C0
F3C0
F3C0
F3C0
FFC0
FFC0
FFC0
FDC0
EDC0
EDC0
ENDCHAR
STARTCHAR uni043D
ENCODING 1085
SWIDTH 600 0
DWIDTH 12 0
BBX 10 11 1 0
BITMAP
E1C0
E1C0
E1C0
E1C0
E1C0
FFC0
FFC0
E1C0
E1C0
E1C0
E1C0
ENDCHAR
STARTCHAR uni043E
ENCODING 1086
SWIDTH 600 0
DWIDTH 12 0
BBX 10 11 1 0
BITMAP
1E00
7F80
7380
E1C0
E1C0
E1C0
E1C0
E1C0
7380
7F80
1E00
ENDCHAR
STARTCHAR uni043F
ENCODING 1087
SWIDTH 600 0
DWIDTH 12 0
BBX 10 11 1 0
BITMAP
FFC0
FFC0
E1C0
E1C0
E1C0
E1C0
E1C0
E1C0
E1C0
E1C0
E1C0
ENDCHAR
STARTCHAR uni0440
ENCODING 1088
SWIDTH 600 0
DWIDTH 12 0
BBX 10 15 1 -4
BITMAP
EF00
FF80
F380
E1C0
E1C0
E1C0
E1C0
E1C0
F380
FF80
EF00
E000
E000
E000
E000
ENDCHAR
STARTCHAR uni0441
ENCODING 1089
SWIDTH 600 0
DWIDTH 12 0
BBX 10 11 1 0
BITMAP
1E00
7F80
7380
E1C0
E000
E000
E000
E1C0
7380
7F80
1E00
ENDCHAR
STARTCHAR uni0442
ENCODING 1090
SWIDTH 600 0
DWIDTH 12 0
BBX 11 11 1 0
BITMAP
FFE0
FFE0
0E00
0E00
0E00
0E00
0E00
0E00
0E00
0E00
0E00
ENDCHAR
STARTCHAR uni0443
ENCODING 1091
SWIDTH 600 0
DWIDTH 12 0
BBX 11 15 1 -4
BITMAP
E0E0
E1C0
61C0
7180
7380
3B80
3B00
1F00
1E00
0E00
0C00
1C00
3C00
7800
7000
ENDCHAR
STARTCHAR uni0444
ENCODING 1092
SWIDTH 600 0
DWIDTH 12 0
BBX 10 19 1 -4
BITMAP
0C00
0C00
0C00
0C00
0C00
7F80
FFC0
EDC0
CCC0
CCC0
CCC0
CCC0
EDC0
7F80
3F00
0C00
0C00
0C00
0C00
ENDCHAR
STARTCHAR uni0445
ENCODING 1093
SWIDTH 600 0
DWIDTH 12 0
BBX 11 11 1 0
BITMAP
E1C0
7380
3B80
3F00
1F00
0E00
1F00
3F00
3380
71C0
E1E0
ENDCHAR
STARTCHAR uni0446
ENCODING 1094
SWIDTH 600 0
DWIDTH 12 0
BBX 11 14 1 -3
BITMAP
E180
E180
E180
E180
E180
E180
E180
E180
E180
FFE0
FFE0
00E0
00E0
00E0
ENDCHAR
STARTCHAR uni0447
ENCODING 1095
SWIDTH 600 0
DWIDTH 12 0
BBX 10 11 1 0
BITMAP
E1C0
E1C0
E1C0
E1C0
E1C0
71C0
7FC0
3FC0
01C0
01C0
01C0
ENDCHAR
STARTCHAR uni0448
ENCODING 1096
SWIDTH 600 0
DWIDTH 12 0
BBX 10 11 1 0
BITMAP
CCC0
CCC0
CCC0
CCC0
CCC0
CCC0
CCC0
CCC0
CCC0
FFC0
FFC0
ENDCHAR
STARTCHAR uni0449
ENCODING 1097
SWIDTH 600 0
DWIDTH 12 0
BBX 11 14 1 -3
BITMAP
CCC0
CCC0
CCC0
CCC0
CCC0
CCC0
CCC0
CCC0
CCC0
FFE0
FFE0
0060
0060
0060
ENDCHAR
STARTCHAR uni044A
ENCODING 1098
SWIDTH 600 0
DWIDTH 12 0
BBX 11 11 1 0
BITMAP
F800
F800
3800
3800
3F80
3FC0
39C0
38E0
39C0
3FC0
3F80
ENDCHAR
STARTCHAR uni044B
ENCODING 1099
SWIDTH 600 0
DWIDTH 12 0
BBX 10 11 1 0
BITMAP
E1C0
E1C0
E1C0
E1C0
F9C0
FDC0
EFC0
EFC0
EFC0
FDC0
F9C0
ENDCHAR
STARTCHAR uni044C
ENCODING 1100
SWIDTH 600 0
DWIDTH 12 0
BBX 10 11 1 0
BITMAP
E000
E000
E000
E000
FF80
FFC0
E1C0
E1C0
E1C0
FFC0
FF00
ENDCHAR
STARTCHAR uni044D
ENCODING 1101
SWIDTH 600 0
DWIDTH 12 0
BBX 10 11 1 0
BITMAP
3E00
7F80
E380
01C0
0FC0
0FC0
01C0
E1C0
F380
7F80
3E00
ENDCHAR
STARTCHAR uni044E
ENCODING 1102
SWIDTH 600 0
DWIDTH 12 0
BBX 11 11 1 0
BITMAP
C780
CFC0
CDC0
DCC0
DCE0
FCE0
FCE0
DCC0
DDC0
CFC0
C780
ENDCHAR
STARTCHAR uni044F
ENCODING 1103
SWIDTH 600 0
DWIDTH 12 0
BBX 10 11 1 0
BITMAP
3FC0
7FC0
F1C0
E1C0
E1C0
7FC0
3FC0
31C0
71C0
61C0
E1C0
ENDCHAR
STARTCHAR uni0450
ENCODING 1104
SWIDTH 600 0
DWIDTH 12 0
BBX 10 15 1 0
BITMAP
7800
1C00
0000
0000
1F00
3F80
7380
E1C0
FFC0
FFC0
E000
E000
7180
3FC0
1F00
ENDCHAR
STARTCHAR uni0451
ENCODING 1105
SWIDTH 600 0
DWIDTH 12 0
BBX 10 15 1 0
BITMAP
7300
7380
0000
0000
1F00
3F80
7380
E1C0
FFC0
FFC0
E000
E000
7180
3FC0
1F00
ENDCHAR
STARTCHAR uni0452
ENCODING 1106
SWIDTH 600 0
DWIDTH 12 0
BBX 11 19 0 -4
BITMAP
7000
FC00
FC00
7000
7780
7FC0
79E0
70E0
70E0
70E0
70E0
70E0
70E0
70E0
70E0
00E0
00E0
03C0
0380
ENDCHAR
STARTCHAR uni0453
ENCODING 1107
SWIDTH 600 0
DWIDTH 12 0
BBX 9 15 1 0
BITMAP
0780
0E00
0000
0000
FF80
FF80
E000
E000
E000
E000
E000
E000
E000
E000
E000
ENDCHAR
STARTCHAR uni0454
ENCODING 1108
SWIDTH 600 0
DWIDTH 12 0
BBX 9 11 1 0
BITMAP
1E00
7F80
7380
E180
E000
FC00
FC00
E000
7380
7F80
1E00
ENDCHAR
STARTCHAR uni0455
ENCODING 1109
SWIDTH 600 0
DWIDTH 12 0
BBX 10 11 1 0
BITMAP
1F00
7F80
73C0
61C0
7000
3F00
0380
E1C0
F1C0
7F80
1F00
ENDCHAR
STARTCHAR uni0456
ENCODING 1110
SWIDTH 600 0
DWIDTH 12 0
BBX 9 15 2 0
BITMAP
1C00
1C00
1C00
0000
FC00
FC00
1C00
1C00
1C00
1C00
1C00
1C00
1C00
FF80
FF80
ENDCHAR
STARTCHAR uni0457
ENCODING 1111
SWIDTH 600 0
DWIDTH 12 0
BBX 9 15 2 0
BITMAP
6300
6700
0000
0000
FC00
FC00
1C00
1C00
1C00
1C00
1C00
1C00
1C00
FF80
FF80
ENDCHAR
STARTCHAR uni0458
ENCODING 1112
SWIDTH 600 0
DWIDTH 12 0
BBX 7 19 2 -4
BITMAP
0C
1E
0C
00
7C
7C
0C
0C
0C
0C
0C
0C
0C
0C
0C
0C
1C
FC
F8
ENDCHAR
STARTCHAR uni0459
ENCODING 1113
SWIDTH 600 0
DWIDTH 12 0
BBX 12 11 0 0
BITMAP
3F00
3F00
3700
3700
37E0
37F0
3770
3770
7770
E7E0
C7C0
ENDCHAR
STARTCHAR uni045A
ENCODING 1114
SWIDTH 600 0
DWIDTH 12 0
BBX 11 11 1 0
BITMAP
EE00
EE00
EE00
EE00
FF80
FFC0
EEC0
EEE0
EFC0
EFC0
EF80
ENDCHAR
STARTCHAR uni045B
ENCODING 1115
SWIDTH 600 0
DWIDTH 12 0
BBX 11 15 0 0
BITMAP
7000
FE00
FE00
7000
7780
7FC0
79E0
70E0
70E0
70E0
70E0
70E0
70E0
70E0
70E0
ENDCHAR
STARTCHAR uni045C
ENCODING 1116
SWIDTH 600 0
DWIDTH 12 0
BBX 11 15 1 0
BITMAP
0700
0C00
1000
0000
E1E0
E3C0
E380
E700
E700
FE00
FE00
E700
E380
E3C0
E1E0
ENDCHAR
STARTCHAR uni045D
ENCODING 1117
SWIDTH 600 0
DWIDTH 12 0
BBX 10 15 1 0
BITMAP
7800
1C00
0000
0000
E1C0
E3C0
E7C0
E7C0
EFC0
EDC0
F9C0
F9C0
F1C0
F1C0
E1C0
ENDCHAR
STARTCHAR uni045E
ENCODING 1118
SWIDTH 600 0
DWIDTH 12 0
BBX 11 20 1 -4
BITMAP
3180
3F00
1E00
0000
0000
E0E0
E1C0
61C0
7180
7380
3B80
3B00
1F00
1E00
0E00
0C00
1C00
3C00
7800
7000
ENDCHAR
STARTCHAR uni045F
ENCODING 1119
SWIDTH 600 0
DWIDTH 12 0
BBX 10 14 1 -3
BITMAP
E1C0
E1C0
E1C0
E1C0
E1C0
E1C0
E1C0
E1C0
E1C0
FFC0
FFC0
0C00
0C00
0C00
ENDCHAR
STARTCHAR uni0460
ENCODING 1120
SWIDTH 600 0
DWIDTH 12 0
BBX 11 15 1 0
BITMAP
CCE0
CCE0
CCE0
CCE0
CCE0
CCE0
CCE0
CCE0
CCE0
CCE0
CCE0
CCE0
EEC0
FFC0
7B80
ENDCHAR
STARTCHAR uni0461
ENCODING 1121
SWIDTH 600 0
DWIDTH 12 0
BBX 10 11 1 0
BITMAP
CCC0
CCC0
CCC0
CCC0
CCC0
CCC0
CCC0
CCC0
DEC0
FFC0
7380
ENDCHAR
STARTCHAR uni0462
ENCODING 1122
SWIDTH 600 0
DWIDTH 12 0
BBX 11 15 0 0
BITMAP
7000
7000
FC00
FC00
7000
7000
7F80
7FC0
71E0
70E0
70E0
70E0
71C0
7FC0
7F00
ENDCHAR
STARTCHAR uni0463
ENCODING 1123
SWIDTH 600 0
DWIDTH 12 0
BBX 11 16 0 0
BITMAP
3800
3800
3800
FE00
FE00
3800
3800
3800
3800
3F80
3FE0
38E0
38E0
38E0
3FE0
3F80
ENDCHAR
STARTCHAR uni0464
ENCODING 1124
SWIDTH 600 0
DWIDTH 12 0
BBX 11 15 1 0
BITMAP
C780
CFC0
CCC0
DCE0
DCE0
DC00
FF00
FF00
DC00
DC00
DCE0
DCE0
CCC0
CFC0
C780
ENDCHAR
STARTCHAR uni0465
ENCODING 1125
SWIDTH 600 0
DWIDTH 12 0
BBX 11 11 1 0
BITMAP
C780
CFC0
CCC0
DC20
FF00
FF00
DC00
DCE0
CEC0
CFC0
C780
ENDCHAR
STARTCHAR uni0466
ENCODING 1126
SWIDTH 600 0
DWIDTH 12 0
BBX 13 15 0 0
BITMAP
0700
0F00
0F80
0F80
0F80
1D80
1DC0
19C0
38C0
3FE0
3FE0
7660
7670
6670
E638
ENDCHAR
STARTCHAR uni0467
ENCODING 1127
SWIDTH 600 0
DWIDTH 12 0
BBX 11 11 1 0
BITMAP
0E00
1E00
1F00
1F00
3B00
3380
7F80
7F80
6DC0
ECC0
ECE0
ENDCHAR
STARTCHAR uni0468
ENCODING 1128
SWIDTH 600 0
DWIDTH 12 0
BBX 11 15 1 0
BITMAP
C300
C700
C700
C780
C780
C580
CD80
CD80
CDC0
FFC0
FFC0
DAC0
DAC0
DAE0
FA60
ENDCHAR
STARTCHAR uni0469
ENCODING 1129
SWIDTH 600 0
DWIDTH 12 0
BBX 11 11 1 0
BITMAP
C300
C700
C780
C780
CD80
CD80
FFC0
FFC0
DBC0
DBC0
FB60
ENDCHAR
STARTCHAR uni046A
ENCODING 1130
SWIDTH 600 0
DWIDTH 12 0
BBX 12 15 0 0
BITMAP
7FE0
3FE0
39C0
39C0
1D80
1F80
0F80
3FC0
7FE0
7770
E770
E770
E770
E770
E770
ENDCHAR
STARTCHAR uni046B
ENCODING 1131
SWIDTH 600 0
DWIDTH 12 0
BBX 10 11 1 0
BITMAP
FFC0
7F80
7380
3300
3F00
7F80
FFC0
EDC0
CDC0
CDC0
CDC0
ENDCHAR
STARTCHAR uni046C
ENCODING 1132
SWIDTH 600 0
DWIDTH 12 0
BBX 11 15 1 0
BITMAP
DFE0
DFC0
CCC0
CDC0
CF80
C780
C780
FFC0
FFE0
DB60
FB60
FB60
DB60
DB60
DB60
ENDCHAR
STARTCHAR uni046D
ENCODING 1133
SWIDTH 600 0
DWIDTH 12 0
BBX 11 11 1 0
BITMAP
DFE0
CFC0
CCC0
C780
C780
FFC0
FFE0
DB60
DB60
DB60
DB60
ENDCHAR
STARTCHAR uni046E
ENCODING 1134
SWIDTH 600 0
DWIDTH 12 0
BBX 9 23 1 -4
BITMAP
E700
3C00
1800
0000
7E00
7F00
0780
0380
0380
0380
1F00
1F00
0380
0180
0180
0180
0380
7F00
7E00
E000
6000
7000
3000
ENDCHAR
STARTCHAR uni046F
ENCODING 1135
SWIDTH 600 0
DWIDTH 12 0
BBX 8 20 2 -4
BITMAP
C6
6E
3C
18
00
7C
7F
07
07
3E
3E
07
03
07
7F
FC
C0
C0
E0
60
ENDCHAR
STARTCHAR uni0470
ENCODING 1136
SWIDTH 600 0
DWIDTH 12 0
BBX 11 15 1 0
BITMAP
CEE0
CEE0
CEE0
CEE0
CEE0
CEE0
CEE0
EEE0
EEE0
7FC0
3F80
0E00
0E00
0E00
0E00
ENDCHAR
STARTCHAR uni0471
ENCODING 1137
SWIDTH 600 0
DWIDTH 12 0
BBX 11 16 1 -5
BITMAP
CEC0
CEE0
CEE0
CEE0
CEE0
CEE0
EEE0
EEE0
EFC0
7FC0
3F80
0E00
0E00
0E00
0E00
0E00
ENDCHAR
STARTCHAR uni0472
ENCODING 1138
SWIDTH 600 0
DWIDTH 12 0
BBX 10 15 1 0
BITMAP
1E00
7F00
7380
E1C0
E1C0
E1C0
FFC0
FFC0
E1C0
E1C0
E1C0
E1C0
7380
7F80
1E00
ENDCHAR
STARTCHAR uni0473
ENCODING 1139
SWIDTH 600 0
DWIDTH 12 0
BBX 10 11 1 0
BITMAP
1E00
7F80
7380
E1C0
FFC0
FFC0
E1C0
E1C0
7380
7F80
1E00
ENDCHAR
STARTCHAR uni0474
ENCODING 1140
SWIDTH 600 0
DWIDTH 12 0
BBX 13 15 0 0
BITMAP
E038
7078
7070
7060
30E0
38C0
38C0
19C0
19C0
1D80
1D80
0F80
0F00
0F00
0700
ENDCHAR
STARTCHAR uni0475
ENCODING 1141
SWIDTH 600 0
DWIDTH 12 0
BBX 10 11 1 0
BITMAP
E0C0
E1C0
E380
6300
7700
7700
3600
3600
3E00
1C00
1C00
ENDCHAR
STARTCHAR uni0476
ENCODING 1142
SWIDTH 600 0
DWIDTH 12 0
BBX 13 19 0 0
BITMAP
7700
1B80
0400
0000
E038
7078
7070
7060
30E0
38C0
38C0
19C0
19C0
1D80
1D80
0F80
0F00
0F00
0700
ENDCHAR
STARTCHAR uni0477
ENCODING 1143
SWIDTH 600 0
DWIDTH 12 0
BBX 11 16 0 0
BITMAP
FE00
3B00
0480
0000
0000
7060
70E0
71C0
3180
3B80
3B80
1B00
1B00
1F00
0E00
0E00
ENDCHAR
STARTCHAR uni0478
ENCODING 1144
SWIDTH 600 0
DWIDTH 12 0
BBX 11 19 1 -4
BITMAP
7000
F800
D800
D800
9B60
9B60
9B40
9B40
99C0
99C0
99C0
D980
D980
F980
7180
0180
0180
0700
0700
ENDCHAR
STARTCHAR uni0479
ENCODING 1145
SWIDTH 600 0
DWIDTH 12 0
BBX 11 15 1 -4
BITMAP
7360
FB60
CF40
CF40
8DC0
8DC0
8DC0
CD80
CD80
F980
7180
0180
0180
0700
0700
ENDCHAR
STARTCHAR uni047A
ENCODING 1146
SWIDTH 600 0
DWIDTH 12 0
BBX 10 17 1 -1
BITMAP
0C00
1E00
7F80
7F80
E1C0
E1C0
E1C0
E1C0
E1C0
E1C0
E1C0
E1C0
E1C0
7F80
7F80
1E00
0C00
ENDCHAR
STARTCHAR uni047B
ENCODING 1147
SWIDTH 600 0
DWIDTH 12 0
BBX 10 13 1 -1
BITMAP
0C00
1E00
7F80
7F80
E1C0
E1C0
E1C0
E1C0
E1C0
7F80
7F80
1E00
0C00
ENDCHAR
STARTCHAR uni047C
ENCODING 1148
SWIDTH 600 0
DWIDTH 12 0
BBX 13 18 0 0
BITMAP
0F00
09C0
0200
1AC0
7EF0
7070
6030
E038
E038
E738
E738
E738
E738
E738
E738
7770
7FF0
3DE0
ENDCHAR
STARTCHAR uni047D
ENCODING 1149
SWIDTH 600 0
DWIDTH 12 0
BBX 11 15 1 0
BITMAP
1C00
2380
0400
0400
6D80
E9C0
E0C0
C0C0
C0E0
CCE0
CCE0
CCE0
CCC0
FFC0
7380
ENDCHAR
STARTCHAR uni047E
ENCODING 1150
SWIDTH 600 0
DWIDTH 12 0
BBX 11 18 1 0
BITMAP
3F80
0C00
0000
CCE0
CCE0
CCE0
CCE0
CCE0
CCE0
CCE0
CCE0
CCE0
CCE0
CCE0
CCE0
EEE0
FFC0
7B80
ENDCHAR
STARTCHAR uni047F
ENCODING 1151
SWIDTH 600 0
DWIDTH 12 0
BBX 10 15 1 0
BITMAP
3F80
0C00
0C00
0000
CCC0
CCC0
CCC0
CCC0
CCC0
CCC0
CCC0
CCC0
DEC0
FFC0
7380
ENDCHAR
STARTCHAR uni0480
ENCODING 1152
SWIDTH 600 0
DWIDTH 12 0
BBX 10 18 1 -3
BITMAP
1F00
3F80
7380
61C0
E1C0
E000
E000
E000
E000
E000
E000
7000
7E00
1E00
0600
0600
0600
0600
ENDCHAR
STARTCHAR uni0481
ENCODING 1153
SWIDTH 600 0
DWIDTH 12 0
BBX 9 15 2 -4
BITMAP
3E00
7F00
F380
E380
E000
C000
C000
E000
E000
7C00
3C00
0C00
0C00
0C00
0C00
ENDCHAR
STARTCHAR uni0482
ENCODING 1154
SWIDTH 600 0
DWIDTH 12 0
BBX 10 14 1 0
BITMAP
00C0
0080
1180
1F00
0F00
0780
06C0
8C40
E800
3800
1C00
3700
2200
6000
ENDCHAR
STARTCHAR uni0483
ENCODING 1155
SWIDTH 0 0
DWIDTH 0 0
BBX 7 3 -7 13
BITMAP
06
FE
C0
ENDCHAR
STARTCHAR uni0484
ENCODING 1156
SWIDTH 0 0
DWIDTH 0 0
BBX 8 2 -8 14
BITMAP
1E
F3
ENDCHAR
STARTCHAR uni0485
ENCODING 1157
SWIDTH 0 0
DWIDTH 0 0
BBX 2 3 -5 13
BITMAP
C0
C0
40
ENDCHAR
STARTCHAR uni0486
ENCODING 1158
SWIDTH 0 0
DWIDTH 0 0
BBX 2 3 -5 13
BITMAP
C0
C0
80
ENDCHAR
STARTCHAR uni0488
ENCODING 1160
SWIDTH 0 0
DWIDTH 0 0
BBX 19 18 -14 -3
BITMAP
00E000
00B000
000000
180380
240680
000000
000000
000000
7000E0
900120
000000
000000
000000
380380
240480
000000
00E000
009000
ENDCHAR
STARTCHAR uni0489
ENCODING 1161
SWIDTH 0 0
DWIDTH 0 0
BBX 19 19 -16 -4
BITMAP
002000
004000
004000
10C080
080300
0C0600
080000
000000
000000
F001C0
100020
000000
000000
040600
0C0200
306300
004100
004000
00C000
ENDCHAR
STARTCHAR uni048A
ENCODING 1162
SWIDTH 600 0
DWIDTH 12 0
BBX 12 23 1 -4
BITMAP
7300
3F00
1E00
0000
E1C0
E3C0
E3C0
E7C0
E7C0
E7C0
EDC0
EDC0
FDC0
F9C0
F9C0
F1C0
F1C0
E1F0
E1F0
0070
0070
0060
00E0
ENDCHAR
STARTCHAR uni048B
ENCODING 1163
SWIDTH 600 0
DWIDTH 12 0
BBX 12 20 1 -4
BITMAP
7300
3F00
1E00
0000
0000
E1C0
E3C0
E7C0
E7C0
EFC0
EDC0
F9C0
F9C0
F1C0
F1F0
E1F0
0070
0070
0060
00E0
ENDCHAR
STARTCHAR uni048C
ENCODING 1164
SWIDTH 600 0
DWIDTH 12 0
BBX 11 15 0 0
BITMAP
7000
7000
FC00
FC00
7000
7000
7F80
7FC0
71E0
70E0
70E0
70E0
71C0
7FC0
7F00
ENDCHAR
STARTCHAR uni048D
ENCODING 1165
SWIDTH 600 0
DWIDTH 12 0
BBX 11 11 0 0
BITMAP
7000
FE00
FE00
7000
7FC0
7FE0
70E0
70E0
70E0
7FE0
7F80
ENDCHAR
STARTCHAR uni048E
ENCODING 1166
SWIDTH 600 0
DWIDTH 12 0
BBX 10 15 1 0
BITMAP
FF00
FF80
E3C0
E1C0
E0C0
ECC0
E7C0
E3C0
FF80
FF80
E0C0
E080
E000
E000
E000
ENDCHAR
STARTCHAR uni048F
ENCODING 1167
SWIDTH 600 0
DWIDTH 12 0
BBX 10 15 1 -4
BITMAP
EF00
FF80
F380
E1C0
E1C0
E1C0
E5C0
E7C0
F380
FF80
EFC0
E080
E000
E000
E000
ENDCHAR
STARTCHAR uni0490
ENCODING 1168
SWIDTH 600 0
DWIDTH 12 0
BBX 10 18 1 0
BITMAP
01C0
01C0
01C0
FFC0
FFC0
E000
E000
E000
E000
E000
E000
E000
E000
E000
E000
E000
E000
E000
ENDCHAR
STARTCHAR uni0491
ENCODING 1169
SWIDTH 600 0
DWIDTH 12 0
BBX 10 14 1 0
BITMAP
01C0
01C0
01C0
FFC0
FFC0
E000
E000
E000
E000
E000
E000
E000
E000
E000
ENDCHAR
STARTCHAR uni0492
ENCODING 1170
SWIDTH 600 0
DWIDTH 12 0
BBX 11 15 0 0
BITMAP
7FE0
7FE0
7000
7000
7000
7000
FE00
FE00
7000
7000
7000
7000
7000
7000
7000
ENDCHAR
STARTCHAR uni0493
ENCODING 1171
SWIDTH 600 0
DWIDTH 12 0
BBX 10 11 0 0
BITMAP
7FC0
7FC0
7000
7000
7000
FC00
FC00
7000
7000
7000
7000
ENDCHAR
STARTCHAR uni0494
ENCODING 1172
SWIDTH 600 0
DWIDTH 12 0
BBX 11 18 1 -3
BITMAP
FFC0
FFC0
E000
E000
E000
E000
E000
FF00
FF80
E1C0
E0C0
E0E0
E0E0
E0E0
E0C0
01C0
0780
0700
ENDCHAR
STARTCHAR uni0495
ENCODING 1173
SWIDTH 600 0
DWIDTH 12 0
BBX 10 14 1 -3
BITMAP
FFC0
FFC0
E000
E000
E000
FF00
FF80
E1C0
E1C0
E0C0
E1C0
03C0
0380
0300
ENDCHAR
STARTCHAR uni0496
ENCODING 1174
SWIDTH 600 0
DWIDTH 12 0
BBX 13 19 0 -4
BITMAP
E670
6660
66E0
76E0
76C0
36C0
36C0
3FC0
3FC0
36C0
76E0
76E0
66E0
E678
E678
0038
0038
0038
0038
ENDCHAR
STARTCHAR uni0497
ENCODING 1175
SWIDTH 600 0
DWIDTH 12 0
BBX 13 15 0 -4
BITMAP
E660
76E0
76E0
36C0
36C0
3F80
3FC0
36C0
76E0
66F8
E678
0038
0038
0038
0038
ENDCHAR
STARTCHAR uni0498
ENCODING 1176
SWIDTH 600 0
DWIDTH 12 0
BBX 10 20 1 -5
BITMAP
3F00
7F80
F3C0
E1C0
01C0
01C0
1F80
1F80
01C0
00C0
00C0
E1C0
F3C0
7F80
3F00
0C00
0C00
0C00
0C00
0C00
ENDCHAR
STARTCHAR uni0499
ENCODING 1177
SWIDTH 600 0
DWIDTH 12 0
BBX 10 16 1 -5
BITMAP
3F00
7F80
E1C0
01C0
1F80
1F80
01C0
01C0
F3C0
7F80
3F00
0C00
0C00
0C00
0C00
0C00
ENDCHAR
STARTCHAR uni049A
ENCODING 1178
SWIDTH 600 0
DWIDTH 12 0
BBX 12 19 1 -4
BITMAP
E1E0
E1C0
E380
E380
E700
E700
EE00
FE00
FE00
E700
E700
E380
E3C0
E1F0
E1F0
0070
0070
0070
0070
ENDCHAR
STARTCHAR uni049B
ENCODING 1179
SWIDTH 600 0
DWIDTH 12 0
BBX 12 15 1 -4
BITMAP
E1E0
E3C0
E380
E700
E700
FE00
FE00
E700
E380
E3F0
E1F0
0070
0070
0070
0070
ENDCHAR
STARTCHAR uni049C
ENCODING 1180
SWIDTH 600 0
DWIDTH 12 0
BBX 12 15 1 0
BITMAP
E0E0
E1E0
E1C0
E1C0
EB80
EB80
EB80
FF00
FF80
EB80
EBC0
E1C0
E1E0
E0E0
E0F0
ENDCHAR
STARTCHAR uni049D
ENCODING 1181
SWIDTH 600 0
DWIDTH 12 0
BBX 11 11 1 0
BITMAP
E1E0
E1C0
E380
EB80
EB00
FF00
FF00
EB80
EB80
E1C0
E1E0
ENDCHAR
STARTCHAR uni049E
ENCODING 1182
SWIDTH 609 0
DWIDTH 12 0
BBX 12 15 0 0
BITMAP
3070
30E0
FFE0
FFC0
3380
3380
3700
3F00
3F00
3380
33C0
31C0
30E0
30E0
3070
ENDCHAR
STARTCHAR uni049F
ENCODING 1183
SWIDTH 609 0
DWIDTH 12 0
BBX 12 15 0 0
BITMAP
3000
FC00
FC00
3000
30E0
31C0
3380
3700
3E00
3F00
3F80
3380
31C0
30E0
30F0
ENDCHAR
STARTCHAR uni04A0
ENCODING 1184
SWIDTH 600 0
DWIDTH 12 0
BBX 12 15 0 0
BITMAP
FCF0
FCE0
1CE0
1DC0
1DC0
1DC0
1D80
1F80
1F80
1DC0
1DC0
1DC0
1CE0
1CE0
1C70
ENDCHAR
STARTCHAR uni04A1
ENCODING 1185
SWIDTH 600 0
DWIDTH 12 0
BBX 12 11 0 0
BITMAP
FCF0
FCE0
1DC0
1DC0
1F80
1F80
1FC0
1DC0
1DE0
1CE0
1CF0
ENDCHAR
STARTCHAR uni04A2
ENCODING 1186
SWIDTH 600 0
DWIDTH 12 0
BBX 11 19 1 -4
BITMAP
E1C0
E1C0
E1C0
E1C0
E1C0
E1C0
E1C0
FFC0
FFC0
E1C0
E1C0
E1C0
E1C0
E1E0
E1E0
0060
0060
0060
0060
ENDCHAR
STARTCHAR uni04A3
ENCODING 1187
SWIDTH 600 0
DWIDTH 12 0
BBX 11 15 1 -4
BITMAP
E1C0
E1C0
E1C0
E1C0
E1C0
FFC0
FFC0
E1C0
E1C0
E1E0
E1E0
0060
0060
0060
0060
ENDCHAR
STARTCHAR uni04A4
ENCODING 1188
SWIDTH 600 0
DWIDTH 12 0
BBX 11 15 1 0
BITMAP
C7E0
C7E0
C600
C600
C600
C600
C600
FE00
FE00
C600
C600
C600
C600
C600
C600
ENDCHAR
STARTCHAR uni04A5
ENCODING 1189
SWIDTH 600 0
DWIDTH 12 0
BBX 11 11 1 0
BITMAP
E7E0
E7E0
E700
E700
E700
FF00
FF00
E700
E700
E700
E700
ENDCHAR
STARTCHAR uni04A6
ENCODING 1190
SWIDTH 600 0
DWIDTH 12 0
BBX 12 18 0 -3
BITMAP
FE00
FE00
E600
E600
E600
E600
E600
E7C0
E7E0
E6E0
E660
E670
E670
E670
E660
00E0
01E0
01C0
ENDCHAR
STARTCHAR uni04A7
ENCODING 1191
SWIDTH 600 0
DWIDTH 12 0
BBX 11 14 1 -3
BITMAP
FC00
FC00
CC00
CC00
CF00
CFC0
CFC0
CCE0
CCE0
CCE0
CCC0
03C0
0180
0100
ENDCHAR
STARTCHAR uni04A8
ENCODING 1192
SWIDTH 600 0
DWIDTH 12 0
BBX 11 15 1 0
BITMAP
3380
77C0
EEC0
EEC0
EEE0
EEE0
EEE0
EEE0
EEE0
EEE0
EEC0
E7C0
77C0
3FE0
1FE0
ENDCHAR
STARTCHAR uni04A9
ENCODING 1193
SWIDTH 600 0
DWIDTH 12 0
BBX 11 11 1 0
BITMAP
3380
77C0
EEE0
ECE0
ECE0
ECE0
ECE0
EEE0
F7C0
7FE0
1FE0
ENDCHAR
STARTCHAR uni04AA
ENCODING 1194
SWIDTH 600 0
DWIDTH 12 0
BBX 10 20 1 -5
BITMAP
1F00
7F80
73C0
E1C0
E1C0
E000
E000
E000
E000
E000
E1C0
E1C0
73C0
7F80
1E00
0C00
0C00
0C00
0C00
0C00
ENDCHAR
STARTCHAR uni04AB
ENCODING 1195
SWIDTH 600 0
DWIDTH 12 0
BBX 10 16 1 -5
BITMAP
1E00
7F80
7380
E1C0
E000
E000
E000
E1C0
7380
7F80
1E00
0C00
0C00
0C00
0C00
0C00
ENDCHAR
STARTCHAR uni04AC
ENCODING 1196
SWIDTH 600 0
DWIDTH 12 0
BBX 12 19 0 -4
BITMAP
FFF0
FFF0
0600
0600
0600
0600
0600
0600
0600
0600
0600
0600
0600
0780
0780
0380
0380
0380
0380
ENDCHAR
STARTCHAR uni04AD
ENCODING 1197
SWIDTH 600 0
DWIDTH 12 0
BBX 11 15 1 -4
BITMAP
FFE0
FFE0
0E00
0E00
0E00
0E00
0E00
0E00
0E00
0F80
0F80
0380
0380
0380
0380
ENDCHAR
STARTCHAR uni04AE
ENCODING 1198
SWIDTH 600 0
DWIDTH 12 0
BBX 12 15 0 0
BITMAP
F070
70E0
70E0
39C0
39C0
1D80
1F80
0F80
0F00
0700
0600
0600
0600
0600
0600
ENDCHAR
STARTCHAR uni04AF
ENCODING 1199
SWIDTH 600 0
DWIDTH 12 0
BBX 12 15 0 -4
BITMAP
E070
70E0
70E0
30C0
39C0
19C0
1D80
1F80
0F00
0F00
0700
0600
0600
0600
0600
ENDCHAR
STARTCHAR uni04B0
ENCODING 1200
SWIDTH 600 0
DWIDTH 12 0
BBX 12 15 0 0
BITMAP
F070
70E0
70E0
38C0
39C0
19C0
1F80
0F80
1F80
1F80
0600
0600
0600
0600
0600
ENDCHAR
STARTCHAR uni04B1
ENCODING 1201
SWIDTH 600 0
DWIDTH 12 0
BBX 12 15 0 -4
BITMAP
E070
70E0
70E0
30C0
39C0
19C0
1980
1F80
0F00
1FC0
1FC0
0600
0600
0600
0600
ENDCHAR
STARTCHAR uni04B2
ENCODING 1202
SWIDTH 600 0
DWIDTH 12 0
BBX 12 19 0 -4
BITMAP
F0F0
70E0
39E0
39C0
1F80
1F80
0F00
0F00
0F00
1F80
1D80
39C0
38E0
70F0
F0F0
0030
0030
0030
0030
ENDCHAR
STARTCHAR uni04B3
ENCODING 1203
SWIDTH 600 0
DWIDTH 12 0
BBX 11 15 1 -4
BITMAP
E1C0
7380
3B80
3F00
1F00
0E00
1F00
3F00
3380
71E0
E1E0
00E0
00E0
00E0
00E0
ENDCHAR
STARTCHAR uni04B4
ENCODING 1204
SWIDTH 600 0
DWIDTH 12 0
BBX 12 19 0 -4
BITMAP
FEE0
FEE0
38E0
38E0
38E0
38E0
38E0
38E0
38E0
38E0
38E0
38E0
38E0
3FF0
3FF0
0030
0030
0030
0030
ENDCHAR
STARTCHAR uni04B5
ENCODING 1205
SWIDTH 600 0
DWIDTH 12 0
BBX 12 15 0 -4
BITMAP
FEC0
FEC0
38C0
38C0
38C0
38C0
38C0
38C0
38C0
3FF0
3FF0
0070
0070
0070
0070
ENDCHAR
STARTCHAR uni04B6
ENCODING 1206
SWIDTH 600 0
DWIDTH 12 0
BBX 11 19 2 -4
BITMAP
C380
C380
C380
C380
C380
C380
C380
E380
7F80
3F80
0380
0380
0380
03E0
03E0
00E0
00E0
00E0
00E0
ENDCHAR
STARTCHAR uni04B7
ENCODING 1207
SWIDTH 600 0
DWIDTH 12 0
BBX 12 15 1 -4
BITMAP
E1C0
E1C0
E1C0
E1C0
E1C0
71C0
7FC0
3FC0
01C0
01F0
01F0
0070
0070
0070
0070
ENDCHAR
STARTCHAR uni04B8
ENCODING 1208
SWIDTH 600 0
DWIDTH 12 0
BBX 10 15 1 0
BITMAP
E1C0
E1C0
E1C0
E1C0
EDC0
EDC0
EDC0
7DC0
7FC0
1FC0
0DC0
0DC0
01C0
01C0
01C0
ENDCHAR
STARTCHAR uni04B9
ENCODING 1209
SWIDTH 600 0
DWIDTH 12 0
BBX 10 11 1 0
BITMAP
E1C0
E1C0
E1C0
EDC0
EDC0
FDC0
7FC0
3FC0
0DC0
01C0
01C0
ENDCHAR
STARTCHAR uni04BA
ENCODING 1210
SWIDTH 600 0
DWIDTH 12 0
BBX 10 15 1 0
BITMAP
E000
E000
E000
E000
E000
E000
FF00
FF80
E3C0
E1C0
E1C0
E1C0
E1C0
E1C0
E1C0
ENDCHAR
STARTCHAR uni04BB
ENCODING 1211
SWIDTH 600 0
DWIDTH 12 0
BBX 10 15 1 0
BITMAP
E000
E000
E000
E000
EF00
FF80
F3C0
E1C0
E1C0
E1C0
E1C0
E1C0
E1C0
E1C0
E1C0
ENDCHAR
STARTCHAR uni04BC
ENCODING 1212
SWIDTH 600 0
DWIDTH 12 0
BBX 11 15 0 0
BITMAP
0780
0FC0
1CE0
18E0
F8E0
F8E0
FFE0
7FE0
3800
3800
3800
1C00
1E40
0FE0
07E0
ENDCHAR
STARTCHAR uni04BD
ENCODING 1213
SWIDTH 600 0
DWIDTH 12 0
BBX 11 11 0 0
BITMAP
0780
0FC0
DCE0
DC60
7FE0
3FE0
1C00
1C00
1E60
0FE0
07C0
ENDCHAR
STARTCHAR uni04BE
ENCODING 1214
SWIDTH 600 0
DWIDTH 12 0
BBX 11 20 0 -5
BITMAP
0780
0FC0
1CE0
18E0
F8E0
F8E0
FFE0
7FE0
3800
3800
3800
1C00
1E40
0FE0
07E0
0380
0380
0380
0380
0380
ENDCHAR
STARTCHAR uni04BF
ENCODING 1215
SWIDTH 600 0
DWIDTH 12 0
BBX 11 16 0 -5
BITMAP
0780
0FC0
DCE0
DC60
7FE0
3FE0
1C00
1C00
1E60
0FE0
07C0
0380
0380
0380
0380
0380
ENDCHAR
STARTCHAR uni04C0
ENCODING 1216
SWIDTH 600 0
DWIDTH 12 0
BBX 8 15 2 0
BITMAP
FF
FF
18
18
18
18
18
18
18
18
18
18
18
FF
FF
ENDCHAR
STARTCHAR uni04C1
ENCODING 1217
SWIDTH 600 0
DWIDTH 12 0
BBX 12 19 0 0
BITMAP
1980
1F80
0F00
0000
E670
6660
66E0
76E0
76C0
36C0
36C0
3FC0
3FC0
36C0
76E0
76E0
66E0
E660
E670
ENDCHAR
STARTCHAR uni04C2
ENCODING 1218
SWIDTH 600 0
DWIDTH 12 0
BBX 12 16 0 0
BITMAP
1980
1F80
0F00
0000
0000
E660
76E0
76E0
36C0
36C0
3F80
3FC0
36C0
76E0
66E0
E670
ENDCHAR
STARTCHAR uni04C3
ENCODING 1219
SWIDTH 600 0
DWIDTH 12 0
BBX 10 18 2 -3
BITMAP
C380
C380
C700
C700
CE00
CC00
CC00
FF00
FF80
C380
C1C0
C1C0
C1C0
C1C0
C1C0
0380
0780
0700
ENDCHAR
STARTCHAR uni04C4
ENCODING 1220
SWIDTH 600 0
DWIDTH 12 0
BBX 10 14 1 -3
BITMAP
E1C0
E380
E780
E700
EE00
FF00
FF80
E1C0
E1C0
E1C0
E1C0
03C0
0380
0300
ENDCHAR
STARTCHAR uni04C5
ENCODING 1221
SWIDTH 600 0
DWIDTH 12 0
BBX 13 19 0 -4
BITMAP
3FE0
3FE0
38E0
38E0
38E0
38E0
38E0
38E0
38E0
38E0
38E0
38E0
70E0
F0F8
E0F8
0038
0038
0030
0030
ENDCHAR
STARTCHAR uni04C6
ENCODING 1222
SWIDTH 600 0
DWIDTH 12 0
BBX 13 15 0 -4
BITMAP
3FE0
3FE0
38E0
38E0
38E0
38E0
38E0
38E0
30E0
F0F8
E0F8
0038
0038
0030
0070
ENDCHAR
STARTCHAR uni04C7
ENCODING 1223
SWIDTH 600 0
DWIDTH 12 0
BBX 10 19 1 -4
BITMAP
E1C0
E1C0
E1C0
E1C0
E1C0
E1C0
E1C0
FFC0
FFC0
E1C0
E1C0
E1C0
E1C0
E1C0
E1C0
01C0
0380
0780
0F00
ENDCHAR
STARTCHAR uni04C8
ENCODING 1224
SWIDTH 600 0
DWIDTH 12 0
BBX 9 15 1 -4
BITMAP
E180
E180
E180
E180
FF80
FF80
E180
E180
E180
E180
E180
0180
0380
0780
0F00
ENDCHAR
STARTCHAR uni04C9
ENCODING 1225
SWIDTH 600 0
DWIDTH 12 0
BBX 12 19 1 -4
BITMAP
E1C0
E1C0
E1C0
E1C0
E1C0
E1C0
E1C0
FFC0
FFC0
E1C0
E1C0
E1C0
E1C0
E1F0
E1F0
0070
0070
0060
00E0
ENDCHAR
STARTCHAR uni04CA
ENCODING 1226
SWIDTH 600 0
DWIDTH 12 0
BBX 12 15 1 -4
BITMAP
E1C0
E1C0
E1C0
E1C0
E1C0
FFC0
FFC0
E1C0
E1C0
E1F0
E1F0
0070
0070
0060
00E0
ENDCHAR
STARTCHAR uni04CB
ENCODING 1227
SWIDTH 600 0
DWIDTH 12 0
BBX 9 19 2 -4
BITMAP
C380
C380
C380
C380
C380
C380
C380
E380
7F80
3F80
0380
0380
0380
0F80
0F80
0E00
0E00
0E00
0E00
ENDCHAR
STARTCHAR uni04CC
ENCODING 1228
SWIDTH 600 0
DWIDTH 12 0
BBX 10 15 1 -4
BITMAP
E1C0
E1C0
E1C0
E1C0
E1C0
71C0
7FC0
3FC0
01C0
07C0
07C0
0700
0700
0700
0700
ENDCHAR
STARTCHAR uni04CD
ENCODING 1229
SWIDTH 600 0
DWIDTH 12 0
BBX 12 19 1 -4
BITMAP
F3C0
F3C0
F3C0
F3C0
FEC0
FEC0
FFC0
EDC0
EDC0
EDC0
E1C0
E1C0
E1C0
E1F0
E1F0
0030
0030
0070
0060
ENDCHAR
STARTCHAR uni04CE
ENCODING 1230
SWIDTH 600 0
DWIDTH 12 0
BBX 12 15 1 -4
BITMAP
F3C0
F3C0
F3C0
F3C0
F3C0
FFC0
FFC0
FFC0
FDC0
EDF0
EDF0
0070
0070
0060
0060
ENDCHAR
STARTCHAR uni04CF
ENCODING 1231
SWIDTH 600 0
DWIDTH 12 0
BBX 8 15 2 0
BITMAP
FF
FF
18
18
18
18
18
18
18
18
18
18
18
FF
FF
ENDCHAR
STARTCHAR uni04D0
ENCODING 1232
SWIDTH 600 0
DWIDTH 12 0
BBX 12 19 0 0
BITMAP
19C0
1F80
0F00
0000
0700
0F00
0F00
0F00
0F80
1D80
1D80
19C0
39C0
38C0
3FE0
7FE0
70E0
7070
E070
ENDCHAR
STARTCHAR uni04D1
ENCODING 1233
SWIDTH 600 0
DWIDTH 12 0
BBX 10 16 1 0
BITMAP
7300
3F00
1E00
0000
0000
3E00
7F80
E380
0180
3F80
7F80
F180
E180
E380
7F80
3DC0
ENDCHAR
STARTCHAR uni04D2
ENCODING 1234
SWIDTH 600 0
DWIDTH 12 0
BBX 12 18 0 0
BITMAP
19C0
39C0
0000
0700
0F00
0F00
0F00
0F80
1D80
1D80
19C0
39C0
38C0
3FE0
7FE0
70E0
7070
E070
ENDCHAR
STARTCHAR uni04D3
ENCODING 1235
SWIDTH 600 0
DWIDTH 12 0
BBX 10 15 1 0
BITMAP
7300
7300
0000
0000
3E00
7F80
E380
0180
3F80
7F80
F180
E180
E380
7F80
3DC0
ENDCHAR
STARTCHAR uni04D4
ENCODING 1236
SWIDTH 600 0
DWIDTH 12 0
BBX 12 15 0 0
BITMAP
07E0
07E0
0F80
0F80
0F80
1F80
1B80
1BE0
3BE0
3F80
3F80
3380
7380
73F0
E3F0
ENDCHAR
STARTCHAR uni04D5
ENCODING 1237
SWIDTH 600 0
DWIDTH 12 0
BBX 12 11 0 0
BITMAP
3DC0
7FE0
6760
0670
3FF0
7FF0
7600
E600
6720
7FE0
39E0
ENDCHAR
STARTCHAR uni04D6
ENCODING 1238
SWIDTH 600 0
DWIDTH 12 0
BBX 10 19 1 0
BITMAP
3180
3F00
1E00
0000
FFC0
FFC0
E000
E000
E000
E000
E000
FF80
FF80
E000
E000
E000
E000
FFC0
FFC0
ENDCHAR
STARTCHAR uni04D7
ENCODING 1239
SWIDTH 600 0
DWIDTH 12 0
BBX 10 16 1 0
BITMAP
3300
3F00
1E00
0000
0000
1F00
3F80
7380
E1C0
FFC0
FFC0
E000
E000
7180
3FC0
1F00
ENDCHAR
STARTCHAR uni04D8
ENCODING 1240
SWIDTH 600 0
DWIDTH 12 0
BBX 10 15 1 0
BITMAP
7E00
7F80
6380
01C0
01C0
01C0
01C0
FFC0
FFC0
E1C0
E1C0
E1C0
7380
7F00
1E00
ENDCHAR
STARTCHAR uni04D9
ENCODING 1241
SWIDTH 600 0
DWIDTH 12 0
BBX 9 11 2 0
BITMAP
7C00
FF00
C700
0380
0380
FF80
FF80
C380
E700
FF00
3C00
ENDCHAR
STARTCHAR uni04DA
ENCODING 1242
SWIDTH 600 0
DWIDTH 12 0
BBX 10 18 1 0
BITMAP
3380
7380
0000
7E00
7F80
6380
01C0
01C0
01C0
01C0
FFC0
FFC0
E1C0
E1C0
E1C0
7380
7F00
1E00
ENDCHAR
STARTCHAR uni04DB
ENCODING 1243
SWIDTH 600 0
DWIDTH 12 0
BBX 9 15 2 0
BITMAP
6700
6700
0000
0000
7C00
FF00
C700
0380
0380
FF80
FF80
C380
E700
FF00
3C00
ENDCHAR
STARTCHAR uni04DC
ENCODING 1244
SWIDTH 600 0
DWIDTH 12 0
BBX 12 18 0 0
BITMAP
1980
39C0
0000
E670
6660
66E0
76E0
76C0
36C0
36C0
3FC0
3FC0
36C0
76E0
76E0
66E0
E660
E670
ENDCHAR
STARTCHAR uni04DD
ENCODING 1245
SWIDTH 600 0
DWIDTH 12 0
BBX 12 15 0 0
BITMAP
3980
39C0
0000
0000
E660
76E0
76E0
36C0
36C0
3F80
3FC0
36C0
76E0
66E0
E670
ENDCHAR
STARTCHAR uni04DE
ENCODING 1246
SWIDTH 600 0
DWIDTH 12 0
BBX 10 18 1 0
BITMAP
3300
7380
0000
3F00
7F80
F3C0
E1C0
01C0
01C0
1F80
1F80
01C0
00C0
00C0
E1C0
F3C0
7F80
3F00
ENDCHAR
STARTCHAR uni04DF
ENCODING 1247
SWIDTH 600 0
DWIDTH 12 0
BBX 10 15 1 0
BITMAP
3300
7380
0000
0000
3F00
7F80
E1C0
01C0
1F80
1F80
01C0
01C0
F3C0
7F80
3F00
ENDCHAR
STARTCHAR uni04E0
ENCODING 1248
SWIDTH 600 0
DWIDTH 12 0
BBX 10 15 1 0
BITMAP
7FC0
7FC0
0180
0300
0700
0E00
1F00
1F80
01C0
01C0
00C0
E1C0
73C0
7F80
1F00
ENDCHAR
STARTCHAR uni04E1
ENCODING 1249
SWIDTH 600 0
DWIDTH 12 0
BBX 10 15 1 -4
BITMAP
7FC0
7FC0
0380
0300
0700
0E00
1F00
1F80
01C0
01C0
01C0
E1C0
F3C0
7F80
1F00
ENDCHAR
STARTCHAR uni04E2
ENCODING 1250
SWIDTH 600 0
DWIDTH 12 0
BBX 10 18 1 0
BITMAP
7F00
7F00
0000
E1C0
E3C0
E3C0
E7C0
E7C0
E7C0
EDC0
EDC0
FDC0
F9C0
F9C0
F1C0
F1C0
E1C0
E1C0
ENDCHAR
STARTCHAR uni04E3
ENCODING 1251
SWIDTH 600 0
DWIDTH 12 0
BBX 10 15 1 0
BITMAP
7F00
7F00
0000
0000
E1C0
E3C0
E7C0
E7C0
EFC0
EDC0
F9C0
F9C0
F1C0
F1C0
E1C0
ENDCHAR
STARTCHAR uni04E4
ENCODING 1252
SWIDTH 600 0
DWIDTH 12 0
BBX 10 18 1 0
BITMAP
6300
7300
0000
E1C0
E3C0
E3C0
E7C0
E7C0
E7C0
EDC0
EDC0
FDC0
F9C0
F9C0
F1C0
F1C0
E1C0
E1C0
ENDCHAR
STARTCHAR uni04E5
ENCODING 1253
SWIDTH 600 0
DWIDTH 12 0
BBX 10 15 1 0
BITMAP
7300
7300
0000
0000
E1C0
E3C0
E7C0
E7C0
EFC0
EDC0
F9C0
F9C0
F1C0
F1C0
E1C0
ENDCHAR
STARTCHAR uni04E6
ENCODING 1254
SWIDTH 600 0
DWIDTH 12 0
BBX 10 19 1 0
BITMAP
7300
7380
0000
0000
1E00
7F80
7380
E1C0
E1C0
E1C0
E1C0
E1C0
E1C0
E1C0
E1C0
E1C0
7380
7F80
1E00
ENDCHAR
STARTCHAR uni04E7
ENCODING 1255
SWIDTH 600 0
DWIDTH 12 0
BBX 10 15 1 0
BITMAP
3300
7380
0000
0000
1E00
7F80
7380
E1C0
E1C0
E1C0
E1C0
E1C0
7380
7F80
1E00
ENDCHAR
STARTCHAR uni04E8
ENCODING 1256
SWIDTH 600 0
DWIDTH 12 0
BBX 10 15 1 0
BITMAP
1E00
7F00
7380
E1C0
E1C0
E1C0
FFC0
FFC0
E1C0
E1C0
E1C0
E1C0
7380
7F80
1E00
ENDCHAR
STARTCHAR uni04E9
ENCODING 1257
SWIDTH 600 0
DWIDTH 12 0
BBX 10 11 1 0
BITMAP
1E00
7F80
7380
E1C0
FFC0
FFC0
E1C0
E1C0
7380
7F80
1E00
ENDCHAR
STARTCHAR uni04EA
ENCODING 1258
SWIDTH 600 0
DWIDTH 12 0
BBX 10 18 1 0
BITMAP
3300
7380
0000
1E00
7F00
7380
E1C0
E1C0
E1C0
FFC0
FFC0
E1C0
E1C0
E1C0
E1C0
7380
7F80
1E00
ENDCHAR
STARTCHAR uni04EB
ENCODING 1259
SWIDTH 600 0
DWIDTH 12 0
BBX 10 15 1 0
BITMAP
7300
7300
0000
0000
1E00
7F80
7380
E1C0
FFC0
FFC0
E1C0
E1C0
7380
7F80
1E00
ENDCHAR
STARTCHAR uni04EC
ENCODING 1260
SWIDTH 600 0
DWIDTH 12 0
BBX 11 18 0 0
BITMAP
3180
3380
0000
1F00
3F80
73C0
61C0
E0C0
00E0
00E0
0FE0
0FE0
00E0
E0C0
E1C0
71C0
7F80
1F00
ENDCHAR
STARTCHAR uni04ED
ENCODING 1261
SWIDTH 600 0
DWIDTH 12 0
BBX 10 15 1 0
BITMAP
7300
7380
0000
0000
3E00
7F80
E380
01C0
0FC0
0FC0
01C0
E1C0
F380
7F80
3E00
ENDCHAR
STARTCHAR uni04EE
ENCODING 1262
SWIDTH 600 0
DWIDTH 12 0
BBX 12 18 0 0
BITMAP
1FC0
1FC0
0000
E070
7060
70E0
30E0
39C0
19C0
1D80
1F80
0F00
0F00
0700
0600
0E00
7C00
7800
ENDCHAR
STARTCHAR uni04EF
ENCODING 1263
SWIDTH 600 0
DWIDTH 12 0
BBX 11 19 1 -4
BITMAP
3F80
3F80
0000
0000
E0E0
E1C0
61C0
7180
7380
3B80
3B00
1F00
1E00
0E00
0C00
1C00
3C00
7800
7000
ENDCHAR
STARTCHAR uni04F0
ENCODING 1264
SWIDTH 600 0
DWIDTH 12 0
BBX 12 18 0 0
BITMAP
18C0
19C0
0000
E070
7060
70E0
30E0
39C0
19C0
1D80
1F80
0F00
0F00
0700
0600
0E00
7C00
7800
ENDCHAR
STARTCHAR uni04F1
ENCODING 1265
SWIDTH 600 0
DWIDTH 12 0
BBX 11 19 1 -4
BITMAP
3380
3380
0000
0000
E0E0
E1C0
61C0
7180
7380
3B80
3B00
1F00
1E00
0E00
0C00
1C00
3C00
7800
7000
ENDCHAR
STARTCHAR uni04F2
ENCODING 1266
SWIDTH 600 0
DWIDTH 12 0
BBX 12 18 0 0
BITMAP
0770
0FC0
0000
E070
7060
70E0
30E0
39C0
19C0
1D80
1F80
0F00
0F00
0700
0600
0E00
7C00
7800
ENDCHAR
STARTCHAR uni04F3
ENCODING 1267
SWIDTH 600 0
DWIDTH 12 0
BBX 11 19 1 -4
BITMAP
0EE0
1B80
0000
0000
E0E0
E1C0
61C0
7180
7380
3B80
3B00
1F00
1E00
0E00
0C00
1C00
3C00
7800
7000
ENDCHAR
STARTCHAR uni04F4
ENCODING 1268
SWIDTH 600 0
DWIDTH 12 0
BBX 9 18 2 0
BITMAP
C600
E600
0000
C380
C380
C380
C380
C380
C380
C380
E380
7F80
3F80
0380
0380
0380
0380
0380
ENDCHAR
STARTCHAR uni04F5
ENCODING 1269
SWIDTH 600 0
DWIDTH 12 0
BBX 10 15 1 0
BITMAP
3180
3980
0000
0000
E1C0
E1C0
E1C0
E1C0
E1C0
71C0
7FC0
3FC0
01C0
01C0
01C0
ENDCHAR
STARTCHAR uni04F6
ENCODING 1270
SWIDTH 600 0
DWIDTH 12 0
BBX 10 19 1 -4
BITMAP
FFC0
FFC0
E000
E000
E000
E000
E000
E000
E000
E000
E000
E000
E000
F800
F800
3800
3800
3800
3800
ENDCHAR
STARTCHAR uni04F7
ENCODING 1271
SWIDTH 600 0
DWIDTH 12 0
BBX 9 15 1 -4
BITMAP
FF80
FF80
E000
E000
E000
E000
E000
E000
E000
F000
F000
3000
3000
3000
3000
ENDCHAR
STARTCHAR uni04F8
ENCODING 1272
SWIDTH 600 0
DWIDTH 12 0
BBX 10 18 1 0
BITMAP
6300
7300
0000
C1C0
C1C0
C1C0
C1C0
C1C0
C1C0
F9C0
FDC0
CDC0
CFC0
CFC0
CFC0
CDC0
FDC0
F9C0
ENDCHAR
STARTCHAR uni04F9
ENCODING 1273
SWIDTH 600 0
DWIDTH 12 0
BBX 10 15 1 0
BITMAP
3180
3180
0000
0000
E1C0
E1C0
E1C0
E1C0
F9C0
FDC0
EFC0
EFC0
EFC0
FDC0
F9C0
ENDCHAR
STARTCHAR uni04FA
ENCODING 1274
SWIDTH 600 0
DWIDTH 12 0
BBX 11 19 0 -4
BITMAP
3FE0
3FE0
3800
3800
3800
3800
3800
FE00
FE00
3800
3800
3800
3E00
3E00
3E00
0600
0E00
1E00
3C00
ENDCHAR
STARTCHAR uni04FB
ENCODING 1275
SWIDTH 600 0
DWIDTH 12 0
BBX 10 15 1 -4
BITMAP
7FC0
7FC0
7000
7000
7000
FC00
FC00
7000
7C00
7C00
7C00
1C00
1C00
7800
7000
ENDCHAR
STARTCHAR uni04FC
ENCODING 1276
SWIDTH 600 0
DWIDTH 12 0
BBX 13 19 0 -4
BITMAP
F0F0
70E0
39E0
39C0
1F80
1F80
0F00
0F00
0F00
1F80
1D80
39C0
38F8
70F8
F0F8
0018
0038
00F8
00F0
ENDCHAR
STARTCHAR uni04FD
ENCODING 1277
SWIDTH 600 0
DWIDTH 12 0
BBX 11 15 1 -4
BITMAP
E1C0
7380
3B80
3F00
1F00
0E00
1F00
3F00
33E0
71E0
E1E0
0060
00E0
01E0
03C0
ENDCHAR
STARTCHAR uni04FE
ENCODING 1278
SWIDTH 600 0
DWIDTH 12 0
BBX 12 15 0 0
BITMAP
F0F0
70E0
38E0
39C0
1DC0
1F80
0F80
1FC0
1FC0
0F80
1F80
39C0
39C0
70E0
F0F0
ENDCHAR
STARTCHAR uni04FF
ENCODING 1279
SWIDTH 600 0
DWIDTH 12 0
BBX 11 11 1 0
BITMAP
E1C0
7380
3B80
3F00
3F80
3F80
1F00
3F00
7380
71C0
E1E0
ENDCHAR
STARTCHAR uni0500
ENCODING 1280
SWIDTH 600 0
DWIDTH 12 0
BBX 10 15 1 0
BITMAP
01C0
01C0
01C0
01C0
01C0
01C0
3FC0
7FC0
E1C0
E1C0
E1C0
E1C0
F1C0
7FC0
3FC0
ENDCHAR
STARTCHAR uni0501
ENCODING 1281
SWIDTH 600 0
DWIDTH 12 0
BBX 10 15 1 0
BITMAP
01C0
01C0
01C0
01C0
3DC0
7FC0
73C0
E1C0
E1C0
E1C0
E1C0
E1C0
73C0
7FC0
3DC0
ENDCHAR
STARTCHAR uni0502
ENCODING 1282
SWIDTH 600 0
DWIDTH 12 0
BBX 11 15 1 0
BITMAP
0E00
0E00
0E00
0E00
0E00
0EE0
3EE0
7EE0
EE60
EE60
EE60
EEE0
EEE0
7FC0
3F80
ENDCHAR
STARTCHAR uni0503
ENCODING 1283
SWIDTH 600 0
DWIDTH 12 0
BBX 11 16 1 0
BITMAP
0E00
0E00
0E00
0E00
0E00
7E00
7E00
EFC0
EEC0
EEE0
EEE0
EEE0
EEC0
EEC0
7FC0
7780
ENDCHAR
STARTCHAR uni0504
ENCODING 1284
SWIDTH 600 0
DWIDTH 12 0
BBX 11 15 1 0
BITMAP
F000
F800
1C00
1C00
1C00
1C00
1DC0
F8C0
F8E0
1CE0
1CC0
1CC0
1DC0
0F80
0F00
ENDCHAR
STARTCHAR uni0505
ENCODING 1285
SWIDTH 600 0
DWIDTH 12 0
BBX 11 11 1 0
BITMAP
F800
FC00
1C00
0DC0
1CC0
78C0
7CE0
0EC0
0EC0
0FC0
0780
ENDCHAR
STARTCHAR uni0506
ENCODING 1286
SWIDTH 600 0
DWIDTH 12 0
BBX 10 19 2 -4
BITMAP
F800
FE00
0E00
0700
0700
0700
0E00
FC00
FC00
0E00
0700
0700
0700
07C0
07C0
01C0
01C0
0180
0300
ENDCHAR
STARTCHAR uni0507
ENCODING 1287
SWIDTH 600 0
DWIDTH 12 0
BBX 9 15 2 -4
BITMAP
F800
FE00
0E00
0600
0E00
FE00
FE00
0E00
0600
0780
0780
0180
0180
0380
0300
ENDCHAR
STARTCHAR uni0508
ENCODING 1288
SWIDTH 600 0
DWIDTH 12 0
BBX 12 15 0 0
BITMAP
3F00
3F00
3700
3700
3700
3760
3760
3770
3770
3770
3770
7770
7360
E3E0
C1C0
ENDCHAR
STARTCHAR uni0509
ENCODING 1289
SWIDTH 600 0
DWIDTH 12 0
BBX 12 11 0 0
BITMAP
3F00
3F00
37E0
3760
3770
3770
7770
7770
7760
E3E0
E3C0
ENDCHAR
STARTCHAR uni050A
ENCODING 1290
SWIDTH 600 0
DWIDTH 12 0
BBX 11 15 1 0
BITMAP
CE00
CE00
CE00
CE00
CE00
CF00
CEC0
FEC0
FEE0
CEE0
CEE0
CEE0
CEC0
C7C0
C780
ENDCHAR
STARTCHAR uni050B
ENCODING 1291
SWIDTH 600 0
DWIDTH 12 0
BBX 10 11 1 0
BITMAP
CE00
CE00
CFC0
CFC0
CEC0
FEC0
FEC0
CEC0
CFC0
CFC0
C780
ENDCHAR
STARTCHAR uni050C
ENCODING 1292
SWIDTH 600 0
DWIDTH 12 0
BBX 11 15 1 0
BITMAP
1F00
3F80
7100
E000
E000
E000
E000
E1C0
E0C0
E0E0
E0E0
E0C0
71C0
3F80
1F00
ENDCHAR
STARTCHAR uni050D
ENCODING 1293
SWIDTH 600 0
DWIDTH 12 0
BBX 10 11 1 0
BITMAP
1F80
3F80
7880
6000
E000
E1C0
E0C0
60C0
79C0
3FC0
1F00
ENDCHAR
STARTCHAR uni050E
ENCODING 1294
SWIDTH 600 0
DWIDTH 12 0
BBX 11 15 1 0
BITMAP
FF80
FF80
1C00
1C00
1C00
1DC0
1CC0
1CC0
1CE0
1CE0
1CE0
1CC0
1DC0
1F80
0F00
ENDCHAR
STARTCHAR uni050F
ENCODING 1295
SWIDTH 600 0
DWIDTH 12 0
BBX 10 11 1 0
BITMAP
FF80
FF80
3800
3800
39C0
38C0
38C0
39C0
1DC0
1F80
0F00
ENDCHAR
STARTCHAR uni0510
ENCODING 1296
SWIDTH 600 0
DWIDTH 12 0
BBX 10 15 1 0
BITMAP
3E00
7F80
F3C0
E1C0
E000
E000
7E00
7E00
E000
E000
C000
E1C0
F3C0
7F80
3F00
ENDCHAR
STARTCHAR uni0511
ENCODING 1297
SWIDTH 600 0
DWIDTH 12 0
BBX 11 11 1 0
BITMAP
3F00
7FC0
F1C0
6000
7F00
7F00
7000
E020
F1C0
7FC0
1F00
ENDCHAR
STARTCHAR uni0512
ENCODING 1298
SWIDTH 600 0
DWIDTH 12 0
BBX 13 19 0 -4
BITMAP
3FE0
3FE0
38E0
38E0
38E0
38E0
38E0
38E0
38E0
38E0
38E0
38E0
70F8
F0F8
E0F8
0018
0038
0078
00F0
ENDCHAR
STARTCHAR uni0513
ENCODING 1299
SWIDTH 600 0
DWIDTH 12 0
BBX 13 15 0 -4
BITMAP
3FE0
3FE0
38E0
38E0
38E0
38E0
38E0
38E0
30F8
F0F8
E0F8
0018
0038
00F8
00F0
ENDCHAR
STARTCHAR uni1E00
ENCODING 7680
SWIDTH 600 0
DWIDTH 12 0
BBX 12 19 0 -4
BITMAP
0700
0F00
0F00
0F00
0F80
1D80
1D80
19C0
39C0
38C0
3FE0
7FE0
70E0
7070
E070
0000
0600
0B00
0600
ENDCHAR
STARTCHAR uni1E01
ENCODING 7681
SWIDTH 600 0
DWIDTH 12 0
BBX 10 15 1 -4
BITMAP
3E00
7F80
E380
0180
3F80
7F80
F180
E180
E380
7F80
3DC0
0000
1800
1400
1800
ENDCHAR
STARTCHAR uni1E3E
ENCODING 7742
SWIDTH 600 0
DWIDTH 12 0
BBX 10 18 1 0
BITMAP
0780
0E00
0000
F3C0
F3C0
F3C0
F3C0
FEC0
FEC0
FFC0
EDC0
EDC0
EDC0
E1C0
E1C0
E1C0
E1C0
E1C0
ENDCHAR
STARTCHAR uni1E3F
ENCODING 7743
SWIDTH 600 0
DWIDTH 12 0
BBX 10 15 1 0
BITMAP
0380
0600
0800
0000
DF80
FFC0
CDC0
CCC0
CCC0
CCC0
CCC0
CCC0
CCC0
CCC0
CCC0
ENDCHAR
STARTCHAR Wgrave
ENCODING 7808
SWIDTH 600 0
DWIDTH 12 0
BBX 12 18 0 0
BITMAP
3C00
0E00
0000
E670
E670
6660
6660
6F60
6F60
7FE0
7FE0
7FE0
7BE0
39C0
39C0
39C0
39C0
39C0
ENDCHAR
STARTCHAR wgrave
ENCODING 7809
SWIDTH 600 0
DWIDTH 12 0
BBX 12 15 0 0
BITMAP
3C00
0E00
0000
0000
E670
6660
6660
6E60
6FE0
6FE0
7BC0
39C0
39C0
39C0
39C0
ENDCHAR
STARTCHAR Wacute
ENCODING 7810
SWIDTH 600 0
DWIDTH 12 0
BBX 12 18 0 0
BITMAP
03C0
0700
0000
E670
E670
6660
6660
6F60
6F60
7FE0
7FE0
7FE0
7BE0
39C0
39C0
39C0
39C0
39C0
ENDCHAR
STARTCHAR wacute
ENCODING 7811
SWIDTH 600 0
DWIDTH 12 0
BBX 12 15 0 0
BITMAP
03C0
0700
0000
0000
E670
6660
6660
6E60
6FE0
6FE0
7BC0
39C0
39C0
39C0
39C0
ENDCHAR
STARTCHAR Wdieresis
ENCODING 7812
SWIDTH 600 0
DWIDTH 12 0
BBX 12 18 0 0
BITMAP
3980
39C0
0000
E670
E670
6660
6660
6F60
6F60
7FE0
7FE0
7FE0
7BE0
39C0
39C0
39C0
39C0
39C0
ENDCHAR
STARTCHAR wdieresis
ENCODING 7813
SWIDTH 600 0
DWIDTH 12 0
BBX 12 15 0 0
BITMAP
3980
39C0
0000
0000
E670
6660
6660
6E60
6FE0
6FE0
7BC0
39C0
39C0
39C0
39C0
ENDCHAR
STARTCHAR uni1EA0
ENCODING 7840
SWIDTH 600 0
DWIDTH 12 0
BBX 12 19 0 -4
BITMAP
0700
0F00
0F00
0F00
0F80
1D80
1D80
19C0
39C0
38C0
3FE0
7FE0
70E0
7070
E070
0000
0000
0700
0600
ENDCHAR
STARTCHAR uni1EA1
ENCODING 7841
SWIDTH 600 0
DWIDTH 12 0
BBX 10 15 1 -4
BITMAP
3E00
7F80
E380
0180
3F80
7F80
F180
E180
E380
7F80
3DC0
0000
0000
1C00
1C00
ENDCHAR
STARTCHAR uni1EA2
ENCODING 7842
SWIDTH 600 0
DWIDTH 12 0
BBX 12 20 0 0
BITMAP
0700
0380
0380
0700
0000
0700
0F00
0F00
0F00
0F80
1D80
1D80
19C0
39C0
38C0
3FE0
7FE0
70E0
7070
E070
ENDCHAR
STARTCHAR uni1EA3
ENCODING 7843
SWIDTH 600 0
DWIDTH 12 0
BBX 10 17 1 0
BITMAP
0C00
0600
0600
0C00
0000
0000
3E00
7F80
E380
0180
3F80
7F80
F180
E180
E380
7F80
3DC0
ENDCHAR
STARTCHAR uni1EA4
ENCODING 7844
SWIDTH 600 0
DWIDTH 12 0
BBX 13 20 0 0
BITMAP
0038
0030
0660
0D80
1040
0700
0F00
0F00
0F00
0F80
1D80
1D80
19C0
39C0
38C0
3FE0
7FE0
70E0
7070
E070
ENDCHAR
STARTCHAR uni1EA5
ENCODING 7845
SWIDTH 600 0
DWIDTH 12 0
BBX 11 17 1 0
BITMAP
0060
0040
1CC0
3600
4100
0000
3E00
7F80
E380
0180
3F80
7F80
F180
E180
E380
7F80
3DC0
ENDCHAR
STARTCHAR uni1EA6
ENCODING 7846
SWIDTH 600 0
DWIDTH 12 0
BBX 12 20 0 0
BITMAP
C000
6000
6700
0D80
1040
0700
0F00
0F00
0F00
0F80
1D80
1D80
19C0
39C0
38C0
3FE0
7FE0
70E0
7070
E070
ENDCHAR
STARTCHAR uni1EA7
ENCODING 7847
SWIDTH 600 0
DWIDTH 12 0
BBX 12 17 -1 0
BITMAP
E000
6000
3700
0D80
1040
0000
0F80
1FE0
38E0
0060
0FE0
1FE0
3C60
3860
38E0
1FE0
0F70
ENDCHAR
STARTCHAR uni1EA8
ENCODING 7848
SWIDTH 600 0
DWIDTH 12 0
BBX 12 20 0 0
BITMAP
0060
0010
0620
0D80
1040
0700
0F00
0F00
0F00
0F80
1D80
1D80
19C0
39C0
38C0
3FE0
7FE0
70E0
7070
E070
ENDCHAR
STARTCHAR uni1EA9
ENCODING 7849
SWIDTH 600 0
DWIDTH 12 0
BBX 10 17 1 0
BITMAP
00C0
0040
1C80
3600
4100
0000
3E00
7F80
E380
0180
3F80
7F80
F180
E180
E380
7F80
3DC0
ENDCHAR
STARTCHAR uni1EAA
ENCODING 7850
SWIDTH 600 0
DWIDTH 12 0
BBX 12 21 0 0
BITMAP
0080
0F80
0800
0700
0D80
1040
0700
0F00
0F00
0F00
0F80
1D80
1D80
19C0
39C0
38C0
3FE0
7FE0
70E0
7070
E070
ENDCHAR
STARTCHAR uni1EAB
ENCODING 7851
SWIDTH 600 0
DWIDTH 12 0
BBX 10 18 1 0
BITMAP
0200
1E00
3000
1C00
3600
4100
0000
3E00
7F80
E380
0180
3F80
7F80
F180
E180
E380
7F80
3DC0
ENDCHAR
STARTCHAR uni1EAC
ENCODING 7852
SWIDTH 600 0
DWIDTH 12 0
BBX 12 22 0 -4
BITMAP
0700
1F80
0040
0700
0F00
0F00
0F00
0F80
1D80
1D80
19C0
39C0
38C0
3FE0
7FE0
70E0
7070
E070
0000
0000
0700
0600
ENDCHAR
STARTCHAR uni1EAD
ENCODING 7853
SWIDTH 600 0
DWIDTH 12 0
BBX 10 19 1 -4
BITMAP
1C00
3F00
4000
0000
3E00
7F80
E380
0180
3F80
7F80
F180
E180
E380
7F80
3DC0
0000
0000
1C00
1C00
ENDCHAR
STARTCHAR uni1EAE
ENCODING 7854
SWIDTH 600 0
DWIDTH 12 0
BBX 12 19 0 0
BITMAP
0380
1C80
1980
0F00
0700
0F00
0F00
0F00
0F80
1D80
1D80
19C0
39C0
38C0
3FE0
7FE0
70E0
7070
E070
ENDCHAR
STARTCHAR uni1EAF
ENCODING 7855
SWIDTH 600 0
DWIDTH 12 0
BBX 10 16 1 0
BITMAP
0600
6B00
3300
1E00
0000
3E00
7F80
E380
0180
3F80
7F80
F180
E180
E380
7F80
3DC0
ENDCHAR
STARTCHAR uni1EB0
ENCODING 7856
SWIDTH 600 0
DWIDTH 12 0
BBX 12 21 0 0
BITMAP
1E00
0600
1880
1980
0F80
0000
0700
0F00
0F00
0F00
0F80
1D80
1D80
19C0
39C0
38C0
3FE0
7FE0
70E0
7070
E070
ENDCHAR
STARTCHAR uni1EB1
ENCODING 7857
SWIDTH 600 0
DWIDTH 12 0
BBX 10 18 1 0
BITMAP
3800
0C00
3300
3300
3E00
0000
0000
3E00
7F80
E380
0180
3F80
7F80
F180
E180
E380
7F80
3DC0
ENDCHAR
STARTCHAR uni1EB2
ENCODING 7858
SWIDTH 600 0
DWIDTH 12 0
BBX 12 21 0 0
BITMAP
0600
0100
0600
1880
1D80
0F00
0700
0F00
0F00
0F00
0F80
1D80
1D80
19C0
39C0
38C0
3FE0
7FE0
70E0
7070
E070
ENDCHAR
STARTCHAR uni1EB3
ENCODING 7859
SWIDTH 600 0
DWIDTH 12 0
BBX 10 18 1 0
BITMAP
0800
0400
0C00
6300
3700
1C00
0000
3E00
7F80
E380
0180
3F80
7F80
F180
E180
E380
7F80
3DC0
ENDCHAR
STARTCHAR uni1EB4
ENCODING 7860
SWIDTH 600 0
DWIDTH 12 0
BBX 12 21 0 0
BITMAP
0C80
1B80
0000
1980
0F80
0000
0700
0F00
0F00
0F00
0F80
1D80
1D80
19C0
39C0
38C0
3FE0
7FE0
70E0
7070
E070
ENDCHAR
STARTCHAR uni1EB5
ENCODING 7861
SWIDTH 600 0
DWIDTH 12 0
BBX 10 18 1 0
BITMAP
3B00
2600
0000
6300
3E00
0000
0000
3E00
7F80
E380
0180
3F80
7F80
F180
E180
E380
7F80
3DC0
ENDCHAR
STARTCHAR uni1EB6
ENCODING 7862
SWIDTH 600 0
DWIDTH 12 0
BBX 12 23 0 -4
BITMAP
19C0
1F80
0F00
0000
0700
0F00
0F00
0F00
0F80
1D80
1D80
19C0
39C0
38C0
3FE0
7FE0
70E0
7070
E070
0000
0000
0700
0600
ENDCHAR
STARTCHAR uni1EB7
ENCODING 7863
SWIDTH 600 0
DWIDTH 12 0
BBX 10 20 1 -4
BITMAP
7300
3F00
1E00
0000
0000
3E00
7F80
E380
0180
3F80
7F80
F180
E180
E380
7F80
3DC0
0000
0000
1C00
1C00
ENDCHAR
STARTCHAR uni1EB8
ENCODING 7864
SWIDTH 600 0
DWIDTH 12 0
BBX 10 19 1 -4
BITMAP
FFC0
FFC0
E000
E000
E000
E000
E000
FF80
FF80
E000
E000
E000
E000
FFC0
FFC0
0000
0000
0E00
0E00
ENDCHAR
STARTCHAR uni1EB9
ENCODING 7865
SWIDTH 600 0
DWIDTH 12 0
BBX 10 15 1 -4
BITMAP
1F00
3F80
7380
E1C0
FFC0
FFC0
E000
E000
7180
3FC0
1F00
0000
0000
0E00
0E00
ENDCHAR
STARTCHAR uni1EBA
ENCODING 7866
SWIDTH 600 0
DWIDTH 12 0
BBX 10 20 1 0
BITMAP
0E00
0700
0700
0E00
0000
FFC0
FFC0
E000
E000
E000
E000
E000
FF80
FF80
E000
E000
E000
E000
FFC0
FFC0
ENDCHAR
STARTCHAR uni1EBB
ENCODING 7867
SWIDTH 600 0
DWIDTH 12 0
BBX 10 17 1 0
BITMAP
0C00
0600
0600
0C00
0000
0000
1F00
3F80
7380
E1C0
FFC0
FFC0
E000
E000
7180
3FC0
1F00
ENDCHAR
STARTCHAR uni1EBC
ENCODING 7868
SWIDTH 600 0
DWIDTH 12 0
BBX 10 18 1 0
BITMAP
1F80
3F00
0000
FFC0
FFC0
E000
E000
E000
E000
E000
FF80
FF80
E000
E000
E000
E000
FFC0
FFC0
ENDCHAR
STARTCHAR uni1EBD
ENCODING 7869
SWIDTH 600 0
DWIDTH 12 0
BBX 10 15 1 0
BITMAP
3F00
7F00
0000
0000
1F00
3F80
7380
E1C0
FFC0
FFC0
E000
E000
7180
3FC0
1F00
ENDCHAR
STARTCHAR uni1EBE
ENCODING 7870
SWIDTH 600 0
DWIDTH 12 0
BBX 12 20 1 0
BITMAP
0030
0060
0CC0
1B00
2080
FFC0
FFC0
E000
E000
E000
E000
E000
FF80
FF80
E000
E000
E000
E000
FFC0
FFC0
ENDCHAR
STARTCHAR uni1EBF
ENCODING 7871
SWIDTH 600 0
DWIDTH 12 0
BBX 11 17 1 0
BITMAP
0060
0060
0CC0
3600
4100
0000
1F00
3F80
7380
E1C0
FFC0
FFC0
E000
E000
7180
3FC0
1F00
ENDCHAR
STARTCHAR uni1EC0
ENCODING 7872
SWIDTH 600 0
DWIDTH 12 0
BBX 11 20 0 0
BITMAP
C000
6000
6700
0D80
1040
7FE0
7FE0
7000
7000
7000
7000
7000
7FC0
7FC0
7000
7000
7000
7000
7FE0
7FE0
ENDCHAR
STARTCHAR uni1EC1
ENCODING 7873
SWIDTH 600 0
DWIDTH 12 0
BBX 12 17 -1 0
BITMAP
E000
6000
3300
0D80
1040
0000
07C0
0FE0
1CE0
3870
3FF0
3FF0
3800
3800
1C60
0FF0
07C0
ENDCHAR
STARTCHAR uni1EC2
ENCODING 7874
SWIDTH 600 0
DWIDTH 12 0
BBX 11 20 1 0
BITMAP
00C0
0020
0E40
1B00
2080
FFC0
FFC0
E000
E000
E000
E000
E000
FF80
FF80
E000
E000
E000
E000
FFC0
FFC0
ENDCHAR
STARTCHAR uni1EC3
ENCODING 7875
SWIDTH 600 0
DWIDTH 12 0
BBX 10 17 1 0
BITMAP
00C0
0040
1CC0
3600
4100
0000
1F00
3F80
7380
E1C0
FFC0
FFC0
E000
E000
7180
3FC0
1F00
ENDCHAR
STARTCHAR uni1EC4
ENCODING 7876
SWIDTH 600 0
DWIDTH 12 0
BBX 10 21 1 0
BITMAP
0100
1F00
1000
0E00
1B00
2080
FFC0
FFC0
E000
E000
E000
E000
E000
FF80
FF80
E000
E000
E000
E000
FFC0
FFC0
ENDCHAR
STARTCHAR uni1EC5
ENCODING 7877
SWIDTH 600 0
DWIDTH 12 0
BBX 10 18 1 0
BITMAP
0200
1E00
3000
1C00
3600
4100
0000
1F00
3F80
7380
E1C0
FFC0
FFC0
E000
E000
7180
3FC0
1F00
ENDCHAR
STARTCHAR uni1EC6
ENCODING 7878
SWIDTH 600 0
DWIDTH 12 0
BBX 10 22 1 -4
BITMAP
0E00
1F00
2080
FFC0
FFC0
E000
E000
E000
E000
E000
FF80
FF80
E000
E000
E000
E000
FFC0
FFC0
0000
0000
0E00
0E00
ENDCHAR
STARTCHAR uni1EC7
ENCODING 7879
SWIDTH 600 0
DWIDTH 12 0
BBX 10 19 1 -4
BITMAP
1C00
3F00
4080
0000
1F00
3F80
7380
E1C0
FFC0
FFC0
E000
E000
7180
3FC0
1F00
0000
0000
0E00
0E00
ENDCHAR
STARTCHAR uni1EC8
ENCODING 7880
SWIDTH 600 0
DWIDTH 12 0
BBX 8 20 2 0
BITMAP
18
0C
0C
18
00
FF
FF
18
18
18
18
18
18
18
18
18
18
18
FF
FF
ENDCHAR
STARTCHAR uni1EC9
ENCODING 7881
SWIDTH 600 0
DWIDTH 12 0
BBX 9 17 2 0
BITMAP
1C00
0E00
0600
1C00
0000
0000
FC00
FC00
1C00
1C00
1C00
1C00
1C00
1C00
1C00
FF80
FF80
ENDCHAR
STARTCHAR uni1ECA
ENCODING 7882
SWIDTH 600 0
DWIDTH 12 0
BBX 8 19 2 -4
BITMAP
FF
FF
18
18
18
18
18
18
18
18
18
18
18
FF
FF
00
00
3C
18
ENDCHAR
STARTCHAR uni1ECB
ENCODING 7883
SWIDTH 600 0
DWIDTH 12 0
BBX 9 19 2 -4
BITMAP
1C00
1C00
1C00
0000
FC00
FC00
1C00
1C00
1C00
1C00
1C00
1C00
1C00
FF80
FF80
0000
0000
1C00
1C00
ENDCHAR
STARTCHAR uni1ECC
ENCODING 7884
SWIDTH 600 0
DWIDTH 12 0
BBX 10 19 1 -4
BITMAP
1E00
7F80
7380
E1C0
E1C0
E1C0
E1C0
E1C0
E1C0
E1C0
E1C0
E1C0
7380
7F80
1E00
0000
0000
0E00
0C00
ENDCHAR
STARTCHAR uni1ECD
ENCODING 7885
SWIDTH 600 0
DWIDTH 12 0
BBX 10 15 1 -4
BITMAP
1E00
7F80
7380
E1C0
E1C0
E1C0
E1C0
E1C0
7380
7F80
1E00
0000
0000
1E00
0C00
ENDCHAR
STARTCHAR uni1ECE
ENCODING 7886
SWIDTH 600 0
DWIDTH 12 0
BBX 10 20 1 0
BITMAP
0C00
0600
0600
0C00
0000
1E00
7F80
7380
E1C0
E1C0
E1C0
E1C0
E1C0
E1C0
E1C0
E1C0
E1C0
7380
7F80
1E00
ENDCHAR
STARTCHAR uni1ECF
ENCODING 7887
SWIDTH 600 0
DWIDTH 12 0
BBX 10 17 1 0
BITMAP
0E00
0600
0700
0E00
0000
0000
1E00
7F80
7380
E1C0
E1C0
E1C0
E1C0
E1C0
7380
7F80
1E00
ENDCHAR
STARTCHAR uni1ED0
ENCODING 7888
SWIDTH 600 0
DWIDTH 12 0
BBX 12 21 1 0
BITMAP
0070
0060
0CC0
3E00
4180
0000
1E00
7F80
7380
E1C0
E1C0
E1C0
E1C0
E1C0
E1C0
E1C0
E1C0
E1C0
7380
7F80
1E00
ENDCHAR
STARTCHAR uni1ED1
ENCODING 7889
SWIDTH 600 0
DWIDTH 12 0
BBX 12 17 1 0
BITMAP
0070
0060
0CC0
3E00
4180
0000
1E00
7F80
7380
E1C0
E1C0
E1C0
E1C0
E1C0
7380
7F80
1E00
ENDCHAR
STARTCHAR uni1ED2
ENCODING 7890
SWIDTH 600 0
DWIDTH 12 0
BBX 12 20 -1 0
BITMAP
E000
6000
3300
07C0
1820
0780
1FE0
1CE0
3870
3870
3870
3870
3870
3870
3870
3870
3870
1CE0
1FE0
0780
ENDCHAR
STARTCHAR uni1ED3
ENCODING 7891
SWIDTH 600 0
DWIDTH 12 0
BBX 12 17 -1 0
BITMAP
E000
2000
3300
06C0
1820
0000
0780
1FE0
1CE0
3870
3870
3870
3870
3870
1CE0
1FE0
0780
ENDCHAR
STARTCHAR uni1ED4
ENCODING 7892
SWIDTH 600 0
DWIDTH 12 0
BBX 11 20 1 0
BITMAP
00C0
0020
0CC0
3600
4180
1E00
7F80
7380
E1C0
E1C0
E1C0
E1C0
E1C0
E1C0
E1C0
E1C0
E1C0
7380
7F80
1E00
ENDCHAR
STARTCHAR uni1ED5
ENCODING 7893
SWIDTH 600 0
DWIDTH 12 0
BBX 11 17 1 0
BITMAP
00C0
0020
0C40
3300
4080
0000
1E00
7F80
7380
E1C0
E1C0
E1C0
E1C0
E1C0
7380
7F80
1E00
ENDCHAR
STARTCHAR uni1ED6
ENCODING 7894
SWIDTH 600 0
DWIDTH 12 0
BBX 10 21 1 0
BITMAP
0300
1E00
1000
0C00
3300
4080
1E00
7F80
7380
E1C0
E1C0
E1C0
E1C0
E1C0
E1C0
E1C0
E1C0
E1C0
7380
7F80
1E00
ENDCHAR
STARTCHAR uni1ED7
ENCODING 7895
SWIDTH 600 0
DWIDTH 12 0
BBX 10 18 1 0
BITMAP
0300
1E00
1000
0C00
3300
4080
0000
1E00
7F80
7380
E1C0
E1C0
E1C0
E1C0
E1C0
7380
7F80
1E00
ENDCHAR
STARTCHAR uni1ED8
ENCODING 7896
SWIDTH 600 0
DWIDTH 12 0
BBX 10 23 1 -4
BITMAP
0C00
3F00
4080
0000
1E00
7F80
7380
E1C0
E1C0
E1C0
E1C0
E1C0
E1C0
E1C0
E1C0
E1C0
7380
7F80
1E00
0000
0000
0E00
0C00
ENDCHAR
STARTCHAR uni1ED9
ENCODING 7897
SWIDTH 600 0
DWIDTH 12 0
BBX 10 19 1 -4
BITMAP
0E00
3F00
4080
0000
1E00
7F80
7380
E1C0
E1C0
E1C0
E1C0
E1C0
7380
7F80
1E00
0000
0000
1E00
0C00
ENDCHAR
STARTCHAR uni1EDA
ENCODING 7898
SWIDTH 600 0
DWIDTH 12 0
BBX 11 18 1 0
BITMAP
0780
0E00
0000
1E60
3FE0
73C0
E1C0
E1C0
E0C0
E0C0
E0C0
E0C0
E0C0
E1C0
E1C0
7380
3F80
1E00
ENDCHAR
STARTCHAR uni1EDB
ENCODING 7899
SWIDTH 600 0
DWIDTH 12 0
BBX 11 15 1 0
BITMAP
0780
0E00
0000
0060
1E40
7FC0
7380
E1C0
E1C0
E1C0
E1C0
E1C0
7380
7F80
1E00
ENDCHAR
STARTCHAR uni1EDC
ENCODING 7900
SWIDTH 600 0
DWIDTH 12 0
BBX 11 18 1 0
BITMAP
7800
1C00
0000
1E60
3FE0
73C0
E1C0
E1C0
E0C0
E0C0
E0C0
E0C0
E0C0
E1C0
E1C0
7380
3F80
1E00
ENDCHAR
STARTCHAR uni1EDD
ENCODING 7901
SWIDTH 600 0
DWIDTH 12 0
BBX 11 15 1 0
BITMAP
7800
1C00
0000
0060
1E40
7FC0
7380
E1C0
E1C0
E1C0
E1C0
E1C0
7380
7F80
1E00
ENDCHAR
STARTCHAR uni1EDE
ENCODING 7902
SWIDTH 600 0
DWIDTH 12 0
BBX 11 20 1 0
BITMAP
0E00
0600
0700
0E00
0000
1E60
3FE0
73C0
E1C0
E1C0
E0C0
E0C0
E0C0
E0C0
E0C0
E1C0
E1C0
7380
3F80
1E00
ENDCHAR
STARTCHAR uni1EDF
ENCODING 7903
SWIDTH 600 0
DWIDTH 12 0
BBX 11 17 1 0
BITMAP
0C00
0600
0600
0C00
0000
0060
1E40
7FC0
7380
E1C0
E1C0
E1C0
E1C0
E1C0
7380
7F80
1E00
ENDCHAR
STARTCHAR uni1EE0
ENCODING 7904
SWIDTH 600 0
DWIDTH 12 0
BBX 11 19 1 0
BITMAP
3F80
3F00
0000
0000
1E60
3FE0
73C0
E1C0
E1C0
E0C0
E0C0
E0C0
E0C0
E0C0
E1C0
E1C0
7380
3F80
1E00
ENDCHAR
STARTCHAR uni1EE1
ENCODING 7905
SWIDTH 600 0
DWIDTH 12 0
BBX 11 15 1 0
BITMAP
3F80
7F00
0000
0060
1E40
7FC0
7380
E1C0
E1C0
E1C0
E1C0
E1C0
7380
7F80
1E00
ENDCHAR
STARTCHAR uni1EE2
ENCODING 7906
SWIDTH 600 0
DWIDTH 12 0
BBX 11 19 1 -4
BITMAP
1E60
3FE0
73C0
E1C0
E1C0
E0C0
E0C0
E0C0
E0C0
E0C0
E1C0
E1C0
7380
3F80
1E00
0000
0000
1E00
0C00
ENDCHAR
STARTCHAR uni1EE3
ENCODING 7907
SWIDTH 600 0
DWIDTH 12 0
BBX 11 16 1 -4
BITMAP
0060
1E40
7FC0
7380
E1C0
E1C0
E1C0
E1C0
E1C0
7380
7F80
1E00
0000
0000
1E00
0C00
ENDCHAR
STARTCHAR uni1EE4
ENCODING 7908
SWIDTH 600 0
DWIDTH 12 0
BBX 10 19 1 -4
BITMAP
E1C0
E1C0
E1C0
E1C0
E1C0
E1C0
E1C0
E1C0
E1C0
E1C0
E1C0
E1C0
7380
7F80
1E00
0000
0000
1E00
0C00
ENDCHAR
STARTCHAR uni1EE5
ENCODING 7909
SWIDTH 600 0
DWIDTH 12 0
BBX 10 15 1 -4
BITMAP
E1C0
E1C0
E1C0
E1C0
E1C0
E1C0
E1C0
61C0
73C0
7FC0
3DC0
0000
0000
1C00
1800
ENDCHAR
STARTCHAR uni1EE6
ENCODING 7910
SWIDTH 600 0
DWIDTH 12 0
BBX 10 20 1 0
BITMAP
0E00
0600
0700
0E00
0000
E1C0
E1C0
E1C0
E1C0
E1C0
E1C0
E1C0
E1C0
E1C0
E1C0
E1C0
E1C0
7380
7F80
1E00
ENDCHAR
STARTCHAR uni1EE7
ENCODING 7911
SWIDTH 600 0
DWIDTH 12 0
BBX 10 17 1 0
BITMAP
0E00
0600
0700
0E00
0000
0000
E1C0
E1C0
E1C0
E1C0
E1C0
E1C0
E1C0
61C0
73C0
7FC0
3DC0
ENDCHAR
STARTCHAR uni1EE8
ENCODING 7912
SWIDTH 600 0
DWIDTH 12 0
BBX 13 18 1 0
BITMAP
0780
0E00
0000
E1D8
E1D8
E1F8
E1F0
E1C0
E1C0
E1C0
E1C0
E1C0
E1C0
E1C0
E1C0
7380
7F80
1E00
ENDCHAR
STARTCHAR uni1EE9
ENCODING 7913
SWIDTH 600 0
DWIDTH 12 0
BBX 12 15 1 0
BITMAP
0780
0E00
0000
0030
E1B0
E1F0
E1E0
E180
E180
E180
E180
E180
F380
7F80
3D80
ENDCHAR
STARTCHAR uni1EEA
ENCODING 7914
SWIDTH 600 0
DWIDTH 12 0
BBX 13 18 1 0
BITMAP
3800
1C00
0000
E1D8
E1D8
E1F8
E1F0
E1C0
E1C0
E1C0
E1C0
E1C0
E1C0
E1C0
E1C0
7380
7F80
1E00
ENDCHAR
STARTCHAR uni1EEB
ENCODING 7915
SWIDTH 600 0
DWIDTH 12 0
BBX 12 15 1 0
BITMAP
7800
1C00
0000
0030
E1B0
E1F0
E1E0
E180
E180
E180
E180
E180
F380
7F80
3D80
ENDCHAR
STARTCHAR uni1EEC
ENCODING 7916
SWIDTH 600 0
DWIDTH 12 0
BBX 13 20 1 0
BITMAP
0E00
0700
0700
0E00
0000
E1D8
E1D8
E1F8
E1F0
E1C0
E1C0
E1C0
E1C0
E1C0
E1C0
E1C0
E1C0
7380
7F80
1E00
ENDCHAR
STARTCHAR uni1EED
ENCODING 7917
SWIDTH 600 0
DWIDTH 12 0
BBX 12 17 1 0
BITMAP
0C00
0600
0600
0C00
0000
0030
E1B0
E1F0
E1E0
E180
E180
E180
E180
E180
F380
7F80
3D80
ENDCHAR
STARTCHAR uni1EEE
ENCODING 7918
SWIDTH 600 0
DWIDTH 12 0
BBX 13 18 1 0
BITMAP
3F80
3F00
0000
E1D8
E1D8
E1F8
E1F0
E1C0
E1C0
E1C0
E1C0
E1C0
E1C0
E1C0
E1C0
7380
7F80
1E00
ENDCHAR
STARTCHAR uni1EEF
ENCODING 7919
SWIDTH 600 0
DWIDTH 12 0
BBX 12 15 1 0
BITMAP
3F80
7F00
0000
0030
E1B0
E1F0
E1E0
E180
E180
E180
E180
E180
F380
7F80
3D80
ENDCHAR
STARTCHAR uni1EF0
ENCODING 7920
SWIDTH 600 0
DWIDTH 12 0
BBX 13 19 1 -4
BITMAP
E1D8
E1D8
E1F8
E1F0
E1C0
E1C0
E1C0
E1C0
E1C0
E1C0
E1C0
E1C0
7380
7F80
1E00
0000
0000
0E00
0E00
ENDCHAR
STARTCHAR uni1EF1
ENCODING 7921
SWIDTH 600 0
DWIDTH 12 0
BBX 12 16 1 -4
BITMAP
0030
E1B0
E1F0
E1E0
E180
E180
E180
E180
E180
F380
7F80
3D80
0000
0000
3C00
1800
ENDCHAR
STARTCHAR Ygrave
ENCODING 7922
SWIDTH 600 0
DWIDTH 12 0
BBX 12 18 0 0
BITMAP
1C00
0E00
0000
F070
70E0
70E0
39C0
39C0
1D80
1F80
0F80
0F00
0700
0600
0600
0600
0600
0600
ENDCHAR
STARTCHAR ygrave
ENCODING 7923
SWIDTH 600 0
DWIDTH 12 0
BBX 11 19 1 -4
BITMAP
3800
1C00
0000
0000
E0E0
E1C0
61C0
7180
7380
3B80
3B00
1F00
1E00
0E00
0C00
1C00
3C00
7800
7000
ENDCHAR
STARTCHAR uni1EF4
ENCODING 7924
SWIDTH 600 0
DWIDTH 12 0
BBX 12 19 0 -4
BITMAP
F070
70E0
70E0
39C0
39C0
1D80
1F80
0F80
0F00
0700
0600
0600
0600
0600
0600
0000
0000
0700
0700
ENDCHAR
STARTCHAR uni1EF5
ENCODING 7925
SWIDTH 600 0
DWIDTH 12 0
BBX 11 16 1 -5
BITMAP
E0E0
E1C0
61C0
7180
7380
3B80
3B00
1F00
1E00
0E00
0C00
1C00
3C00
7800
73C0
0180
ENDCHAR
STARTCHAR uni1EF6
ENCODING 7926
SWIDTH 600 0
DWIDTH 12 0
BBX 12 20 0 0
BITMAP
0700
0300
0380
0700
0000
F070
70E0
70E0
39C0
39C0
1D80
1F80
0F80
0F00
0700
0600
0600
0600
0600
0600
ENDCHAR
STARTCHAR uni1EF7
ENCODING 7927
SWIDTH 600 0
DWIDTH 12 0
BBX 11 21 1 -4
BITMAP
0E00
0700
0700
0E00
0000
0000
E0E0
E1C0
61C0
7180
7380
3B80
3B00
1F00
1E00
0E00
0C00
1C00
3C00
7800
7000
ENDCHAR
STARTCHAR uni1EF8
ENCODING 7928
SWIDTH 600 0
DWIDTH 12 0
BBX 12 18 0 0
BITMAP
1FC0
1F80
0000
F070
70E0
70E0
39C0
39C0
1D80
1F80
0F80
0F00
0700
0600
0600
0600
0600
0600
ENDCHAR
STARTCHAR uni1EF9
ENCODING 7929
SWIDTH 600 0
DWIDTH 12 0
BBX 11 19 1 -4
BITMAP
1F80
3F00
0000
0000
E0E0
E1C0
61C0
7180
7380
3B80
3B00
1F00
1E00
0E00
0C00
1C00
3C00
7800
7000
ENDCHAR
STARTCHAR uni1F4D
ENCODING 8013
SWIDTH 600 0
DWIDTH 12 0
BBX 13 16 -2 0
BITMAP
5800
D3C0
FFF0
0E70
1C38
1C38
1C38
1C38
1C38
1C38
1C38
1C38
1C38
0E70
0FF0
03C0
ENDCHAR
STARTCHAR uni2000
ENCODING 8192
SWIDTH 600 0
DWIDTH 12 0
BBX 1 1 0 0
BITMAP
00
ENDCHAR
STARTCHAR uni2001
ENCODING 8193
SWIDTH 600 0
DWIDTH 12 0
BBX 1 1 0 0
BITMAP
00
ENDCHAR
STARTCHAR uni2002
ENCODING 8194
SWIDTH 600 0
DWIDTH 12 0
BBX 1 1 0 0
BITMAP
00
ENDCHAR
STARTCHAR uni2003
ENCODING 8195
SWIDTH 600 0
DWIDTH 12 0
BBX 1 1 0 0
BITMAP
00
ENDCHAR
STARTCHAR uni2004
ENCODING 8196
SWIDTH 600 0
DWIDTH 12 0
BBX 1 1 0 0
BITMAP
00
ENDCHAR
STARTCHAR uni2005
ENCODING 8197
SWIDTH 600 0
DWIDTH 12 0
BBX 1 1 0 0
BITMAP
00
ENDCHAR
STARTCHAR uni2006
ENCODING 8198
SWIDTH 600 0
DWIDTH 12 0
BBX 1 1 0 0
BITMAP
00
ENDCHAR
STARTCHAR uni2007
ENCODING 8199
SWIDTH 600 0
DWIDTH 12 0
BBX 1 1 0 0
BITMAP
00
ENDCHAR
STARTCHAR uni2008
ENCODING 8200
SWIDTH 600 0
DWIDTH 12 0
BBX 1 1 0 0
BITMAP
00
ENDCHAR
STARTCHAR uni2009
ENCODING 8201
SWIDTH 600 0
DWIDTH 12 0
BBX 1 1 0 0
BITMAP
00
ENDCHAR
STARTCHAR uni200A
ENCODING 8202
SWIDTH 600 0
DWIDTH 12 0
BBX 1 1 0 0
BITMAP
00
ENDCHAR
STARTCHAR uni200B
ENCODING 8203
SWIDTH 600 0
DWIDTH 12 0
BBX 1 1 0 0
BITMAP
00
ENDCHAR
STARTCHAR endash
ENCODING 8211
SWIDTH 600 0
DWIDTH 12 0
BBX 11 2 0 6
BITMAP
FFE0
FFE0
ENDCHAR
STARTCHAR emdash
ENCODING 8212
SWIDTH 600 0
DWIDTH 12 0
BBX 11 2 0 6
BITMAP
FFE0
FFE0
ENDCHAR
STARTCHAR uni2015
ENCODING 8213
SWIDTH 600 0
DWIDTH 12 0
BBX 11 2 0 6
BITMAP
FFE0
FFE0
ENDCHAR
STARTCHAR underscoredbl
ENCODING 8215
SWIDTH 600 0
DWIDTH 12 0
BBX 8 5 2 -5
BITMAP
FF
FF
00
FF
FF
ENDCHAR
STARTCHAR quoteleft
ENCODING 8216
SWIDTH 600 0
DWIDTH 12 0
BBX 3 6 5 10
BITMAP
40
60
C0
C0
C0
C0
ENDCHAR
STARTCHAR quoteright
ENCODING 8217
SWIDTH 600 0
DWIDTH 12 0
BBX 3 6 5 9
BITMAP
E0
E0
E0
C0
C0
80
ENDCHAR
STARTCHAR quotesinglbase
ENCODING 8218
SWIDTH 600 0
DWIDTH 12 0
BBX 3 6 5 -3
BITMAP
E0
E0
E0
C0
C0
80
ENDCHAR
STARTCHAR quotereversed
ENCODING 8219
SWIDTH 600 0
DWIDTH 12 0
BBX 3 6 4 9
BITMAP
E0
E0
E0
60
60
20
ENDCHAR
STARTCHAR quotedblleft
ENCODING 8220
SWIDTH 600 0
DWIDTH 12 0
BBX 7 6 3 10
BITMAP
24
6E
6C
CC
CC
CC
ENDCHAR
STARTCHAR quotedblright
ENCODING 8221
SWIDTH 600 0
DWIDTH 12 0
BBX 6 6 3 9
BITMAP
6C
6C
6C
6C
DC
48
ENDCHAR
STARTCHAR quotedblbase
ENCODING 8222
SWIDTH 600 0
DWIDTH 12 0
BBX 6 6 3 -4
BITMAP
6C
6C
6C
6C
DC
48
ENDCHAR
STARTCHAR dagger
ENCODING 8224
SWIDTH 600 0
DWIDTH 12 0
BBX 10 15 1 0
BITMAP
1C00
1C00
1C00
1C00
FFC0
FFC0
1C00
1C00
1C00
1C00
1C00
1C00
1C00
1C00
1C00
ENDCHAR
STARTCHAR daggerdbl
ENCODING 8225
SWIDTH 600 0
DWIDTH 12 0
BBX 10 19 1 -4
BITMAP
0C00
0C00
0C00
0C00
FFC0
FFC0
0C00
0C00
0C00
0C00
0C00
0C00
0C00
FFC0
FFC0
0C00
0C00
0C00
0C00
ENDCHAR
STARTCHAR bullet
ENCODING 8226
SWIDTH 600 0
DWIDTH 12 0
BBX 5 5 4 5
BITMAP
70
F0
F8
F0
70
ENDCHAR
STARTCHAR uni2025
ENCODING 8229
SWIDTH 600 0
DWIDTH 12 0
BBX 9 4 2 0
BITMAP
7700
F780
F780
7700
ENDCHAR
STARTCHAR ellipsis
ENCODING 8230
SWIDTH 600 0
DWIDTH 12 0
BBX 12 4 1 0
BITMAP
6EE0
FFE0
FFF0
6EE0
ENDCHAR
STARTCHAR perthousand
ENCODING 8240
SWIDTH 600 0
DWIDTH 12 0
BBX 11 15 1 0
BITMAP
7000
F000
D800
9880
FB00
F600
1800
3000
E000
5DC0
3FE0
3660
3660
3FC0
1DC0
ENDCHAR
STARTCHAR minute
ENCODING 8242
SWIDTH 600 0
DWIDTH 12 0
BBX 3 5 4 10
BITMAP
E0
E0
C0
C0
C0
ENDCHAR
STARTCHAR second
ENCODING 8243
SWIDTH 600 0
DWIDTH 12 0
BBX 6 5 3 10
BITMAP
CC
CC
CC
CC
CC
ENDCHAR
STARTCHAR guilsinglleft
ENCODING 8249
SWIDTH 600 0
DWIDTH 12 0
BBX 4 8 4 1
BITMAP
30
20
60
C0
C0
60
20
30
ENDCHAR
STARTCHAR guilsinglright
ENCODING 8250
SWIDTH 600 0
DWIDTH 12 0
BBX 4 8 4 1
BITMAP
C0
60
60
30
30
60
60
C0
ENDCHAR
STARTCHAR exclamdbl
ENCODING 8252
SWIDTH 1200 0
DWIDTH 24 0
BBX 16 15 4 0
BITMAP
6006
6006
6006
6006
6006
6006
6006
6006
6006
0000
0000
0000
6006
F00F
6006
ENDCHAR
STARTCHAR fraction
ENCODING 8260
SWIDTH 600 0
DWIDTH 12 0
BBX 6 10 3 2
BITMAP
0C
0C
18
10
30
20
60
40
C0
80
ENDCHAR
STARTCHAR uni2074
ENCODING 8308
SWIDTH 600 0
DWIDTH 12 0
BBX 7 9 3 6
BITMAP
0C
1C
3C
2C
6C
CC
FE
0C
0C
ENDCHAR
STARTCHAR nsuperior
ENCODING 8319
SWIDTH 600 0
DWIDTH 12 0
BBX 7 8 3 7
BITMAP
DC
FC
CE
C6
C6
C6
C6
C6
ENDCHAR
STARTCHAR franc
ENCODING 8355
SWIDTH 600 0
DWIDTH 12 0
BBX 11 15 0 0
BITMAP
7FE0
7FE0
7000
7000
7000
7000
7000
7FC0
7FC0
7000
7000
FE00
FE00
7000
7000
ENDCHAR
STARTCHAR lira
ENCODING 8356
SWIDTH 600 0
DWIDTH 12 0
BBX 10 15 1 0
BITMAP
0F00
3F80
39C0
30C0
3000
3000
FE00
FE00
3000
FE00
FE00
3000
7000
FFC0
FFC0
ENDCHAR
STARTCHAR peseta
ENCODING 8359
SWIDTH 600 0
DWIDTH 12 0
BBX 11 15 1 0
BITMAP
F000
F980
CD80
CD80
CFE0
CD80
CD80
F980
F180
C180
C180
C180
C180
C1E0
C0E0
ENDCHAR
STARTCHAR uni20AB
ENCODING 8363
SWIDTH 614 0
DWIDTH 12 0
BBX 11 18 1 -3
BITMAP
01C0
0FE0
0FE0
01C0
3DC0
7FC0
73C0
E1C0
E1C0
E1C0
E1C0
E1C0
73C0
7FC0
3DC0
0000
7FC0
7FC0
ENDCHAR
STARTCHAR Euro
ENCODING 8364
SWIDTH 600 0
DWIDTH 12 0
BBX 10 15 1 0
BITMAP
07C0
0FC0
1C40
3800
3800
3800
FF00
3800
FF00
3800
3800
3800
1C40
1FC0
07C0
ENDCHAR
STARTCHAR uni2105
ENCODING 8453
SWIDTH 600 0
DWIDTH 12 0
BBX 11 14 1 0
BITMAP
F000
D800
8100
8300
DA00
F600
0400
0C00
1BC0
1EC0
3660
1660
07C0
03C0
ENDCHAR
STARTCHAR uni2113
ENCODING 8467
SWIDTH 600 0
DWIDTH 12 0
BBX 8 14 2 0
BITMAP
1E
3F
3B
73
73
73
76
7C
F8
F0
70
38
3E
1E
ENDCHAR
STARTCHAR uni2116
ENCODING 8470
SWIDTH 600 0
DWIDTH 12 0
BBX 10 14 1 0
BITMAP
CDC0
ED40
ED40
ED40
EDC0
FC00
FDC0
DC00
DC00
DC00
DC00
CC00
CC00
CC00
ENDCHAR
STARTCHAR trademark
ENCODING 8482
SWIDTH 600 0
DWIDTH 12 0
BBX 10 5 1 9
BITMAP
F4C0
66C0
66C0
6540
6540
ENDCHAR
STARTCHAR Omega.dup3
ENCODING 8486
SWIDTH 600 0
DWIDTH 12 0
BBX 10 15 1 0
BITMAP
1E00
3F80
7380
E1C0
E1C0
E1C0
E1C0
E1C0
E1C0
E1C0
6180
7380
3B00
FBC0
FBC0
ENDCHAR
STARTCHAR estimated
ENCODING 8494
SWIDTH 600 0
DWIDTH 12 0
BBX 10 11 1 0
BITMAP
0E00
3180
60C0
60C0
60C0
FFC0
6000
6000
6000
2080
1F00
ENDCHAR
STARTCHAR oneeighth
ENCODING 8539
SWIDTH 600 0
DWIDTH 12 0
BBX 11 14 1 0
BITMAP
3000
F000
B100
3300
3200
3600
3400
0FC0
0BE0
1BE0
33C0
1660
07E0
03C0
ENDCHAR
STARTCHAR threeeighths
ENCODING 8540
SWIDTH 600 0
DWIDTH 12 0
BBX 12 14 0 0
BITMAP
7800
6C00
0C80
3980
8D00
6F00
7A00
07E0
05F0
0DE0
19E0
0B30
03F0
01E0
ENDCHAR
STARTCHAR fiveeighths
ENCODING 8541
SWIDTH 600 0
DWIDTH 12 0
BBX 11 14 0 0
BITMAP
7C00
6000
5080
7D80
0D00
CF00
7E00
07E0
0F60
0BE0
19E0
0B20
03E0
01E0
ENDCHAR
STARTCHAR seveneighths
ENCODING 8542
SWIDTH 600 0
DWIDTH 12 0
BBX 11 14 1 0
BITMAP
FC00
0800
1B00
1200
3600
2400
6C00
0BC0
1FE0
13C0
33C0
2660
07E0
03C0
ENDCHAR
STARTCHAR partialdiff
ENCODING 8706
SWIDTH 600 0
DWIDTH 12 0
BBX 10 15 1 0
BITMAP
3E00
7F00
2780
0180
01C0
3FC0
7FC0
73C0
E1C0
E1C0
E1C0
E1C0
7380
7F80
3E00
ENDCHAR
STARTCHAR Delta.dup4
ENCODING 8710
SWIDTH 600 0
DWIDTH 12 0
BBX 13 15 0 0
BITMAP
0700
0700
0F80
0F80
0D80
1DC0
1DC0
19C0
38C0
38E0
38E0
7060
7070
7FF0
FFF8
ENDCHAR
STARTCHAR product
ENCODING 8719
SWIDTH 600 0
DWIDTH 12 0
BBX 8 16 2 -2
BITMAP
FF
FF
C3
C3
C3
C3
C3
C3
C3
C3
C3
C3
C3
C3
C3
C3
ENDCHAR
STARTCHAR summation
ENCODING 8721
SWIDTH 600 0
DWIDTH 12 0
BBX 12 17 0 -3
BITMAP
FFE0
7FE0
7000
3800
1C00
0E00
0700
0700
0380
0700
0E00
1C00
3C00
3800
7FF0
FFF0
FFF0
ENDCHAR
STARTCHAR minus
ENCODING 8722
SWIDTH 600 0
DWIDTH 12 0
BBX 9 2 1 6
BITMAP
FF80
FF80
ENDCHAR
STARTCHAR radical
ENCODING 8730
SWIDTH 600 0
DWIDTH 12 0
BBX 11 14 0 0
BITMAP
0060
00C0
00C0
00C0
01C0
0180
0180
F180
FB00
1B00
1B00
0A00
0E00
0E00
ENDCHAR
STARTCHAR infinity
ENCODING 8734
SWIDTH 600 0
DWIDTH 12 0
BBX 11 8 1 2
BITMAP
2180
FBC0
DEE0
CC60
CC60
DE60
FBC0
2180
ENDCHAR
STARTCHAR integral
ENCODING 8747
SWIDTH 600 0
DWIDTH 12 0
BBX 8 19 2 -4
BITMAP
0F
1F
18
18
18
18
18
18
18
18
18
18
18
18
18
18
38
F8
F0
ENDCHAR
STARTCHAR approxequal
ENCODING 8776
SWIDTH 600 0
DWIDTH 12 0
BBX 10 8 1 2
BITMAP
7840
FFC0
4780
0000
7040
FEC0
CF80
8100
ENDCHAR
STARTCHAR notequal
ENCODING 8800
SWIDTH 600 0
DWIDTH 12 0
BBX 10 10 1 1
BITMAP
0100
0300
FFC0
FFC0
0400
0C00
FFC0
FFC0
3000
1000
ENDCHAR
STARTCHAR lessequal
ENCODING 8804
SWIDTH 600 0
DWIDTH 12 0
BBX 8 12 2 0
BITMAP
01
07
3F
FC
C0
F8
3F
07
01
00
FF
FF
ENDCHAR
STARTCHAR greaterequal
ENCODING 8805
SWIDTH 600 0
DWIDTH 12 0
BBX 8 12 2 0
BITMAP
80
E0
FC
3F
03
1F
FC
E0
80
00
FF
FF
ENDCHAR
STARTCHAR lozenge
ENCODING 9674
SWIDTH 600 0
DWIDTH 12 0
BBX 10 14 1 0
BITMAP
0E00
1E00
1F00
3300
7380
7180
E1C0
61C0
7380
3380
3B00
1E00
1E00
0C00
ENDCHAR
STARTCHAR commaaccent
ENCODING 63171
SWIDTH 600 0
DWIDTH 12 0
BBX 2 4 3 -2
BITMAP
C0
C0
C0
80
ENDCHAR
STARTCHAR uniFEFF
ENCODING 65279
SWIDTH 600 0
DWIDTH 12 0
BBX 1 1 0 0
BITMAP
00
ENDCHAR
STARTCHAR uniFFFC
ENCODING 65532
SWIDTH 600 0
DWIDTH 12 0
BBX 10 10 1 0
BITMAP
FF40
0000
8040
2C80
DEC0
DAC0
A540
8040
8040
FF40
ENDCHAR
STARTCHAR uniFFFD
ENCODING 65533
SWIDTH 600 0
DWIDTH 12 0
BBX 12 19 0 -3
BITMAP
0400
0600
0600
0F00
1F80
1F80
30C0
2240
7E60
FCF0
7CE0
79E0
3FC0
3980
1980
0F00
0F00
0600
0400
ENDCHAR
STARTCHAR .notdef
ENCODING -1
SWIDTH 600 0
DWIDTH 12 0
BBX 1 1 0 0
BITMAP
00
ENDCHAR
STARTCHAR two.sup
ENCODING -1
SWIDTH 600 0
DWIDTH 12 0
BBX 6 8 3 0
BITMAP
78
FC
CC
1C
38
60
FC
FC
ENDCHAR
STARTCHAR circumflextildecomb
ENCODING -1
SWIDTH 600 0
DWIDTH 12 0
BBX 7 5 3 12
BITMAP
74
48
30
6C
C6
ENDCHAR
STARTCHAR circumflexhookcomb
ENCODING -1
SWIDTH 600 0
DWIDTH 12 0
BBX 9 5 3 12
BITMAP
0300
0080
3180
7800
C600
ENDCHAR
STARTCHAR circumflexgravecomb
ENCODING -1
SWIDTH 600 0
DWIDTH 12 0
BBX 10 4 0 13
BITMAP
C000
6000
2700
1DC0
ENDCHAR
STARTCHAR circumflexacutecomb
ENCODING -1
SWIDTH 600 0
DWIDTH 12 0
BBX 10 4 3 12
BITMAP
01C0
3100
7A00
CE00
ENDCHAR
STARTCHAR brevegravecomb
ENCODING -1
SWIDTH 600 0
DWIDTH 12 0
BBX 7 6 3 11
BITMAP
E0
38
02
CC
7C
30
ENDCHAR
STARTCHAR commaaccentrotate
ENCODING -1
SWIDTH 600 0
DWIDTH 12 0
BBX 2 4 5 11
BITMAP
C0
C0
C0
C0
ENDCHAR
STARTCHAR A.smcp
ENCODING -1
SWIDTH 600 0
DWIDTH 12 0
BBX 12 12 0 0
BITMAP
0600
0F00
0F00
1F00
1F80
1980
39C0
39C0
3FC0
7FE0
70E0
E070
ENDCHAR
STARTCHAR B.smcp
ENCODING -1
SWIDTH 600 0
DWIDTH 12 0
BBX 9 11 2 0
BITMAP
FF00
FF00
C380
C380
FF00
FF00
C380
C380
C380
FF80
FE00
ENDCHAR
STARTCHAR C.smcp
ENCODING -1
SWIDTH 600 0
DWIDTH 12 0
BBX 10 12 1 0
BITMAP
1E00
7F80
F380
E1C0
E000
E000
E000
E000
E1C0
F380
7F80
1E00
ENDCHAR
STARTCHAR D.smcp
ENCODING -1
SWIDTH 600 0
DWIDTH 12 0
BBX 9 12 2 0
BITMAP
FC00
FF00
C700
C380
C380
C380
C380
C380
C380
C700
FF00
FC00
ENDCHAR
STARTCHAR E.smcp
ENCODING -1
SWIDTH 600 0
DWIDTH 12 0
BBX 9 12 2 0
BITMAP
FF80
FF80
C000
C000
C000
FF00
FF00
C000
C000
C000
FF00
FF00
ENDCHAR
STARTCHAR F.smcp
ENCODING -1
SWIDTH 600 0
DWIDTH 12 0
BBX 8 12 2 0
BITMAP
FF
FF
C0
C0
C0
FF
FF
C0
C0
C0
C0
C0
ENDCHAR
STARTCHAR G.smcp
ENCODING -1
SWIDTH 600 0
DWIDTH 12 0
BBX 10 12 1 0
BITMAP
1F00
7F80
73C0
E1C0
E000
E000
E7C0
E7C0
E1C0
F1C0
7FC0
1F00
ENDCHAR
STARTCHAR H.smcp
ENCODING -1
SWIDTH 600 0
DWIDTH 12 0
BBX 9 12 1 0
BITMAP
E180
E180
E180
E180
E180
FF80
FF80
E180
E180
E180
E180
E180
ENDCHAR
STARTCHAR I.smcp
ENCODING -1
SWIDTH 600 0
DWIDTH 12 0
BBX 8 11 2 0
BITMAP
FF
FF
18
18
18
18
18
18
18
FF
FF
ENDCHAR
STARTCHAR J.smcp
ENCODING -1
SWIDTH 600 0
DWIDTH 12 0
BBX 8 12 2 0
BITMAP
03
03
03
03
03
03
03
C3
C3
E7
FE
3C
ENDCHAR
STARTCHAR K.smcp
ENCODING -1
SWIDTH 600 0
DWIDTH 12 0
BBX 11 12 1 0
BITMAP
E1C0
E380
E780
EF00
EE00
FC00
FE00
FF00
E700
E380
E3C0
E1E0
ENDCHAR
STARTCHAR L.smcp
ENCODING -1
SWIDTH 600 0
DWIDTH 12 0
BBX 9 12 2 0
BITMAP
C000
C000
C000
C000
C000
C000
C000
C000
C000
C000
FF80
FF80
ENDCHAR
STARTCHAR M.smcp
ENCODING -1
SWIDTH 600 0
DWIDTH 12 0
BBX 10 12 1 0
BITMAP
E1C0
F3C0
F3C0
F3C0
FFC0
FFC0
FFC0
EFC0
EDC0
E1C0
E1C0
E1C0
ENDCHAR
STARTCHAR N.smcp
ENCODING -1
SWIDTH 600 0
DWIDTH 12 0
BBX 8 12 2 0
BITMAP
C7
E7
E7
F7
F7
DF
DF
DF
CF
CF
C7
C7
ENDCHAR
STARTCHAR O.smcp
ENCODING -1
SWIDTH 600 0
DWIDTH 12 0
BBX 10 12 1 0
BITMAP
1E00
7F80
7380
E1C0
E1C0
E1C0
E1C0
E1C0
E1C0
7380
7F80
1E00
ENDCHAR
STARTCHAR Q.smcp
ENCODING -1
SWIDTH 600 0
DWIDTH 12 0
BBX 10 14 1 -2
BITMAP
1E00
7F80
7380
E1C0
E1C0
E1C0
E1C0
E1C0
E1C0
7380
7F80
1F80
01C0
0080
ENDCHAR
STARTCHAR R.smcp
ENCODING -1
SWIDTH 600 0
DWIDTH 12 0
BBX 10 11 1 0
BITMAP
FF00
FF80
E1C0
E1C0
E380
FF80
FF00
E700
E380
E380
E1C0
ENDCHAR
STARTCHAR S.smcp
ENCODING -1
SWIDTH 600 0
DWIDTH 12 0
BBX 10 12 1 0
BITMAP
1F00
7F80
73C0
61C0
7000
7E00
1F80
01C0
E1C0
71C0
7F80
3F00
ENDCHAR
STARTCHAR T.smcp
ENCODING -1
SWIDTH 600 0
DWIDTH 12 0
BBX 11 12 1 0
BITMAP
FFE0
FFE0
0C00
0C00
0C00
0C00
0C00
0C00
0C00
0C00
0C00
0C00
ENDCHAR
STARTCHAR U.smcp
ENCODING -1
SWIDTH 600 0
DWIDTH 12 0
BBX 9 12 2 0
BITMAP
C380
C380
C380
C380
C380
C380
C380
C380
C380
E700
FF00
3C00
ENDCHAR
STARTCHAR V.smcp
ENCODING -1
SWIDTH 600 0
DWIDTH 12 0
BBX 12 12 0 0
BITMAP
E070
7060
70E0
30E0
38C0
39C0
19C0
1D80
1F80
0F80
0F00
0F00
ENDCHAR
STARTCHAR W.smcp
ENCODING -1
SWIDTH 600 0
DWIDTH 12 0
BBX 11 12 0 0
BITMAP
E660
6E60
6F60
6FE0
6FE0
7FC0
7FC0
3FC0
3BC0
3BC0
39C0
3980
ENDCHAR
STARTCHAR X.smcp
ENCODING -1
SWIDTH 600 0
DWIDTH 12 0
BBX 10 12 1 0
BITMAP
E1C0
7380
7380
3F00
3E00
1E00
1E00
3F00
3F00
7380
7380
E1C0
ENDCHAR
STARTCHAR Y.smcp
ENCODING -1
SWIDTH 600 0
DWIDTH 12 0
BBX 11 12 1 0
BITMAP
E0E0
E1C0
71C0
7380
3B00
3F00
1E00
1E00
0C00
0C00
0C00
0C00
ENDCHAR
STARTCHAR Z.smcp
ENCODING -1
SWIDTH 600 0
DWIDTH 12 0
BBX 10 12 1 0
BITMAP
7FC0
7FC0
0380
0700
0700
0E00
1C00
1C00
3800
7000
7FC0
FFC0
ENDCHAR
STARTCHAR brevehookcomb
ENCODING -1
SWIDTH 600 0
DWIDTH 12 0
BBX 7 5 3 12
BITMAP
38
18
10
C6
7C
ENDCHAR
STARTCHAR one.sup
ENCODING -1
SWIDTH 600 0
DWIDTH 12 0
BBX 4 8 3 0
BITMAP
10
F0
F0
30
30
30
30
30
ENDCHAR
STARTCHAR breveacutecomb
ENCODING -1
SWIDTH 600 0
DWIDTH 12 0
BBX 7 4 3 12
BITMAP
1C
10
CE
7C
ENDCHAR
STARTCHAR three.sup
ENCODING -1
SWIDTH 600 0
DWIDTH 12 0
BBX 6 8 3 0
BITMAP
78
FC
0C
3C
3C
0C
FC
78
ENDCHAR
STARTCHAR four.sup
ENCODING -1
SWIDTH 600 0
DWIDTH 12 0
BBX 6 8 3 0
BITMAP
18
38
38
78
58
FC
FC
18
ENDCHAR
STARTCHAR five.sup
ENCODING -1
SWIDTH 600 0
DWIDTH 12 0
BBX 6 8 3 0
BITMAP
7C
FC
C0
F8
4C
0C
FC
78
ENDCHAR
STARTCHAR seven.sup
ENCODING -1
SWIDTH 600 0
DWIDTH 12 0
BBX 6 8 3 0
BITMAP
FC
FC
0C
18
18
30
30
60
ENDCHAR
STARTCHAR eight.sup
ENCODING -1
SWIDTH 600 0
DWIDTH 12 0
BBX 6 8 3 0
BITMAP
78
FC
CC
78
FC
CC
FC
78
ENDCHAR
STARTCHAR crossbar
ENCODING -1
SWIDTH 600 0
DWIDTH 12 0
BBX 7 2 3 6
BITMAP
FE
FE
ENDCHAR
STARTCHAR ringacute
ENCODING -1
SWIDTH 600 0
DWIDTH 12 0
BBX 6 6 4 11
BITMAP
1C
30
00
70
90
70
ENDCHAR
STARTCHAR dasiaoxia
ENCODING -1
SWIDTH 600 0
DWIDTH 12 0
BBX 4 3 5 11
BITMAP
F0
A0
A0
ENDCHAR
STARTCHAR brevetildecomb
ENCODING -1
SWIDTH 600 0
DWIDTH 12 0
BBX 7 5 3 13
BITMAP
76
5C
00
C6
7C
ENDCHAR
STARTCHAR cyrillictic
ENCODING -1
SWIDTH 600 0
DWIDTH 12 0
BBX 3 6 5 -4
BITMAP
E0
E0
E0
E0
E0
E0
ENDCHAR
STARTCHAR cyrillichook
ENCODING -1
SWIDTH 600 0
DWIDTH 12 0
BBX 5 7 3 -4
BITMAP
38
38
38
38
38
F8
F0
ENDCHAR
STARTCHAR P.smcp
ENCODING -1
SWIDTH 600 0
DWIDTH 12 0
BBX 9 12 2 0
BITMAP
FE00
FF00
C780
C380
C380
C380
FF00
FE00
C000
C000
C000
C000
ENDCHAR
STARTCHAR K.alt
ENCODING -1
SWIDTH 600 0
DWIDTH 12 0
BBX 11 15 1 0
BITMAP
E1E0
E1C0
E380
E380
E700
E700
EE00
FE00
FE00
E700
E700
E380
E3C0
E1C0
E1E0
ENDCHAR
STARTCHAR Germandbls.smcp
ENCODING -1
SWIDTH 600 0
DWIDTH 12 0
BBX 10 12 1 0
BITMAP
3E00
7F00
7380
E700
E600
EF00
EFC0
E1C0
E1C0
E9C0
EF80
EF00
ENDCHAR
STARTCHAR uni0162.smcp
ENCODING -1
SWIDTH 600 0
DWIDTH 12 0
BBX 11 16 1 -4
BITMAP
FFE0
FFE0
0C00
0C00
0C00
0C00
0C00
0C00
0C00
0C00
0C00
0C00
0C00
0600
0E00
0C00
ENDCHAR
STARTCHAR Dcroat.smcp
ENCODING -1
SWIDTH 600 0
DWIDTH 12 0
BBX 12 12 -1 0
BITMAP
1F80
1FE0
18E0
1870
1870
FE70
FE70
1870
1870
18E0
1FE0
1F80
ENDCHAR
STARTCHAR Eth.smcp
ENCODING -1
SWIDTH 600 0
DWIDTH 12 0
BBX 12 12 -1 0
BITMAP
1F80
1FE0
18E0
1870
1870
FE70
FE70
1870
1870
18E0
1FE0
1F80
ENDCHAR
STARTCHAR Tbar.smcp
ENCODING -1
SWIDTH 600 0
DWIDTH 12 0
BBX 11 12 1 0
BITMAP
FFE0
FFE0
0C00
0C00
0C00
7F00
7F00
0C00
0C00
0C00
0C00
0C00
ENDCHAR
STARTCHAR Agrave.smcp
ENCODING -1
SWIDTH 600 0
DWIDTH 12 0
BBX 12 15 0 0
BITMAP
3C00
0E00
0000
0600
0F00
0F00
1F00
1F80
1980
39C0
39C0
3FC0
7FE0
70E0
E070
ENDCHAR
STARTCHAR Aacute.smcp
ENCODING -1
SWIDTH 600 0
DWIDTH 12 0
BBX 12 15 0 0
BITMAP
03C0
0700
0000
0600
0F00
0F00
1F00
1F80
1980
39C0
39C0
3FC0
7FE0
70E0
E070
ENDCHAR
STARTCHAR Acircumflex.smcp
ENCODING -1
SWIDTH 600 0
DWIDTH 12 0
BBX 12 15 0 0
BITMAP
0600
1F80
2040
0600
0F00
0F00
1F00
1F80
1980
39C0
39C0
3FC0
7FE0
70E0
E070
ENDCHAR
STARTCHAR Atilde.smcp
ENCODING -1
SWIDTH 600 0
DWIDTH 12 0
BBX 12 15 0 0
BITMAP
1FC0
3F80
0000
0600
0F00
0F00
1F00
1F80
1980
39C0
39C0
3FC0
7FE0
70E0
E070
ENDCHAR
STARTCHAR Adieresis.smcp
ENCODING -1
SWIDTH 600 0
DWIDTH 12 0
BBX 12 15 0 0
BITMAP
3980
39C0
0000
0600
0F00
0F00
1F00
1F80
1980
39C0
39C0
3FC0
7FE0
70E0
E070
ENDCHAR
STARTCHAR Aring.smcp
ENCODING -1
SWIDTH 600 0
DWIDTH 12 0
BBX 12 17 0 0
BITMAP
0600
0900
0900
0900
0600
0600
0F00
0F00
1F00
1F80
1980
39C0
39C0
3FC0
7FE0
70E0
E070
ENDCHAR
STARTCHAR Aringacute.smcp
ENCODING -1
SWIDTH 600 0
DWIDTH 12 0
BBX 12 18 0 0
BITMAP
01C0
0300
0600
0900
0900
0600
0600
0F00
0F00
1F00
1F80
1980
39C0
39C0
3FC0
7FE0
70E0
E070
ENDCHAR
STARTCHAR Ccedilla.smcp
ENCODING -1
SWIDTH 600 0
DWIDTH 12 0
BBX 10 16 1 -4
BITMAP
1E00
7F80
F380
E1C0
E000
E000
E000
E000
E1C0
F380
7F80
1E00
0C00
1600
0E00
0C00
ENDCHAR
STARTCHAR Egrave.smcp
ENCODING -1
SWIDTH 600 0
DWIDTH 12 0
BBX 9 15 2 0
BITMAP
F000
3800
0000
FF80
FF80
C000
C000
C000
FF00
FF00
C000
C000
C000
FF00
FF00
ENDCHAR
STARTCHAR Eacute.smcp
ENCODING -1
SWIDTH 600 0
DWIDTH 12 0
BBX 9 15 2 0
BITMAP
0F00
1C00
0000
FF80
FF80
C000
C000
C000
FF00
FF00
C000
C000
C000
FF00
FF00
ENDCHAR
STARTCHAR Ecircumflex.smcp
ENCODING -1
SWIDTH 600 0
DWIDTH 12 0
BBX 9 15 2 0
BITMAP
3800
7E00
8000
FF80
FF80
C000
C000
C000
FF00
FF00
C000
C000
C000
FF00
FF00
ENDCHAR
STARTCHAR Edieresis.smcp
ENCODING -1
SWIDTH 600 0
DWIDTH 12 0
BBX 9 15 2 0
BITMAP
E600
E600
0000
FF80
FF80
C000
C000
C000
FF00
FF00
C000
C000
C000
FF00
FF00
ENDCHAR
STARTCHAR Igrave.smcp
ENCODING -1
SWIDTH 600 0
DWIDTH 12 0
BBX 8 15 2 0
BITMAP
70
38
00
00
FF
FF
18
18
18
18
18
18
18
FF
FF
ENDCHAR
STARTCHAR Iacute.smcp
ENCODING -1
SWIDTH 600 0
DWIDTH 12 0
BBX 8 15 2 0
BITMAP
0F
1C
00
00
FF
FF
18
18
18
18
18
18
18
FF
FF
ENDCHAR
STARTCHAR Icircumflex.smcp
ENCODING -1
SWIDTH 600 0
DWIDTH 12 0
BBX 8 15 2 0
BITMAP
1C
7E
01
00
FF
FF
18
18
18
18
18
18
18
FF
FF
ENDCHAR
STARTCHAR Idieresis.smcp
ENCODING -1
SWIDTH 600 0
DWIDTH 12 0
BBX 8 15 2 0
BITMAP
67
E7
00
00
FF
FF
18
18
18
18
18
18
18
FF
FF
ENDCHAR
STARTCHAR Ntilde.smcp
ENCODING -1
SWIDTH 600 0
DWIDTH 12 0
BBX 8 15 2 0
BITMAP
7F
7E
00
C7
E7
E7
F7
F7
DF
DF
DF
CF
CF
C7
C7
ENDCHAR
STARTCHAR Ograve.smcp
ENCODING -1
SWIDTH 600 0
DWIDTH 12 0
BBX 10 15 1 0
BITMAP
7800
1C00
0000
1E00
7F80
7380
E1C0
E1C0
E1C0
E1C0
E1C0
E1C0
7380
7F80
1E00
ENDCHAR
STARTCHAR Oacute.smcp
ENCODING -1
SWIDTH 600 0
DWIDTH 12 0
BBX 10 15 1 0
BITMAP
0780
0E00
0000
1E00
7F80
7380
E1C0
E1C0
E1C0
E1C0
E1C0
E1C0
7380
7F80
1E00
ENDCHAR
STARTCHAR Ocircumflex.smcp
ENCODING -1
SWIDTH 600 0
DWIDTH 12 0
BBX 10 15 1 0
BITMAP
1C00
3F00
4080
1E00
7F80
7380
E1C0
E1C0
E1C0
E1C0
E1C0
E1C0
7380
7F80
1E00
ENDCHAR
STARTCHAR Otilde.smcp
ENCODING -1
SWIDTH 600 0
DWIDTH 12 0
BBX 10 15 1 0
BITMAP
3F00
7F00
0000
1E00
7F80
7380
E1C0
E1C0
E1C0
E1C0
E1C0
E1C0
7380
7F80
1E00
ENDCHAR
STARTCHAR Odieresis.smcp
ENCODING -1
SWIDTH 600 0
DWIDTH 12 0
BBX 10 15 1 0
BITMAP
7300
7380
0000
1E00
7F80
7380
E1C0
E1C0
E1C0
E1C0
E1C0
E1C0
7380
7F80
1E00
ENDCHAR
STARTCHAR Ugrave.smcp
ENCODING -1
SWIDTH 600 0
DWIDTH 12 0
BBX 9 16 2 0
BITMAP
7000
3800
0000
0000
C380
C380
C380
C380
C380
C380
C380
C380
C380
E700
FF00
3C00
ENDCHAR
STARTCHAR Uacute.smcp
ENCODING -1
SWIDTH 600 0
DWIDTH 12 0
BBX 9 16 2 0
BITMAP
0700
1C00
0000
0000
C380
C380
C380
C380
C380
C380
C380
C380
C380
E700
FF00
3C00
ENDCHAR
STARTCHAR Ucircumflex.smcp
ENCODING -1
SWIDTH 600 0
DWIDTH 12 0
BBX 9 16 2 0
BITMAP
1C00
3E00
4100
0000
C380
C380
C380
C380
C380
C380
C380
C380
C380
E700
FF00
3C00
ENDCHAR
STARTCHAR Udieresis.smcp
ENCODING -1
SWIDTH 600 0
DWIDTH 12 0
BBX 9 16 2 0
BITMAP
6700
6700
0000
0000
C380
C380
C380
C380
C380
C380
C380
C380
C380
E700
FF00
3C00
ENDCHAR
STARTCHAR Yacute.smcp
ENCODING -1
SWIDTH 600 0
DWIDTH 12 0
BBX 11 15 1 0
BITMAP
0780
0E00
0000
E0E0
E1C0
71C0
7380
3B00
3F00
1E00
1E00
0C00
0C00
0C00
0C00
ENDCHAR
STARTCHAR Amacron.smcp
ENCODING -1
SWIDTH 600 0
DWIDTH 12 0
BBX 12 15 0 0
BITMAP
3FC0
3FC0
0000
0600
0F00
0F00
1F00
1F80
1980
39C0
39C0
3FC0
7FE0
70E0
E070
ENDCHAR
STARTCHAR Abreve.smcp
ENCODING -1
SWIDTH 600 0
DWIDTH 12 0
BBX 12 16 0 0
BITMAP
1980
1F80
0F00
0000
0600
0F00
0F00
1F00
1F80
1980
39C0
39C0
3FC0
7FE0
70E0
E070
ENDCHAR
STARTCHAR Aogonek.smcp
ENCODING -1
SWIDTH 600 0
DWIDTH 12 0
BBX 12 16 0 -4
BITMAP
0E00
0F00
0F00
1F80
1F80
1980
39C0
39C0
3FC0
7FE0
70E0
E070
00C0
00C0
00E0
00F0
ENDCHAR
STARTCHAR Cacute.smcp
ENCODING -1
SWIDTH 600 0
DWIDTH 12 0
BBX 10 15 1 0
BITMAP
0700
0E00
0000
1E00
7F80
F380
E1C0
E000
E000
E000
E000
E1C0
F380
7F80
1E00
ENDCHAR
STARTCHAR Ccircumflex.smcp
ENCODING -1
SWIDTH 600 0
DWIDTH 12 0
BBX 10 15 1 0
BITMAP
1C00
3F00
4000
1E00
7F80
F380
E1C0
E000
E000
E000
E000
E1C0
F380
7F80
1E00
ENDCHAR
STARTCHAR Ccaron.smcp
ENCODING -1
SWIDTH 600 0
DWIDTH 12 0
BBX 10 15 1 0
BITMAP
7380
1E00
0000
1E00
7F80
F380
E1C0
E000
E000
E000
E000
E1C0
F380
7F80
1E00
ENDCHAR
STARTCHAR Dcaron.smcp
ENCODING -1
SWIDTH 600 0
DWIDTH 12 0
BBX 10 15 1 0
BITMAP
EE00
7C00
0000
7E00
7F80
6380
61C0
61C0
61C0
61C0
61C0
61C0
6380
7F80
7E00
ENDCHAR
STARTCHAR Emacron.smcp
ENCODING -1
SWIDTH 600 0
DWIDTH 12 0
BBX 9 15 2 0
BITMAP
FE00
FE00
0000
FF80
FF80
C000
C000
C000
FF00
FF00
C000
C000
C000
FF00
FF00
ENDCHAR
STARTCHAR Ebreve.smcp
ENCODING -1
SWIDTH 600 0
DWIDTH 12 0
BBX 9 16 2 0
BITMAP
E600
7E00
3C00
0000
FF80
FF80
C000
C000
C000
FF00
FF00
C000
C000
C000
FF00
FF00
ENDCHAR
STARTCHAR Edotaccent.smcp
ENCODING -1
SWIDTH 600 0
DWIDTH 12 0
BBX 9 15 2 0
BITMAP
1800
3800
0000
FF80
FF80
C000
C000
C000
FF00
FF00
C000
C000
C000
FF00
FF00
ENDCHAR
STARTCHAR Eogonek.smcp
ENCODING -1
SWIDTH 600 0
DWIDTH 12 0
BBX 9 16 2 -4
BITMAP
FF80
FF80
C000
C000
C000
FF00
FF00
C000
C000
C000
FF00
FF00
0C00
0C00
0E00
0F00
ENDCHAR
STARTCHAR Ecaron.smcp
ENCODING -1
SWIDTH 600 0
DWIDTH 12 0
BBX 9 15 2 0
BITMAP
E700
3C00
0000
FF80
FF80
C000
C000
C000
FF00
FF00
C000
C000
C000
FF00
FF00
ENDCHAR
STARTCHAR Gcircumflex.smcp
ENCODING -1
SWIDTH 600 0
DWIDTH 12 0
BBX 10 15 1 0
BITMAP
0E00
3F00
4080
1F00
7F80
73C0
E1C0
E000
E000
E7C0
E7C0
E1C0
F1C0
7FC0
1F00
ENDCHAR
STARTCHAR Gbreve.smcp
ENCODING -1
SWIDTH 600 0
DWIDTH 12 0
BBX 10 16 1 0
BITMAP
3300
3F00
1E00
0000
1F00
7F80
73C0
E1C0
E000
E000
E7C0
E7C0
E1C0
F1C0
7FC0
1F00
ENDCHAR
STARTCHAR Gcommaaccent.smcp
ENCODING -1
SWIDTH 600 0
DWIDTH 12 0
BBX 10 17 1 -5
BITMAP
1F00
7F80
73C0
E1C0
E000
E000
E7C0
E7C0
E1C0
F1C0
7FC0
1F00
0000
0C00
0C00
0C00
0800
ENDCHAR
STARTCHAR Hcircumflex.smcp
ENCODING -1
SWIDTH 600 0
DWIDTH 12 0
BBX 9 15 1 0
BITMAP
0E00
1B00
2080
E180
E180
E180
E180
E180
FF80
FF80
E180
E180
E180
E180
E180
ENDCHAR
STARTCHAR Itilde.smcp
ENCODING -1
SWIDTH 600 0
DWIDTH 12 0
BBX 8 15 2 0
BITMAP
7F
7E
00
00
FF
FF
18
18
18
18
18
18
18
FF
FF
ENDCHAR
STARTCHAR Imacron.smcp
ENCODING -1
SWIDTH 600 0
DWIDTH 12 0
BBX 8 15 2 0
BITMAP
7F
7F
00
00
FF
FF
18
18
18
18
18
18
18
FF
FF
ENDCHAR
STARTCHAR Ibreve.smcp
ENCODING -1
SWIDTH 600 0
DWIDTH 12 0
BBX 8 16 2 0
BITMAP
67
7E
3C
00
00
FF
FF
18
18
18
18
18
18
18
FF
FF
ENDCHAR
STARTCHAR Iogonek.smcp
ENCODING -1
SWIDTH 600 0
DWIDTH 12 0
BBX 8 16 2 -4
BITMAP
FF
FF
18
18
18
18
18
18
18
18
FF
FF
10
30
3C
1C
ENDCHAR
STARTCHAR Idotaccent.smcp
ENCODING -1
SWIDTH 600 0
DWIDTH 12 0
BBX 8 15 2 0
BITMAP
18
1C
00
00
FF
FF
18
18
18
18
18
18
18
FF
FF
ENDCHAR
STARTCHAR Jcircumflex.smcp
ENCODING -1
SWIDTH 600 0
DWIDTH 12 0
BBX 11 15 2 0
BITMAP
0300
0FC0
1020
0300
0300
0300
0300
0300
0300
0300
C300
C300
E700
FE00
3C00
ENDCHAR
STARTCHAR Kcommaaccent.smcp
ENCODING -1
SWIDTH 600 0
DWIDTH 12 0
BBX 11 17 1 -5
BITMAP
E1C0
E380
E780
EF00
EE00
FC00
FE00
FF00
E700
E380
E3C0
E1E0
0000
0800
1800
1800
1000
ENDCHAR
STARTCHAR Lacute.smcp
ENCODING -1
SWIDTH 600 0
DWIDTH 12 0
BBX 9 15 2 0
BITMAP
7800
E000
0000
C000
C000
C000
C000
C000
C000
C000
C000
C000
C000
FF80
FF80
ENDCHAR
STARTCHAR Lcommaaccent.smcp
ENCODING -1
SWIDTH 600 0
DWIDTH 12 0
BBX 9 17 2 -5
BITMAP
C000
C000
C000
C000
C000
C000
C000
C000
C000
C000
FF80
FF80
0000
3000
3000
6000
2000
ENDCHAR
STARTCHAR Lcaron.smcp
ENCODING -1
SWIDTH 600 0
DWIDTH 12 0
BBX 9 12 2 0
BITMAP
C000
CC00
CC00
CC00
CC00
DC00
C800
C000
C000
C000
FF80
FF80
ENDCHAR
STARTCHAR Ldot.smcp
ENCODING -1
SWIDTH 600 0
DWIDTH 12 0
BBX 9 12 2 0
BITMAP
C000
C000
C000
C000
DC00
DC00
C000
C000
C000
C000
FF80
FF80
ENDCHAR
STARTCHAR Nacute.smcp
ENCODING -1
SWIDTH 600 0
DWIDTH 12 0
BBX 8 15 2 0
BITMAP
0F
1C
00
C7
E7
E7
F7
F7
DF
DF
DF
CF
CF
C7
C7
ENDCHAR
STARTCHAR Ncommaaccent.smcp
ENCODING -1
SWIDTH 600 0
DWIDTH 12 0
BBX 8 17 2 -5
BITMAP
C7
E7
E7
F7
F7
DF
DF
DF
CF
CF
C7
C7
00
18
18
18
10
ENDCHAR
STARTCHAR Ncaron.smcp
ENCODING -1
SWIDTH 600 0
DWIDTH 12 0
BBX 8 15 2 0
BITMAP
E7
3C
00
C7
E7
E7
F7
F7
DF
DF
DF
CF
CF
C7
C7
ENDCHAR
STARTCHAR Omacron.smcp
ENCODING -1
SWIDTH 600 0
DWIDTH 12 0
BBX 10 15 1 0
BITMAP
7F80
7F80
0000
1E00
7F80
7380
E1C0
E1C0
E1C0
E1C0
E1C0
E1C0
7380
7F80
1E00
ENDCHAR
STARTCHAR Obreve.smcp
ENCODING -1
SWIDTH 600 0
DWIDTH 12 0
BBX 10 16 1 0
BITMAP
3300
3F00
1E00
0000
1E00
7F80
7380
E1C0
E1C0
E1C0
E1C0
E1C0
E1C0
7380
7F80
1E00
ENDCHAR
STARTCHAR Ohungarumlaut.smcp
ENCODING -1
SWIDTH 600 0
DWIDTH 12 0
BBX 10 15 1 0
BITMAP
0FC0
1B00
2400
1E00
7F80
7380
E1C0
E1C0
E1C0
E1C0
E1C0
E1C0
7380
7F80
1E00
ENDCHAR
STARTCHAR Racute.smcp
ENCODING -1
SWIDTH 600 0
DWIDTH 12 0
BBX 10 16 1 0
BITMAP
0700
0C00
1000
0000
0000
FF00
FF80
E1C0
E1C0
E380
FF80
FF00
E700
E380
E380
E1C0
ENDCHAR
STARTCHAR Rcommaaccent.smcp
ENCODING -1
SWIDTH 600 0
DWIDTH 12 0
BBX 10 16 1 -5
BITMAP
FF00
FF80
E1C0
E1C0
E380
FF80
FF00
E700
E380
E380
E1C0
0000
0C00
0800
1800
0800
ENDCHAR
STARTCHAR Rcaron.smcp
ENCODING -1
SWIDTH 600 0
DWIDTH 12 0
BBX 10 16 1 0
BITMAP
7700
3C00
0000
0000
0000
FF00
FF80
E1C0
E1C0
E380
FF80
FF00
E700
E380
E380
E1C0
ENDCHAR
STARTCHAR Sacute.smcp
ENCODING -1
SWIDTH 600 0
DWIDTH 12 0
BBX 10 15 1 0
BITMAP
0780
0E00
0000
1F00
7F80
73C0
61C0
7000
7E00
1F80
01C0
E1C0
71C0
7F80
3F00
ENDCHAR
STARTCHAR Scircumflex.smcp
ENCODING -1
SWIDTH 600 0
DWIDTH 12 0
BBX 10 15 1 0
BITMAP
0E00
3F00
0080
1F00
7F80
73C0
61C0
7000
7E00
1F80
01C0
E1C0
71C0
7F80
3F00
ENDCHAR
STARTCHAR Scedilla.smcp
ENCODING -1
SWIDTH 600 0
DWIDTH 12 0
BBX 10 16 1 -4
BITMAP
1F00
7F80
73C0
61C0
7000
7E00
1F80
01C0
E1C0
71C0
7F80
3F00
0C00
0600
0E00
0E00
ENDCHAR
STARTCHAR Scaron.smcp
ENCODING -1
SWIDTH 600 0
DWIDTH 12 0
BBX 10 15 1 0
BITMAP
7380
1E00
0000
1F00
7F80
73C0
61C0
7000
7E00
1F80
01C0
E1C0
71C0
7F80
3F00
ENDCHAR
STARTCHAR Tcaron.smcp
ENCODING -1
SWIDTH 600 0
DWIDTH 12 0
BBX 11 15 1 0
BITMAP
7380
1E00
0000
FFE0
FFE0
0C00
0C00
0C00
0C00
0C00
0C00
0C00
0C00
0C00
0C00
ENDCHAR
STARTCHAR Utilde.smcp
ENCODING -1
SWIDTH 600 0
DWIDTH 12 0
BBX 9 16 2 0
BITMAP
7F00
7E00
0000
0000
C380
C380
C380
C380
C380
C380
C380
C380
C380
E700
FF00
3C00
ENDCHAR
STARTCHAR Umacron.smcp
ENCODING -1
SWIDTH 600 0
DWIDTH 12 0
BBX 9 15 2 0
BITMAP
7F00
7F00
0000
C380
C380
C380
C380
C380
C380
C380
C380
C380
E700
FF00
3C00
ENDCHAR
STARTCHAR Ubreve.smcp
ENCODING -1
SWIDTH 600 0
DWIDTH 12 0
BBX 9 16 2 0
BITMAP
6300
7E00
3C00
0000
C380
C380
C380
C380
C380
C380
C380
C380
C380
E700
FF00
3C00
ENDCHAR
STARTCHAR Uring.smcp
ENCODING -1
SWIDTH 600 0
DWIDTH 12 0
BBX 9 17 2 0
BITMAP
1800
3400
2400
3400
1C00
C380
C380
C380
C380
C380
C380
C380
C380
C380
E700
FF00
3C00
ENDCHAR
STARTCHAR Uhungarumlaut.smcp
ENCODING -1
SWIDTH 600 0
DWIDTH 12 0
BBX 10 16 2 0
BITMAP
1DC0
3700
4000
0000
C380
C380
C380
C380
C380
C380
C380
C380
C380
E700
FF00
3C00
ENDCHAR
STARTCHAR Uogonek.smcp
ENCODING -1
SWIDTH 600 0
DWIDTH 12 0
BBX 9 15 2 -3
BITMAP
C380
C380
C380
C380
C380
C380
C380
C380
C380
E700
FF00
3C00
0C00
0E00
0F00
ENDCHAR
STARTCHAR Wcircumflex.smcp
ENCODING -1
SWIDTH 600 0
DWIDTH 12 0
BBX 11 15 0 0
BITMAP
0700
1F80
0040
E660
6E60
6F60
6FE0
6FE0
7FC0
7FC0
3FC0
3BC0
3BC0
39C0
3980
ENDCHAR
STARTCHAR Ycircumflex.smcp
ENCODING -1
SWIDTH 600 0
DWIDTH 12 0
BBX 11 15 1 0
BITMAP
0C00
3F00
4080
E0E0
E1C0
71C0
7380
3B00
3F00
1E00
1E00
0C00
0C00
0C00
0C00
ENDCHAR
STARTCHAR Ydieresis.smcp
ENCODING -1
SWIDTH 600 0
DWIDTH 12 0
BBX 11 15 1 0
BITMAP
7300
7380
0000
E0E0
E1C0
71C0
7380
3B00
3F00
1E00
1E00
0C00
0C00
0C00
0C00
ENDCHAR
STARTCHAR Zacute.smcp
ENCODING -1
SWIDTH 600 0
DWIDTH 12 0
BBX 10 15 1 0
BITMAP
0780
0E00
0000
7FC0
7FC0
0380
0700
0700
0E00
1C00
1C00
3800
7000
7FC0
FFC0
ENDCHAR
STARTCHAR Zdotaccent.smcp
ENCODING -1
SWIDTH 600 0
DWIDTH 12 0
BBX 10 15 1 0
BITMAP
0C00
0C00
0000
7FC0
7FC0
0380
0700
0700
0E00
1C00
1C00
3800
7000
7FC0
FFC0
ENDCHAR
STARTCHAR Zcaron.smcp
ENCODING -1
SWIDTH 600 0
DWIDTH 12 0
BBX 10 15 1 0
BITMAP
7380
1E00
0000
7FC0
7FC0
0380
0700
0700
0E00
1C00
1C00
3800
7000
7FC0
FFC0
ENDCHAR
ENDFONT
